<svg xmlns="http://www.w3.org/2000/svg" width="24" height="24" viewBox="0 0 24 24" fill="none">
  <path d="M12.0001 20.6399C16.9044 20.6399 20.8801 16.6641 20.8801 11.7599C20.8801 6.8556 16.9044 2.87988 12.0001 2.87988C7.09583 2.87988 3.12012 6.8556 3.12012 11.7599C3.12012 16.6641 7.09583 20.6399 12.0001 20.6399Z" stroke="#006060" stroke-width="1.5" stroke-linecap="round" stroke-linejoin="round"/>
  <mask id="path-2-inside-1_5715_17962" fill="white">
    <path d="M12.8941 7.82397C12.889 8.05654 12.7924 8.27773 12.6253 8.4395C12.458 8.60127 12.2338 8.69052 12.0012 8.68794C11.8316 8.68229 11.6676 8.62688 11.5293 8.52856C11.391 8.43026 11.2848 8.29339 11.2238 8.13511C11.1628 7.97682 11.1497 7.80407 11.1863 7.6384C11.2228 7.47274 11.3073 7.32155 11.4292 7.20358C11.5511 7.08561 11.705 7.00614 11.8718 6.97507C12.0385 6.944 12.2108 6.9627 12.367 7.02886C12.5232 7.09501 12.6565 7.20568 12.7502 7.34708C12.8439 7.48847 12.894 7.65434 12.8941 7.82397ZM11.3197 15.8688V10.704C11.3171 10.6133 11.3328 10.523 11.366 10.4386C11.3992 10.3542 11.4492 10.2774 11.5129 10.2129C11.5766 10.1483 11.6527 10.0972 11.7366 10.0628C11.8205 10.0285 11.9105 10.0114 12.0012 10.0127C12.0906 10.0126 12.1792 10.0307 12.2615 10.0658C12.3438 10.1009 12.4182 10.1522 12.4801 10.2168C12.542 10.2814 12.5901 10.3578 12.6217 10.4416C12.6533 10.5253 12.6675 10.6145 12.6636 10.704V15.8688C12.6636 15.957 12.6462 16.0444 12.6125 16.1259C12.5787 16.2074 12.5292 16.2815 12.4668 16.3439C12.4044 16.4063 12.3303 16.4558 12.2488 16.4896C12.1672 16.5233 12.0799 16.5407 11.9917 16.5407C11.9034 16.5407 11.816 16.5233 11.7345 16.4896C11.653 16.4558 11.5789 16.4063 11.5165 16.3439C11.4541 16.2815 11.4045 16.2074 11.3708 16.1259C11.337 16.0444 11.3197 15.957 11.3197 15.8688Z"/>
  </mask>
  <path d="M12.8941 7.82397C12.889 8.05654 12.7924 8.27773 12.6253 8.4395C12.458 8.60127 12.2338 8.69052 12.0012 8.68794C11.8316 8.68229 11.6676 8.62688 11.5293 8.52856C11.391 8.43026 11.2848 8.29339 11.2238 8.13511C11.1628 7.97682 11.1497 7.80407 11.1863 7.6384C11.2228 7.47274 11.3073 7.32155 11.4292 7.20358C11.5511 7.08561 11.705 7.00614 11.8718 6.97507C12.0385 6.944 12.2108 6.9627 12.367 7.02886C12.5232 7.09501 12.6565 7.20568 12.7502 7.34708C12.8439 7.48847 12.894 7.65434 12.8941 7.82397ZM11.3197 15.8688V10.704C11.3171 10.6133 11.3328 10.523 11.366 10.4386C11.3992 10.3542 11.4492 10.2774 11.5129 10.2129C11.5766 10.1483 11.6527 10.0972 11.7366 10.0628C11.8205 10.0285 11.9105 10.0114 12.0012 10.0127C12.0906 10.0126 12.1792 10.0307 12.2615 10.0658C12.3438 10.1009 12.4182 10.1522 12.4801 10.2168C12.542 10.2814 12.5901 10.3578 12.6217 10.4416C12.6533 10.5253 12.6675 10.6145 12.6636 10.704V15.8688C12.6636 15.957 12.6462 16.0444 12.6125 16.1259C12.5787 16.2074 12.5292 16.2815 12.4668 16.3439C12.4044 16.4063 12.3303 16.4558 12.2488 16.4896C12.1672 16.5233 12.0799 16.5407 11.9917 16.5407C11.9034 16.5407 11.816 16.5233 11.7345 16.4896C11.653 16.4558 11.5789 16.4063 11.5165 16.3439C11.4541 16.2815 11.4045 16.2074 11.3708 16.1259C11.337 16.0444 11.3197 15.957 11.3197 15.8688Z" fill="#008080"/>
  <path d="M12.8941 7.82397L14.3937 7.85678L14.3941 7.83995L14.3941 7.82312L12.8941 7.82397ZM12.6253 8.4395L13.6682 9.51762L13.6685 9.51733L12.6253 8.4395ZM12.0012 8.68794L11.9512 10.1871L11.9678 10.1877L11.9845 10.1878L12.0012 8.68794ZM11.5293 8.52856L12.3987 7.30617L12.3982 7.30584L11.5293 8.52856ZM11.2238 8.13511L12.6236 7.59601L12.6233 7.59527L11.2238 8.13511ZM11.1863 7.6384L12.651 7.96178L12.6512 7.96099L11.1863 7.6384ZM11.4292 7.20358L10.3862 6.12558L10.3861 6.12562L11.4292 7.20358ZM11.8718 6.97507L12.1465 8.4497L12.1466 8.44968L11.8718 6.97507ZM12.367 7.02886L11.7819 8.41005L11.782 8.41008L12.367 7.02886ZM12.7502 7.34708L11.4998 8.17564L11.5002 8.17627L12.7502 7.34708ZM11.3197 10.704H12.8197V10.6826L12.819 10.6612L11.3197 10.704ZM11.5129 10.2129L12.5799 11.2672L12.5815 11.2656L11.5129 10.2129ZM12.0012 10.0127L11.9789 11.5126L11.9908 11.5127L12.0028 11.5127L12.0012 10.0127ZM12.2615 10.0658L11.6724 11.4453L11.6737 11.4459L12.2615 10.0658ZM12.6636 10.704L11.165 10.6381L11.1636 10.671V10.704H12.6636ZM12.6125 16.1259L13.9981 16.7004L13.9987 16.699L12.6125 16.1259ZM12.2488 16.4896L12.8228 17.8754L12.8233 17.8752L12.2488 16.4896ZM11.3708 16.1259L12.757 15.5528L12.7565 15.5514L11.3708 16.1259ZM11.3944 7.79116C11.398 7.62906 11.4653 7.4747 11.582 7.36168L13.6685 9.51733C14.1195 9.08077 14.38 8.48402 14.3937 7.85678L11.3944 7.79116ZM11.5824 7.36138C11.699 7.24851 11.8555 7.18623 12.0178 7.18803L11.9845 10.1878C12.612 10.1948 13.217 9.95403 13.6682 9.51762L11.5824 7.36138ZM12.0512 7.18877C12.1759 7.19294 12.2968 7.23376 12.3987 7.30617L10.66 9.75095C11.0383 10.02 11.4873 10.1716 11.9512 10.1871L12.0512 7.18877ZM12.3982 7.30584C12.5006 7.37857 12.5788 7.47965 12.6236 7.59601L9.82407 8.6742C9.99081 9.10713 10.2814 9.48194 10.6604 9.75128L12.3982 7.30584ZM12.6233 7.59527C12.6684 7.71206 12.678 7.83955 12.651 7.96178L9.72159 7.31502C9.62145 7.76858 9.6572 8.24158 9.82436 8.67494L12.6233 7.59527ZM12.6512 7.96099C12.6243 8.08337 12.5619 8.19482 12.4723 8.28154L10.3861 6.12562C10.0527 6.44829 9.82132 6.86212 9.72141 7.31581L12.6512 7.96099ZM12.4722 8.28158C12.3827 8.36822 12.2694 8.42679 12.1465 8.4497L11.597 5.50044C11.1406 5.58548 10.7195 5.80301 10.3862 6.12558L12.4722 8.28158ZM12.1466 8.44968C12.0239 8.47255 11.8971 8.45883 11.7819 8.41005L12.9521 5.64767C12.5245 5.46656 12.0532 5.41544 11.597 5.50046L12.1466 8.44968ZM11.782 8.41008C11.667 8.36136 11.5688 8.27982 11.4998 8.17564L14.0005 6.51852C13.7441 6.13154 13.3794 5.82867 12.952 5.64764L11.782 8.41008ZM11.5002 8.17627C11.4309 8.07188 11.3941 7.9496 11.3941 7.82482L14.3941 7.82312C14.3938 7.35907 14.257 6.90506 14.0001 6.51789L11.5002 8.17627ZM12.8197 15.8688V10.704H9.81966V15.8688H12.8197ZM12.819 10.6612C12.8222 10.7721 12.803 10.8833 12.7618 10.988L9.97027 9.88917C9.86261 10.1627 9.81192 10.4545 9.82027 10.7469L12.819 10.6612ZM12.7618 10.988C12.721 11.0916 12.6594 11.1868 12.5799 11.2672L10.4459 9.15859C10.239 9.36804 10.0775 9.61678 9.97027 9.88917L12.7618 10.988ZM12.5815 11.2656C12.5029 11.3453 12.409 11.4084 12.3052 11.4509L11.168 8.67477C10.8964 8.78603 10.6502 8.95123 10.4443 9.16019L12.5815 11.2656ZM12.3052 11.4509C12.2023 11.493 12.0914 11.5142 11.9789 11.5126L12.0234 8.51289C11.7297 8.50853 11.4387 8.56388 11.168 8.67477L12.3052 11.4509ZM12.0028 11.5127C11.8896 11.5128 11.7772 11.49 11.6724 11.4453L12.8506 8.68634C12.5813 8.57132 12.2917 8.51241 11.9996 8.51272L12.0028 11.5127ZM11.6737 11.4459C11.5699 11.4016 11.4757 11.3367 11.3972 11.2547L13.5631 9.17893C13.3606 8.96771 13.1177 8.80008 12.8493 8.68576L11.6737 11.4459ZM11.3972 11.2547C11.3185 11.1727 11.2579 11.076 11.2183 10.9711L14.0251 9.91205C13.9224 9.63967 13.7655 9.39016 13.5631 9.17893L11.3972 11.2547ZM11.2183 10.9711C11.1779 10.8641 11.1601 10.7508 11.165 10.6381L14.1621 10.7699C14.1749 10.4783 14.1287 10.1864 14.0251 9.91205L11.2183 10.9711ZM11.1636 10.704V15.8688H14.1636V10.704H11.1636ZM11.1636 15.8688C11.1636 15.7601 11.185 15.6528 11.2263 15.5528L13.9987 16.699C14.1074 16.436 14.1636 16.154 14.1636 15.8688H11.1636ZM11.2269 15.5514C11.2684 15.4511 11.3293 15.36 11.4061 15.2833L13.5274 17.4046C13.729 17.203 13.8889 16.9637 13.9981 16.7004L11.2269 15.5514ZM11.4061 15.2833C11.4831 15.2063 11.5743 15.1454 11.6744 15.1039L12.8233 17.8752C13.0864 17.7661 13.3256 17.6064 13.5274 17.4046L11.4061 15.2833ZM11.6749 15.1037C11.7752 15.0622 11.8828 15.0407 11.9917 15.0407V18.0407C12.277 18.0407 12.5593 17.9845 12.8228 17.8754L11.6749 15.1037ZM11.9917 15.0407C12.1002 15.0407 12.208 15.0621 12.309 15.1039L11.16 17.8752C11.424 17.9846 11.7067 18.0407 11.9917 18.0407V15.0407ZM12.309 15.1039C12.4084 15.1452 12.4997 15.2058 12.5771 15.2833L10.4558 17.4046C10.658 17.6068 10.8975 17.7664 11.16 17.8752L12.309 15.1039ZM12.5771 15.2833C12.6539 15.36 12.7151 15.4514 12.757 15.5528L9.98462 16.699C10.0939 16.9634 10.2543 17.203 10.4558 17.4046L12.5771 15.2833ZM12.7565 15.5514C12.7982 15.6522 12.8197 15.7601 12.8197 15.8688H9.81966C9.81966 16.154 9.87583 16.4366 9.9852 16.7004L12.7565 15.5514Z" fill="#008080" mask="url(#path-2-inside-1_5715_17962)"/>
</svg>