<svg width="24" height="24" viewBox="0 0 24 24" fill="none" xmlns="http://www.w3.org/2000/svg">
<g clip-path="url(#clip0_10071_28040)">
<path opacity="0.876" fill-rule="evenodd" clip-rule="evenodd" d="M10.4775 0.398438C10.6025 0.398438 10.7274 0.398438 10.8525 0.398438C10.8646 0.664312 10.8803 0.929939 10.8993 1.19531C10.661 1.20035 10.4266 1.2316 10.1962 1.28906C10.0879 1.03043 10.0567 0.764808 10.1025 0.492188C10.2342 0.465017 10.3592 0.433768 10.4775 0.398438Z" fill="#4CAF50"/>
<path opacity="0.866" fill-rule="evenodd" clip-rule="evenodd" d="M9.21094 0.632812C9.25781 0.632812 9.30469 0.632812 9.35156 0.632812C9.40594 0.897127 9.45281 1.16275 9.49219 1.42969C9.25795 1.46675 9.03141 1.52925 8.8125 1.61719C8.70352 1.36052 8.61759 1.0949 8.55469 0.820312C8.78227 0.771398 9.00103 0.708895 9.21094 0.632812Z" fill="#4CAF50"/>
<path opacity="0.868" fill-rule="evenodd" clip-rule="evenodd" d="M7.71094 1.10143C7.80239 1.08862 7.8727 1.11987 7.92188 1.19518C7.99687 1.38112 8.06719 1.56862 8.13281 1.75768C7.95019 1.90769 7.73925 2.01706 7.5 2.0858C7.32019 1.86671 7.203 1.6167 7.14844 1.3358C7.34939 1.28197 7.53689 1.20385 7.71094 1.10143Z" fill="#4CAF50"/>
<path opacity="0.857" fill-rule="evenodd" clip-rule="evenodd" d="M6.39844 1.71094C6.46955 1.71143 6.52425 1.74268 6.5625 1.80469C6.65808 2.00369 6.75966 2.199 6.86719 2.39062C6.64439 2.50586 6.43345 2.63867 6.23438 2.78906C6.07434 2.57842 5.92589 2.35967 5.78906 2.13281C5.98538 1.98016 6.18848 1.83954 6.39844 1.71094Z" fill="#4CAF50"/>
<path opacity="0.855" fill-rule="evenodd" clip-rule="evenodd" d="M5.13281 2.50794C5.1795 2.50392 5.21855 2.51955 5.25 2.55482C5.3737 2.74882 5.5065 2.93632 5.64844 3.11732C5.47406 3.29951 5.27873 3.45575 5.0625 3.58607C4.87331 3.42035 4.70925 3.23285 4.57031 3.02357C4.75875 2.85066 4.94625 2.67879 5.13281 2.50794Z" fill="#4CAF50"/>
<path opacity="0.938" fill-rule="evenodd" clip-rule="evenodd" d="M19.2884 3.35156C19.9759 3.35156 20.6634 3.35156 21.3509 3.35156C21.3509 3.60156 21.3509 3.85156 21.3509 4.10156C21.1004 4.09378 20.8504 4.10159 20.6009 4.125C23.3456 7.33097 24.2128 10.995 23.2024 15.1172C21.9878 19.035 19.4487 21.6834 15.5852 23.0625C14.4124 23.4454 13.2093 23.6251 11.9759 23.6016C11.9615 23.3394 11.9771 23.0816 12.0227 22.8281C16.0045 22.6838 19.0748 20.9573 21.2337 17.6484C22.9943 14.6155 23.2911 11.4436 22.1243 8.13281C21.6098 6.79013 20.8598 5.60259 19.8743 4.57031C19.8509 4.91372 19.8431 5.25745 19.8509 5.60156C19.6009 5.60156 19.3509 5.60156 19.1009 5.60156C19.093 4.91391 19.1009 4.22639 19.1243 3.53906C19.1567 3.45233 19.2113 3.38983 19.2884 3.35156Z" fill="#4CAF50"/>
<path opacity="0.872" fill-rule="evenodd" clip-rule="evenodd" d="M3.96094 3.49219C4.18308 3.64363 4.38621 3.82332 4.57031 4.03125C4.38992 4.21948 4.20242 4.39917 4.00781 4.57031C3.81321 4.39917 3.62571 4.21948 3.44531 4.03125C3.62674 3.8577 3.79861 3.67801 3.96094 3.49219Z" fill="#4CAF50"/>
<path opacity="0.928" fill-rule="evenodd" clip-rule="evenodd" d="M11.1325 4.1015C14.4897 3.90886 17.06 5.22134 18.8434 8.039C19.9382 10.072 20.157 12.197 19.4997 14.414C18.3519 17.5459 16.1253 19.3505 12.82 19.8281C9.41471 20.0436 6.82876 18.7077 5.06218 15.8202C4.01238 13.8107 3.80926 11.7169 4.4528 9.539C5.60832 6.40663 7.83488 4.59411 11.1325 4.1015ZM11.9294 4.8515C10.9944 4.88188 10.0882 5.0772 9.21062 5.43744C6.45301 6.74056 5.01554 8.92025 4.89812 11.9765C5.01624 15.0346 6.45371 17.2143 9.21062 18.5156C12.1208 19.5943 14.7224 19.0865 17.0153 16.9921C19.0887 14.7086 19.5887 12.1149 18.5153 9.21087C17.1957 6.45233 15.0004 4.9992 11.9294 4.8515Z" fill="#4CAF50"/>
<path opacity="0.857" fill-rule="evenodd" clip-rule="evenodd" d="M2.97656 4.57031C3.18881 4.73114 3.39193 4.90303 3.58594 5.08594C3.42844 5.28248 3.28 5.48559 3.14062 5.69531C2.91536 5.54798 2.70442 5.38392 2.50781 5.20312C2.6555 4.98525 2.81175 4.77431 2.97656 4.57031Z" fill="#4CAF50"/>
<path opacity="0.869" fill-rule="evenodd" clip-rule="evenodd" d="M2.03906 5.83594C2.30842 5.91769 2.5428 6.05831 2.74219 6.25781C2.62688 6.44934 2.5175 6.64467 2.41406 6.84375C2.36719 6.87502 2.32031 6.87502 2.27344 6.84375C2.09755 6.73627 1.91786 6.63469 1.73438 6.53906C1.70312 6.49219 1.70312 6.44531 1.73438 6.39844C1.84902 6.21591 1.95058 6.02841 2.03906 5.83594Z" fill="#4CAF50"/>
<path opacity="0.86" fill-rule="evenodd" clip-rule="evenodd" d="M1.33594 7.14844C1.60104 7.24973 1.85105 7.37475 2.08594 7.52344C1.99974 7.75833 1.89037 7.97709 1.75781 8.17969C1.51604 8.09142 1.28166 7.98984 1.05469 7.875C1.16248 7.63744 1.25623 7.39528 1.33594 7.14844Z" fill="#4CAF50"/>
<path opacity="0.87" fill-rule="evenodd" clip-rule="evenodd" d="M0.820312 8.60156C1.07289 8.65453 1.32289 8.71702 1.57031 8.78906C1.52344 9.03905 1.47656 9.28908 1.42969 9.53906C1.16537 9.48469 0.899747 9.43781 0.632812 9.39844C0.673242 9.12736 0.735741 8.86172 0.820312 8.60156Z" fill="#4CAF50"/>
<path opacity="0.918" fill-rule="evenodd" clip-rule="evenodd" d="M13.8516 9.63281C14.1015 9.67969 14.3516 9.72656 14.6016 9.77344C14.2624 11.3176 13.8796 12.8489 13.4531 14.3672C13.2164 14.2865 12.9742 14.224 12.7266 14.1797C13.0797 12.6577 13.4547 11.1421 13.8516 9.63281Z" fill="#4CAF50"/>
<path opacity="0.945" fill-rule="evenodd" clip-rule="evenodd" d="M6.91504 9.72663C8.14808 9.65496 8.70276 10.2331 8.5791 11.461C8.49721 11.8122 8.34098 12.1248 8.11035 12.3985C7.81119 12.7544 7.50651 13.106 7.19629 13.4532C7.66476 13.4766 8.13351 13.4844 8.60254 13.4766C8.60254 13.7266 8.60254 13.9766 8.60254 14.2266C7.78987 14.2345 6.97738 14.2266 6.16504 14.2032C6.02366 14.1315 5.96118 14.0143 5.97754 13.8516C5.97824 13.7516 6.00168 13.6579 6.04785 13.5704C6.56348 12.961 7.0791 12.3516 7.59473 11.7423C7.78823 11.4734 7.85076 11.1765 7.78223 10.8516C7.60551 10.5275 7.34769 10.4416 7.00879 10.5938C6.81323 10.758 6.71948 10.969 6.72754 11.2266C6.47755 11.2266 6.22752 11.2266 5.97754 11.2266C5.92907 10.4951 6.24154 9.99513 6.91504 9.72663Z" fill="#4CAF50"/>
<path opacity="0.972" fill-rule="evenodd" clip-rule="evenodd" d="M11.0397 9.72649C11.1656 9.7188 11.2906 9.72663 11.4147 9.74993C11.5006 9.77337 11.5553 9.82807 11.5787 9.91399C11.6022 10.8513 11.61 11.7888 11.6022 12.7265C11.8521 12.7265 12.1022 12.7265 12.3522 12.7265C12.3522 12.9765 12.3522 13.2265 12.3522 13.4765C12.1022 13.4765 11.8521 13.4765 11.6022 13.4765C11.6022 13.7265 11.6022 13.9765 11.6022 14.2265C11.3522 14.2265 11.1021 14.2265 10.8522 14.2265C10.8522 13.9765 10.8522 13.7265 10.8522 13.4765C10.2894 13.4843 9.72692 13.4765 9.16466 13.4531C9.02328 13.3814 8.9608 13.2642 8.97716 13.1015C8.97556 12.964 9.01461 12.839 9.09434 12.7265C9.65975 11.8639 10.2066 10.989 10.735 10.1015C10.8267 9.96274 10.9283 9.83777 11.0397 9.72649ZM10.8053 11.5077C10.5856 11.9232 10.3356 12.3217 10.0553 12.7031C10.3205 12.7264 10.5861 12.7343 10.8522 12.7265C10.8674 12.3117 10.8518 11.9054 10.8053 11.5077Z" fill="#4CAF50"/>
<path opacity="0.957" fill-rule="evenodd" clip-rule="evenodd" d="M15.165 9.72657C16.0402 9.71874 16.9152 9.72657 17.79 9.75001C17.8759 9.77344 17.9307 9.82815 17.9541 9.91407C17.9854 10.0391 17.9854 10.1641 17.9541 10.2891C17.2517 11.4893 16.8923 12.7861 16.876 14.1797C16.6225 14.2253 16.3647 14.241 16.1025 14.2266C16.0699 12.912 16.3511 11.6698 16.9463 10.5C16.5403 10.4766 16.1341 10.4688 15.7275 10.4766C15.7275 10.6016 15.7275 10.7266 15.7275 10.8516C15.4775 10.8516 15.2275 10.8516 14.9775 10.8516C14.9697 10.5387 14.9775 10.2262 15.001 9.91407C15.0333 9.82735 15.088 9.76482 15.165 9.72657Z" fill="#4CAF50"/>
<path opacity="0.879" fill-rule="evenodd" clip-rule="evenodd" d="M0.492425 10.0547C0.726177 10.0971 0.960552 10.144 1.19555 10.1953C1.22728 10.4434 1.22728 10.6934 1.19555 10.9453C0.933697 10.9309 0.675884 10.8997 0.422112 10.8516C0.403659 10.5823 0.427096 10.3167 0.492425 10.0547Z" fill="#4CAF50"/>
<path opacity="0.891" fill-rule="evenodd" clip-rule="evenodd" d="M0.351562 11.6016C0.617189 11.6016 0.882811 11.6016 1.14844 11.6016C1.14844 11.8515 1.14844 12.1016 1.14844 12.3516C0.883486 12.3765 0.617859 12.3921 0.351562 12.3984C0.351562 12.1328 0.351562 11.8672 0.351562 11.6016Z" fill="#4CAF50"/>
<path opacity="0.879" fill-rule="evenodd" clip-rule="evenodd" d="M1.10156 13.0078C1.19429 13.2387 1.25679 13.4887 1.28906 13.7578C1.05589 13.8097 0.821512 13.8566 0.585938 13.8984C0.532158 13.8835 0.493097 13.8523 0.46875 13.8047C0.425989 13.572 0.402551 13.3376 0.398438 13.1016C0.641906 13.0903 0.876281 13.059 1.10156 13.0078Z" fill="#4CAF50"/>
<path opacity="0.869" fill-rule="evenodd" clip-rule="evenodd" d="M1.33594 14.4141C1.38685 14.4197 1.4181 14.451 1.42969 14.5078C1.49952 14.7239 1.53858 14.9426 1.54688 15.1641C1.3125 15.2422 1.07812 15.3203 0.84375 15.3984C0.762511 15.1594 0.692198 14.9172 0.632812 14.6719C0.651816 14.6276 0.683063 14.5963 0.726562 14.5781C0.93945 14.5375 1.14258 14.4828 1.33594 14.4141Z" fill="#4CAF50"/>
<path opacity="0.862" fill-rule="evenodd" clip-rule="evenodd" d="M1.75781 15.7734C1.89614 15.9799 2.00552 16.2065 2.08594 16.4531C1.86739 16.5937 1.63302 16.7108 1.38281 16.8047C1.25973 16.5681 1.15035 16.3259 1.05469 16.0781C1.29573 15.98 1.53011 15.8784 1.75781 15.7734Z" fill="#4CAF50"/>
<path opacity="0.862" fill-rule="evenodd" clip-rule="evenodd" d="M2.32031 17.0861C2.367 17.082 2.40606 17.0977 2.4375 17.1329C2.55178 17.3147 2.65334 17.5022 2.74219 17.6954C2.56217 17.8758 2.35124 18.0164 2.10938 18.1173C1.94749 17.9267 1.81468 17.7158 1.71094 17.4845C1.89971 17.3278 2.10284 17.195 2.32031 17.0861Z" fill="#4CAF50"/>
<path opacity="0.86" fill-rule="evenodd" clip-rule="evenodd" d="M3.07031 18.3047C3.15802 18.3215 3.22833 18.3684 3.28125 18.4453C3.39189 18.5794 3.49345 18.72 3.58594 18.8672C3.39877 19.0464 3.20346 19.2183 3 19.3828C2.82705 19.1865 2.66299 18.9833 2.50781 18.7734C2.68253 18.5985 2.87003 18.4422 3.07031 18.3047Z" fill="#4CAF50"/>
<path opacity="0.866" fill-rule="evenodd" clip-rule="evenodd" d="M4.00781 19.3828C4.19221 19.5513 4.37971 19.7232 4.57031 19.8984C4.4004 20.0998 4.22071 20.2873 4.03125 20.4609C3.82031 20.3125 3.64063 20.1328 3.49219 19.9219C3.64144 19.718 3.81331 19.5383 4.00781 19.3828Z" fill="#4CAF50"/>
<path opacity="0.863" fill-rule="evenodd" clip-rule="evenodd" d="M5.03906 20.3672C5.26828 20.4867 5.47139 20.643 5.64844 20.8359C5.52572 21.0662 5.36944 21.2693 5.17969 21.4453C4.96978 21.2902 4.76667 21.1261 4.57031 20.9531C4.73658 20.7637 4.89281 20.5684 5.03906 20.3672Z" fill="#4CAF50"/>
<path opacity="0.858" fill-rule="evenodd" clip-rule="evenodd" d="M6.16406 21.2112C6.22842 21.2038 6.29095 21.2116 6.35156 21.2346C6.52519 21.3524 6.69703 21.4696 6.86719 21.5862C6.76912 21.8297 6.63633 22.0485 6.46875 22.2424C6.23137 22.1277 6.00483 21.9948 5.78906 21.844C5.94464 21.6498 6.06966 21.4388 6.16406 21.2112Z" fill="#4CAF50"/>
<path opacity="0.863" fill-rule="evenodd" clip-rule="evenodd" d="M7.42969 21.8672C7.69556 21.9298 7.94555 22.0314 8.17969 22.1719C8.07834 22.4133 7.97677 22.6554 7.875 22.8984C7.62727 22.8028 7.38506 22.6934 7.14844 22.5703C7.25606 22.3397 7.34981 22.1054 7.42969 21.8672Z" fill="#4CAF50"/>
<path opacity="0.868" fill-rule="evenodd" clip-rule="evenodd" d="M8.78906 22.3828C9.04631 22.4159 9.2963 22.4784 9.53906 22.5703C9.4755 22.7865 9.4208 23.0052 9.375 23.2266C9.35681 23.2701 9.32555 23.3013 9.28125 23.3203C9.03591 23.2609 8.7937 23.1906 8.55469 23.1094C8.63766 22.8683 8.71575 22.6261 8.78906 22.3828Z" fill="#4CAF50"/>
<path opacity="0.873" fill-rule="evenodd" clip-rule="evenodd" d="M10.1952 22.6641C10.4395 22.7257 10.6895 22.757 10.9452 22.7578C10.9109 23.0229 10.8797 23.2885 10.8515 23.5547C10.5972 23.5541 10.3471 23.5228 10.1015 23.4609C10.086 23.1934 10.1173 22.9277 10.1952 22.6641Z" fill="#4CAF50"/>
</g>
<defs>
<clipPath id="clip0_10071_28040">
<rect width="24" height="24" fill="white"/>
</clipPath>
</defs>
</svg>
