<svg width="24" height="25" viewBox="0 0 24 25" fill="none" xmlns="http://www.w3.org/2000/svg">
<g id="Chat">
<g id="Vector">
<mask id="path-1-inside-1_5542_21403" fill="white">
<path d="M13.7321 22.2697L14.2742 21.3539L12.9833 20.5898L12.4412 21.5057L13.7321 22.2697ZM9.72579 21.3539L10.2679 22.2697L11.5587 21.5057L11.0166 20.5898L9.72579 21.3539ZM12.4412 21.5057C12.2485 21.8313 11.7515 21.8313 11.5587 21.5057L10.2679 22.2697C11.0415 23.5767 12.9585 23.5767 13.7321 22.2697L12.4412 21.5057ZM10.5 3.25H13.5V1.75H10.5V3.25ZM21.25 11V12H22.75V11H21.25ZM2.75 12V11H1.25V12H2.75ZM1.25 12C1.25 13.1546 1.24959 14.0581 1.29931 14.7868C1.3495 15.5223 1.45323 16.1344 1.68769 16.7004L3.07351 16.1264C2.92737 15.7736 2.84081 15.3438 2.79584 14.6847C2.75041 14.0189 2.75 13.1751 2.75 12H1.25ZM7.8025 18.7416C6.54706 18.7199 5.88923 18.6401 5.37359 18.4265L4.79957 19.8123C5.60454 20.1457 6.52138 20.2197 7.77666 20.2413L7.8025 18.7416ZM1.68769 16.7004C2.27128 18.1093 3.39066 19.2287 4.79957 19.8123L5.37359 18.4265C4.33222 17.9951 3.50486 17.1678 3.07351 16.1264L1.68769 16.7004ZM21.25 12C21.25 13.1751 21.2496 14.0189 21.2042 14.6847C21.1592 15.3438 21.0726 15.7736 20.9265 16.1264L22.3123 16.7004C22.5468 16.1344 22.6505 15.5223 22.7007 14.7868C22.7504 14.0581 22.75 13.1546 22.75 12H21.25ZM16.2233 20.2413C17.4786 20.2197 18.3955 20.1457 19.2004 19.8123L18.6264 18.4265C18.1108 18.6401 17.4529 18.7199 16.1975 18.7416L16.2233 20.2413ZM20.9265 16.1264C20.4951 17.1678 19.6678 17.9951 18.6264 18.4265L19.2004 19.8123C20.6093 19.2287 21.7287 18.1093 22.3123 16.7004L20.9265 16.1264ZM13.5 3.25C15.1512 3.25 16.337 3.25079 17.2619 3.33873C18.1757 3.42561 18.7571 3.59223 19.2206 3.87628L20.0044 2.59732C19.2655 2.14457 18.4274 1.94279 17.4039 1.84547C16.3915 1.74921 15.1222 1.75 13.5 1.75V3.25ZM22.75 11C22.75 9.37781 22.7508 8.1085 22.6545 7.09611C22.5572 6.07256 22.3554 5.23445 21.9027 4.49563L20.6237 5.27938C20.9078 5.74291 21.0744 6.32434 21.1613 7.23809C21.2492 8.163 21.25 9.34876 21.25 11H22.75ZM19.2206 3.87628C19.7925 4.22672 20.2733 4.70752 20.6237 5.27938L21.9027 4.49563C21.4286 3.72194 20.7781 3.07144 20.0044 2.59732L19.2206 3.87628ZM10.5 1.75C8.87781 1.75 7.6085 1.74921 6.59611 1.84547C5.57256 1.94279 4.73445 2.14457 3.99563 2.59732L4.77938 3.87628C5.24291 3.59223 5.82434 3.42561 6.73809 3.33873C7.663 3.25079 8.84876 3.25 10.5 3.25V1.75ZM2.75 11C2.75 9.34876 2.75079 8.163 2.83873 7.23809C2.92561 6.32434 3.09223 5.74291 3.37628 5.27938L2.09732 4.49563C1.64457 5.23445 1.44279 6.07256 1.34547 7.09611C1.24921 8.1085 1.25 9.37781 1.25 11H2.75ZM3.99563 2.59732C3.22194 3.07144 2.57144 3.72194 2.09732 4.49563L3.37628 5.27938C3.72672 4.70752 4.20752 4.22672 4.77938 3.87628L3.99563 2.59732ZM11.0166 20.5898C10.8136 20.2468 10.6354 19.9441 10.4621 19.7063C10.2795 19.4559 10.0702 19.2304 9.77986 19.0615L9.02572 20.3582C9.07313 20.3857 9.13772 20.436 9.24985 20.5898C9.37122 20.7564 9.50835 20.9865 9.72579 21.3539L11.0166 20.5898ZM7.77666 20.2413C8.21575 20.2489 8.49387 20.2545 8.70588 20.2779C8.90399 20.2999 8.98078 20.332 9.02572 20.3582L9.77986 19.0615C9.4871 18.8912 9.18246 18.8215 8.87097 18.787C8.57339 18.7541 8.21375 18.7487 7.8025 18.7416L7.77666 20.2413ZM14.2742 21.3539C14.4916 20.9865 14.6287 20.7564 14.7501 20.5898C14.8622 20.436 14.9268 20.3857 14.9742 20.3582L14.2201 19.0615C13.9298 19.2304 13.7204 19.4559 13.5379 19.7063C13.3646 19.9441 13.1864 20.2468 12.9833 20.5898L14.2742 21.3539ZM16.1975 18.7416C15.7862 18.7487 15.4266 18.7541 15.129 18.787C14.8175 18.8215 14.5129 18.8912 14.2201 19.0615L14.9742 20.3582C15.0192 20.332 15.096 20.2999 15.2941 20.2779C15.5061 20.2545 15.7842 20.2489 16.2233 20.2413L16.1975 18.7416Z"/>
</mask>
<path d="M13.7321 22.2697L13.4774 22.7L13.9868 21.8394L13.7321 22.2697ZM12.9833 20.5898L13.2379 20.1595L12.7286 21.0201L12.9833 20.5898ZM9.72579 21.3539L9.47107 20.9236L9.98049 21.7842L9.72579 21.3539ZM9.77986 19.0615L10.2121 19.3129L9.34765 18.8101L9.77986 19.0615ZM12.832 22.318L13.4774 22.7L13.9868 21.8394L13.3414 21.4574L12.832 22.318ZM13.8834 20.5415L13.2379 20.1595L12.7287 21.0201L13.3742 21.4021L13.8834 20.5415ZM10.1165 20.5415L9.47107 20.9236L9.98051 21.7842L10.6259 21.4021L10.1165 20.5415ZM11.168 22.318L11.8134 21.936L11.304 21.0754L10.6586 21.4574L11.168 22.318ZM2.57193 16.8753L3.26484 16.5883L2.88218 15.6645L2.18927 15.9515L2.57193 16.8753ZM7.28965 19.4829L7.27673 20.2327L8.27659 20.2499L8.28951 19.5001L7.28965 19.4829ZM4.62464 18.9281L4.33763 19.621L5.26151 20.0036L5.54852 19.3107L4.62464 18.9281ZM21.4281 16.8753L22.121 17.1623L22.5036 16.2385L21.8107 15.9515L21.4281 16.8753ZM16.7103 19.4829L16.6974 18.733L15.6976 18.7502L15.7105 19.5001L16.7103 19.4829ZM18.4515 19.3107L18.7385 20.0036L19.6623 19.621L19.3753 18.9281L18.4515 19.3107ZM19.1862 2.97554L18.7943 3.61502L19.6469 4.13754L20.0388 3.49806L19.1862 2.97554ZM21.5244 5.31383L22.1639 4.92195L21.6415 4.06931L21.002 4.46119L21.5244 5.31383ZM4.81383 2.97555L4.42195 2.33607L3.56931 2.85857L3.96119 3.49805L4.81383 2.97555ZM2.99805 4.46119L2.35857 4.06931L1.83607 4.92195L2.47555 5.31383L2.99805 4.46119ZM9.835 19.9612L10.2121 19.3129L9.34765 18.8101L8.97058 19.4584L9.835 19.9612ZM14.5289 20.9236L13.238 20.1595L12.7286 21.0201L14.0195 21.7842L14.5289 20.9236ZM12.1865 21.936L13.4774 22.7L13.9868 21.8394L12.6959 21.0754L12.1865 21.936ZM10.5226 22.7L11.8134 21.936L11.304 21.0754L10.0132 21.8394L10.5226 22.7ZM10.7619 20.1595L9.47109 20.9236L9.98049 21.7842L11.2713 21.0201L10.7619 20.1595ZM14 3.25V1.75H13V3.25H14ZM10 1.75V3.25H11V1.75H10ZM21.25 12.5H22.75V11.5H21.25V12.5ZM22.75 10.5H21.25V11.5H22.75V10.5ZM2.75 10.5H1.25V11.5H2.75V10.5ZM1.25 12.5H2.75V11.5H1.25V12.5ZM1.87902 17.1623L3.26484 16.5883L2.88218 15.6645L1.49636 16.2385L1.87902 17.1623ZM4.91165 18.2352L4.33763 19.621L5.26151 20.0036L5.83553 18.6178L4.91165 18.2352ZM8.27659 20.2499L8.30243 18.7502L7.30257 18.733L7.27673 20.2327L8.27659 20.2499ZM20.7352 16.5883L22.121 17.1623L22.5036 16.2385L21.1178 15.6645L20.7352 16.5883ZM19.6623 19.621L19.0883 18.2352L18.1645 18.6178L18.7385 20.0036L19.6623 19.621ZM15.6976 18.7502L15.7234 20.2499L16.7232 20.2327L16.6974 18.733L15.6976 18.7502ZM19.6469 4.13754L20.4307 2.85858L19.5781 2.33606L18.7943 3.61502L19.6469 4.13754ZM21.6415 4.06931L20.3625 4.85306L20.8849 5.7057L22.1639 4.92195L21.6415 4.06931ZM3.56931 2.85857L4.35306 4.13753L5.2057 3.61503L4.42195 2.33607L3.56931 2.85857ZM3.63753 4.85306L2.35857 4.06931L1.83607 4.92195L3.11503 5.7057L3.63753 4.85306ZM9.34764 18.8101L8.5935 20.1068L9.45794 20.6096L10.2121 19.3129L9.34764 18.8101ZM15.4064 20.1068L14.6523 18.8101L13.7879 19.3129L14.542 20.6096L15.4064 20.1068ZM13.7321 22.2697L12.8716 21.7603L12.8715 21.7603L13.7321 22.2697ZM12.9833 20.5898L12.1228 20.0803L12.1227 20.0805L12.9833 20.5898ZM9.72579 21.3539L8.86521 21.8632L8.86526 21.8633L9.72579 21.3539ZM11.5587 21.5057L10.6981 22.015L10.6982 22.0152L11.5587 21.5057ZM3.07351 16.1264L3.99739 15.7437L3.99738 15.7437L3.07351 16.1264ZM7.77666 20.2413L7.79397 19.2414L7.79386 19.2414L7.77666 20.2413ZM4.79957 19.8123L4.41688 20.7362L4.41692 20.7362L4.79957 19.8123ZM22.3123 16.7004L21.3885 16.3176L21.3884 16.3177L22.3123 16.7004ZM16.1975 18.7416L16.2148 19.7414H16.2148L16.1975 18.7416ZM19.2004 19.8123L19.5831 20.7362L19.5831 20.7362L19.2004 19.8123ZM19.2206 3.87628L18.6981 4.72891L18.6981 4.72893L19.2206 3.87628ZM21.9027 4.49563L22.7554 3.97317L22.7553 3.97315L21.9027 4.49563ZM3.99563 2.59732L3.47313 1.74468L3.47313 1.74468L3.99563 2.59732ZM2.09732 4.49563L1.24468 3.97313L1.24468 3.97313L2.09732 4.49563ZM9.77986 19.0615L10.2827 18.1971L10.2827 18.1971L9.77986 19.0615ZM14.2742 21.3539L15.1347 21.8633L15.1348 21.8631L14.2742 21.3539ZM12.4412 21.5057L11.5806 20.9964L11.5806 20.9964L12.4412 21.5057ZM10.2679 22.2697L11.1285 21.7603L11.1284 21.7603L10.2679 22.2697ZM11.0166 20.5898L10.156 21.0991L10.156 21.0991L11.0166 20.5898ZM1.29931 14.7868L0.30163 14.8549L0.30163 14.8549L1.29931 14.7868ZM1.68769 16.7004L2.61157 16.3177L2.61156 16.3177L1.68769 16.7004ZM2.79584 14.6847L3.79352 14.6166L3.79352 14.6166L2.79584 14.6847ZM7.8025 18.7416L7.78522 19.7414H7.78524L7.8025 18.7416ZM5.37359 18.4265L4.99087 19.3504L4.99088 19.3504L5.37359 18.4265ZM21.2042 14.6847L22.2019 14.7528L22.2019 14.7527L21.2042 14.6847ZM20.9265 16.1264L21.8504 16.5091L21.8504 16.509L20.9265 16.1264ZM22.7007 14.7868L23.6984 14.8549L23.6984 14.8548L22.7007 14.7868ZM16.2233 20.2413L16.2061 19.2414L16.206 19.2414L16.2233 20.2413ZM18.6264 18.4265L18.2437 17.5026L18.2437 17.5026L18.6264 18.4265ZM17.2619 3.33873L17.1672 4.33424L17.1673 4.33424L17.2619 3.33873ZM20.0044 2.59732L20.5269 1.74468L20.5269 1.74466L20.0044 2.59732ZM17.4039 1.84547L17.4986 0.84996L17.4986 0.84996L17.4039 1.84547ZM22.6545 7.09611L21.659 7.19074L21.659 7.1908L22.6545 7.09611ZM20.6237 5.27938L19.771 5.80184L19.7711 5.80194L20.6237 5.27938ZM21.1613 7.23809L22.1568 7.14348L22.1568 7.14341L21.1613 7.23809ZM6.59611 1.84547L6.69076 2.84098L6.69076 2.84098L6.59611 1.84547ZM4.77938 3.87628L4.25688 3.02364L4.25688 3.02364L4.77938 3.87628ZM6.73809 3.33873L6.64344 2.34322L6.64344 2.34322L6.73809 3.33873ZM2.83873 7.23809L1.84322 7.14344L1.84322 7.14344L2.83873 7.23809ZM3.37628 5.27938L2.52364 4.75688L2.52364 4.75688L3.37628 5.27938ZM1.34547 7.09611L2.34098 7.19076L2.34098 7.19076L1.34547 7.09611ZM10.4621 19.7063L11.2703 19.1173L11.2701 19.1171L10.4621 19.7063ZM9.02572 20.3582L8.52206 21.2221L8.52397 21.2232L9.02572 20.3582ZM9.24985 20.5898L10.0581 20.001L10.0579 20.0007L9.24985 20.5898ZM8.70588 20.2779L8.81625 19.284L8.81559 19.2839L8.70588 20.2779ZM8.87097 18.787L8.98105 17.7931L8.98086 17.7931L8.87097 18.787ZM14.7501 20.5898L13.942 20.0008L13.9419 20.0009L14.7501 20.5898ZM14.9742 20.3582L15.476 21.2232L15.4774 21.2224L14.9742 20.3582ZM14.2201 19.0615L13.7173 18.1971L13.7172 18.1971L14.2201 19.0615ZM13.5379 19.7063L12.7298 19.1173L12.7297 19.1173L13.5379 19.7063ZM15.129 18.787L15.0191 17.7931L15.0189 17.7931L15.129 18.787ZM15.2941 20.2779L15.1844 19.2839L15.1837 19.284L15.2941 20.2779ZM14.5926 22.7791L15.1347 21.8633L13.4137 20.8445L12.8716 21.7603L14.5926 22.7791ZM12.1227 20.0805L11.5806 20.9964L13.3018 22.015L13.8439 21.0991L12.1227 20.0805ZM8.86526 21.8633L9.40737 22.7791L11.1284 21.7603L10.5863 20.8445L8.86526 21.8633ZM12.4193 20.9964L11.8772 20.0805L10.156 21.0991L10.6981 22.015L12.4193 20.9964ZM11.5806 20.9964C11.6874 20.816 11.8669 20.7499 12 20.7499C12.1331 20.7499 12.3125 20.816 12.4192 20.9962L10.6982 22.0152C11.2782 22.9946 12.7218 22.995 13.3018 22.015L11.5806 20.9964ZM9.40734 22.7791C10.5682 24.7402 13.4318 24.7402 14.5927 22.7791L12.8715 21.7603C12.4852 22.4131 11.5148 22.4131 11.1285 21.7603L9.40734 22.7791ZM10.5 4.25H13.5V2.25H10.5V4.25ZM13.5 0.75H10.5V2.75H13.5V0.75ZM20.25 11V12H22.25V11H20.25ZM23.75 12V11H21.75V12H23.75ZM3.75 12V11H1.75V12H3.75ZM0.25 11V12H2.25V11H0.25ZM0.25 12C0.25 13.1411 0.249051 14.0843 0.30163 14.8549L2.29699 14.7187C2.25013 14.0319 2.25 13.1681 2.25 12H0.25ZM0.30163 14.8549C0.355303 15.6414 0.470498 16.375 0.763819 17.0831L2.61156 16.3177C2.43596 15.8938 2.3437 15.4032 2.29699 14.7187L0.30163 14.8549ZM3.99738 15.7437C3.91019 15.5332 3.83503 15.225 3.79352 14.6166L1.79816 14.7528C1.84659 15.4626 1.94455 16.014 2.14964 16.5091L3.99738 15.7437ZM3.79352 14.6166C3.75095 13.9928 3.75 13.1889 3.75 12H1.75C1.75 13.1613 1.74987 14.045 1.79816 14.7528L3.79352 14.6166ZM7.81978 17.7417C6.56284 17.72 6.07852 17.6361 5.7563 17.5026L4.99088 19.3504C5.69994 19.6441 6.53128 19.7198 7.78522 19.7414L7.81978 17.7417ZM4.41692 20.7362C5.41436 21.1493 6.50322 21.2195 7.75945 21.2412L7.79386 19.2414C6.53954 19.2199 5.79472 19.1421 5.18222 18.8884L4.41692 20.7362ZM0.763812 17.0831C1.44889 18.737 2.76294 20.0511 4.41688 20.7362L5.18226 18.8884C4.01838 18.4063 3.09367 17.4816 2.61157 16.3177L0.763812 17.0831ZM5.75631 17.5026C4.95991 17.1727 4.32724 16.5401 3.99739 15.7437L2.14963 16.5091C2.68248 17.7955 3.70453 18.8175 4.99087 19.3504L5.75631 17.5026ZM20.25 12C20.25 13.1889 20.2491 13.9928 20.2065 14.6167L22.2019 14.7527C22.2501 14.045 22.25 13.1613 22.25 12H20.25ZM20.2065 14.6166C20.165 15.2249 20.0898 15.5332 20.0026 15.7438L21.8504 16.509C22.0554 16.014 22.1534 15.4627 22.2019 14.7528L20.2065 14.6166ZM23.2361 17.0832C23.5295 16.375 23.6447 15.6414 23.6984 14.8549L21.703 14.7187C21.6563 15.4032 21.5641 15.8938 21.3885 16.3176L23.2361 17.0832ZM23.6984 14.8548C23.7509 14.0843 23.75 13.1411 23.75 12H21.75C21.75 13.1681 21.7499 14.0319 21.703 14.7188L23.6984 14.8548ZM16.2405 21.2412C17.4967 21.2195 18.5857 21.1493 19.5831 20.7362L18.8177 18.8884C18.2053 19.1421 17.4605 19.2199 16.2061 19.2414L16.2405 21.2412ZM18.2437 17.5026C17.9215 17.6361 17.4371 17.72 16.1802 17.7417L16.2148 19.7414C17.4687 19.7198 18.3001 19.6441 19.0091 19.3504L18.2437 17.5026ZM20.0026 15.7437C19.6727 16.5401 19.0401 17.1727 18.2437 17.5026L19.0091 19.3504C20.2955 18.8175 21.3175 17.7955 21.8504 16.5091L20.0026 15.7437ZM19.5831 20.7362C21.237 20.0511 22.5511 18.737 23.2362 17.0831L21.3884 16.3177C20.9063 17.4816 19.9816 18.4063 18.8177 18.8884L19.5831 20.7362ZM13.5 4.25C15.1708 4.25 16.3007 4.25185 17.1672 4.33424L17.3566 2.34322C16.3733 2.24973 15.1316 2.25 13.5 2.25V4.25ZM17.1673 4.33424C18.008 4.41417 18.4182 4.55737 18.6981 4.72891L19.7431 3.02365C19.096 2.62709 18.3434 2.43705 17.3565 2.34322L17.1673 4.33424ZM20.5269 1.74466C19.6045 1.17949 18.5953 0.954249 17.4986 0.84996L17.3092 2.84098C18.2595 2.93133 18.9265 3.10965 19.4819 3.44999L20.5269 1.74466ZM17.4986 0.84996C16.4279 0.74816 15.1031 0.75 13.5 0.75V2.75C15.1413 2.75 16.3551 2.75026 17.3092 2.84098L17.4986 0.84996ZM23.75 11C23.75 9.39697 23.7518 8.0721 23.65 7.00142L21.659 7.1908C21.7497 8.1449 21.75 9.35865 21.75 11H23.75ZM23.65 7.00147C23.5457 5.90462 23.3205 4.89546 22.7554 3.97317L21.05 5.01809C21.3903 5.57344 21.5687 6.2405 21.659 7.19074L23.65 7.00147ZM19.7711 5.80194C19.9427 6.08185 20.0858 6.49207 20.1658 7.33277L22.1568 7.14341C22.063 6.15661 21.8729 5.40397 21.4763 4.75682L19.7711 5.80194ZM20.1658 7.3327C20.2481 8.19927 20.25 9.32918 20.25 11H22.25C22.25 9.36833 22.2503 8.12673 22.1568 7.14348L20.1658 7.3327ZM18.6981 4.72893C19.1355 4.99692 19.5031 5.36457 19.771 5.80184L21.4764 4.75692C21.0435 4.05047 20.4495 3.45652 19.7431 3.02363L18.6981 4.72893ZM22.7553 3.97315C22.1988 3.06489 21.4352 2.30125 20.5269 1.74468L19.4819 3.44996C20.121 3.84163 20.6584 4.37899 21.0501 5.01811L22.7553 3.97315ZM10.5 0.75C8.89695 0.75 7.57211 0.74816 6.50145 0.84996L6.69076 2.84098C7.64489 2.75026 8.85867 2.75 10.5 2.75V0.75ZM6.50146 0.84996C5.40463 0.954247 4.39544 1.17949 3.47313 1.74468L4.51813 3.44996C5.07346 3.10965 5.74049 2.93133 6.69076 2.84098L6.50146 0.84996ZM5.30188 4.72892C5.58182 4.55737 5.99209 4.41417 6.83274 4.33424L6.64344 2.34322C5.65659 2.43705 4.904 2.62709 4.25688 3.02364L5.30188 4.72892ZM6.83274 4.33424C7.69928 4.25185 8.82917 4.25 10.5 4.25V2.25C8.86835 2.25 7.62672 2.24973 6.64344 2.34322L6.83274 4.33424ZM3.75 11C3.75 9.32917 3.75185 8.19928 3.83424 7.33274L1.84322 7.14344C1.74973 8.12672 1.75 9.36835 1.75 11H3.75ZM3.83424 7.33274C3.91417 6.49209 4.05737 6.08182 4.22892 5.80188L2.52364 4.75688C2.12709 5.404 1.93705 6.15659 1.84322 7.14344L3.83424 7.33274ZM1.24468 3.97313C0.679487 4.89544 0.454247 5.90463 0.34996 7.00146L2.34098 7.19076C2.43133 6.24049 2.60965 5.57346 2.94996 5.01813L1.24468 3.97313ZM0.34996 7.00145C0.24816 8.07211 0.25 9.39695 0.25 11H2.25C2.25 9.35867 2.25026 8.14489 2.34098 7.19076L0.34996 7.00145ZM3.47313 1.74468C2.56489 2.30126 1.80126 3.06489 1.24468 3.97313L2.94996 5.01813C3.34162 4.37899 3.87899 3.84162 4.51813 3.44996L3.47313 1.74468ZM4.22892 5.80188C4.4969 5.36457 4.86457 4.9969 5.30188 4.72892L4.25688 3.02364C3.55046 3.45654 2.95654 4.05046 2.52364 4.75688L4.22892 5.80188ZM11.8772 20.0805C11.6834 19.7531 11.4781 19.4025 11.2703 19.1173L9.65394 20.2953C9.79271 20.4857 9.94378 20.7405 10.156 21.0991L11.8772 20.0805ZM11.2701 19.1171C11.0406 18.8025 10.7349 18.4602 10.2827 18.1971L9.27702 19.9259C9.40553 20.0006 9.51836 20.1093 9.65412 20.2955L11.2701 19.1171ZM8.52397 21.2232C8.50464 21.212 8.48263 21.1978 8.4604 21.1809C8.43909 21.1647 8.42388 21.1509 8.41491 21.1421C8.39928 21.1269 8.40725 21.1315 8.4418 21.1789L10.0579 20.0007C9.8993 19.7831 9.7379 19.6152 9.52747 19.4932L8.52397 21.2232ZM8.44159 21.1786C8.52828 21.2976 8.63775 21.4789 8.86521 21.8632L10.5864 20.8446C10.3789 20.4941 10.2142 20.2152 10.0581 20.001L8.44159 21.1786ZM7.75935 21.2411C8.21768 21.2491 8.44113 21.2548 8.59617 21.2719L8.81559 19.2839C8.54661 19.2542 8.21382 19.2487 7.79397 19.2414L7.75935 21.2411ZM8.59551 21.2718C8.65868 21.2788 8.66981 21.284 8.65059 21.2786C8.63942 21.2754 8.61986 21.2692 8.59461 21.2585C8.56807 21.2472 8.54338 21.2345 8.52206 21.2221L9.52938 19.4943C9.31832 19.3712 9.08884 19.3143 8.81625 19.284L8.59551 21.2718ZM10.2827 18.1971C9.82472 17.9307 9.36819 17.836 8.98105 17.7931L8.76088 19.7809C8.99673 19.807 9.14948 19.8517 9.27704 19.9259L10.2827 18.1971ZM8.98086 17.7931C8.62649 17.7539 8.21306 17.7485 7.81976 17.7417L7.78524 19.7414C8.21444 19.7489 8.52028 19.7543 8.76108 19.7809L8.98086 17.7931ZM15.1348 21.8631C15.3623 21.4788 15.4716 21.2976 15.5583 21.1787L13.9419 20.0009C13.7858 20.2152 13.6209 20.4942 13.4136 20.8447L15.1348 21.8631ZM15.5582 21.1788C15.5927 21.1315 15.6007 21.1268 15.585 21.1421C15.5761 21.1509 15.5609 21.1647 15.5395 21.1809C15.5173 21.1978 15.4953 21.212 15.476 21.2232L14.4724 19.4932C14.262 19.6153 14.1006 19.7831 13.942 20.0008L15.5582 21.1788ZM13.7172 18.1971C13.2652 18.4601 12.9593 18.8023 12.7298 19.1173L14.346 20.2953C14.4815 20.1095 14.5944 20.0007 14.723 19.9258L13.7172 18.1971ZM12.7297 19.1173C12.522 19.4025 12.3166 19.7531 12.1228 20.0803L13.8438 21.0993C14.0562 20.7405 14.2072 20.4857 14.3461 20.2953L12.7297 19.1173ZM16.1802 17.7417C15.7869 17.7485 15.3735 17.7539 15.0191 17.7931L15.2389 19.7809C15.4797 19.7543 15.7855 19.7489 16.2148 19.7414L16.1802 17.7417ZM15.0189 17.7931C14.6317 17.836 14.1753 17.9307 13.7173 18.1971L14.7229 19.9259C14.8505 19.8517 15.0033 19.807 15.2391 19.7809L15.0189 17.7931ZM15.4774 21.2224C15.4562 21.2347 15.4316 21.2474 15.4052 21.2586C15.38 21.2692 15.3605 21.2754 15.3493 21.2786C15.3302 21.284 15.3413 21.2788 15.4045 21.2718L15.1837 19.284C14.911 19.3143 14.6818 19.3713 14.471 19.494L15.4774 21.2224ZM15.4038 21.2719C15.5588 21.2548 15.7823 21.2491 16.2406 21.2411L16.206 19.2414C15.7861 19.2487 15.4534 19.2542 15.1844 19.2839L15.4038 21.2719Z" fill="white" mask="url(#path-1-inside-1_5542_21403)"/>
</g>
</g>
</svg>
