<svg xmlns="http://www.w3.org/2000/svg" width="24" height="24" viewBox="0 0 24 24" fill="none">
  <g clip-path="url(#clip0_5852_34008)">
    <path d="M3.72456 1.29882C3.72456 0.967451 3.72876 0.671733 3.72317 0.376015C3.71897 0.155799 3.81824 0.00828956 4.03566 0.00689137C4.25238 0.00619227 4.35515 0.150905 4.35165 0.372519C4.34676 0.668936 4.35026 0.964654 4.35026 1.27995H7.02081C7.02081 0.986326 7.01871 0.692006 7.02081 0.398386C7.0229 0.14741 7.14245 -0.000798703 7.3354 0.000599492C7.52765 0.00199769 7.6437 0.150206 7.6458 0.40258C7.6479 0.689909 7.6458 0.976539 7.6458 1.28135H10.2639C10.2639 1.0094 10.2639 0.740943 10.2639 0.473189C10.2639 0.152304 10.3702 -0.00429419 10.5827 0.000599492C10.7924 0.00549317 10.8889 0.158595 10.8896 0.485074C10.8896 0.729758 10.8917 0.974442 10.8938 1.21913C10.8938 1.2352 10.9036 1.25128 10.9134 1.28274H13.5602C13.5602 0.980034 13.5581 0.685016 13.5602 0.390696C13.5623 0.143914 13.6909 -0.017577 13.8824 0.00339588C14.0999 0.0271652 14.1928 0.164887 14.1872 0.384404C14.1803 0.679423 14.1859 0.974442 14.1859 1.29952C14.8766 1.29952 15.5449 1.28834 16.2132 1.30232C16.9445 1.3177 17.5108 1.65466 17.8365 2.30692C17.975 2.58376 18.0477 2.92283 18.0491 3.23462C18.063 7.01814 18.0581 10.8016 18.0581 14.5859V14.9522C18.1616 14.89 18.2392 14.8466 18.3126 14.7984C19.3032 14.1468 20.2876 13.4862 21.2852 12.8458C22.2674 12.2145 23.5083 12.7172 23.7851 13.8427C23.9529 14.525 23.6614 15.206 23.0057 15.6387C21.4774 16.6468 19.9527 17.6591 18.4126 18.6483C18.1344 18.8273 18.04 19.0118 18.0491 19.3369C18.0735 20.2451 18.0595 21.1546 18.0574 22.0627C18.0547 23.1701 17.2276 23.9992 16.1223 23.9999C11.4391 24.0013 6.75585 24.0013 2.0726 23.9999C0.995289 23.9999 0.164762 23.1722 0.164062 22.0949C0.165461 15.7848 0.165461 9.47616 0.166859 3.16681C0.166859 2.12026 0.979909 1.30511 2.01877 1.29882C2.57595 1.29533 3.13243 1.29882 3.72456 1.29882ZM21.6438 14.1902C21.5068 13.9874 21.3872 13.8113 21.2656 13.6309C21.1943 13.6742 21.1489 13.6994 21.1055 13.7274C19.6339 14.6949 18.1637 15.6625 16.6914 16.6286C16.4635 16.7782 16.2713 16.7628 16.165 16.5965C16.0559 16.4273 16.1182 16.2469 16.3419 16.098C16.6467 15.8953 16.9515 15.6925 17.2612 15.4968C17.38 15.4213 17.4387 15.3395 17.4387 15.185C17.4339 11.2001 17.436 7.21528 17.4332 3.23043C17.4332 2.4782 16.9025 1.94339 16.1531 1.92731C15.7868 1.91962 15.4205 1.92591 15.0541 1.92521C14.7696 1.92521 14.4858 1.92521 14.1886 1.92521C14.1886 2.0923 14.1991 2.22303 14.1866 2.35166C14.1649 2.56279 14.2201 2.68583 14.4333 2.79419C14.9618 3.06264 15.18 3.68065 14.9835 4.22384C14.7983 4.73698 14.2893 5.06416 13.7573 5.01243C13.2232 4.96069 12.7953 4.55871 12.6919 4.01132C12.5968 3.50727 12.8827 2.98015 13.3679 2.74036C13.4462 2.70191 13.5441 2.61662 13.5539 2.54252C13.5797 2.34747 13.563 2.14683 13.563 1.94199H10.8924C10.8924 2.0881 10.9022 2.21883 10.8903 2.34677C10.8714 2.5551 10.9148 2.68234 11.1399 2.78301C11.6244 2.99973 11.8565 3.55481 11.7369 4.07843C11.6132 4.61814 11.1616 4.99705 10.6212 5.01452C10.0766 5.032 9.56692 4.65169 9.43479 4.12947C9.29776 3.58417 9.54525 3.02909 10.0598 2.76693C10.1954 2.69772 10.2898 2.63969 10.2709 2.46352C10.2527 2.29364 10.2667 2.11956 10.2667 1.94269H7.64859C7.64859 2.0895 7.65838 2.22023 7.6465 2.34887C7.62622 2.5579 7.67586 2.68513 7.89048 2.79349C8.40781 3.05565 8.63152 3.66597 8.45186 4.19938C8.27778 4.71671 7.78142 5.05088 7.24242 5.01382C6.69992 4.97677 6.2532 4.5678 6.14973 4.01202C6.05535 3.50727 6.34128 2.98015 6.82646 2.74036C6.90476 2.70191 7.00333 2.61732 7.01312 2.54322C7.03968 2.34817 7.0222 2.14753 7.0222 1.92521H4.35165C4.35165 2.08671 4.36074 2.21744 4.34956 2.34607C4.33138 2.5537 4.37123 2.68234 4.59774 2.78301C5.08361 2.99973 5.31431 3.55061 5.19546 4.07773C5.07382 4.61604 4.62081 4.99705 4.0804 5.01452C3.54559 5.032 3.04224 4.66637 2.89893 4.15673C2.74513 3.60934 2.9975 3.04307 3.51204 2.76133C3.59313 2.71659 3.70499 2.64249 3.71478 2.57048C3.74274 2.36704 3.72456 2.15731 3.72456 1.96087C3.68471 1.94339 3.66933 1.93081 3.65395 1.93081C3.13942 1.92801 2.62488 1.92382 2.11035 1.92661C1.32107 1.93081 0.793949 2.45303 0.793949 3.24091C0.791852 9.49783 0.791852 15.7548 0.793949 22.011C0.793949 22.8345 1.33435 23.3714 2.15649 23.3714C6.78731 23.3728 11.4188 23.3728 16.0496 23.3714C16.8969 23.3714 17.4332 22.8282 17.4353 21.9746C17.4374 21.1707 17.436 20.3667 17.4353 19.5627C17.4353 19.4907 17.4248 19.4194 17.4171 19.3174C16.4915 19.9263 15.598 20.5177 14.6997 21.1C14.5801 21.1776 14.434 21.2518 14.297 21.2573C13.4693 21.2902 12.6408 21.307 11.8124 21.321C11.4468 21.3273 11.3175 21.1021 11.4852 20.7687C11.581 20.5771 11.6824 20.3884 11.7949 20.1709H11.4713C10.3723 20.1709 9.2733 20.1709 8.17432 20.1709C8.12188 20.1709 8.06945 20.1709 8.01702 20.1709C7.74577 20.1682 7.58707 20.0507 7.60525 19.8487C7.62762 19.6089 7.78632 19.5411 8.00933 19.5418C9.27399 19.546 10.5387 19.5292 11.8026 19.5536C12.1319 19.5599 12.248 19.418 12.3207 19.1223C12.0487 19.1223 11.79 19.1223 11.5314 19.1223C10.345 19.1223 9.15934 19.1209 7.97298 19.123C7.75416 19.123 7.60805 19.0286 7.60875 18.807C7.60945 18.5854 7.75695 18.4861 7.97507 18.4945C8.02751 18.4966 8.07994 18.4945 8.13237 18.4945C9.28378 18.4945 10.4366 18.4547 11.5852 18.5085C12.3633 18.5448 13.0358 18.3973 13.6322 17.8856C13.8552 17.694 14.1236 17.5556 14.3718 17.3934C14.6361 17.2208 14.8276 17.2264 14.9388 17.4074C15.0506 17.5892 14.9772 17.7577 14.7095 17.9352C14.5787 18.0219 14.4466 18.1072 14.3159 18.1932C14.0048 18.3987 13.6937 18.6043 13.3672 18.8203C13.4979 19.0195 13.6161 19.1999 13.7405 19.3894C16.3747 17.6563 18.9956 15.9316 21.6438 14.1888V14.1902ZM14.4662 20.4953C17.1046 18.7595 19.7297 17.032 22.3681 15.2961C22.2332 15.0962 22.1143 14.92 21.9864 14.7299C19.3424 16.4699 16.7229 18.1932 14.0901 19.9256C14.2194 20.1213 14.3383 20.301 14.4669 20.4953H14.4662ZM21.8221 13.3016C22.1765 13.8427 22.5275 14.3782 22.8819 14.9186C23.2399 14.5425 23.2909 14.0629 23.0301 13.661C22.7729 13.2639 22.3017 13.1164 21.8221 13.3016ZM13.7979 20.6435C13.4986 20.1884 13.2358 19.7871 12.9519 19.3551C12.717 19.8018 12.5024 20.2115 12.2759 20.6435H13.7986H13.7979ZM14.4033 3.81977C14.4012 3.51077 14.1642 3.27867 13.8531 3.28216C13.5511 3.28496 13.3022 3.53454 13.3043 3.83095C13.3064 4.12387 13.5678 4.37904 13.8629 4.37625C14.1628 4.37345 14.4054 4.12387 14.4033 3.81977ZM7.32841 3.28216C7.0215 3.27727 6.77193 3.51007 6.76074 3.81068C6.75025 4.1022 7.00053 4.36436 7.29905 4.37415C7.59826 4.38394 7.85273 4.14065 7.86042 3.83864C7.86811 3.52964 7.63601 3.28705 7.32841 3.28146V3.28216ZM10.0451 3.82117C10.043 4.12737 10.2814 4.37275 10.5827 4.37555C10.8805 4.37835 11.1322 4.12877 11.1343 3.82816C11.1371 3.52545 10.8945 3.28286 10.5897 3.28216C10.2744 3.28216 10.0472 3.50587 10.0451 3.82117ZM3.50155 3.81907C3.49876 4.12597 3.73435 4.37135 4.03636 4.37555C4.33488 4.37904 4.58445 4.13226 4.58795 3.83025C4.59144 3.52335 4.35515 3.28426 4.04755 3.28286C3.73155 3.28146 3.50505 3.50377 3.50155 3.81977V3.81907Z" fill="#006060"/>
    <path d="M13.798 20.6429H12.2754C12.5019 20.2116 12.7172 19.8012 12.9514 19.3545C13.2353 19.7865 13.4988 20.1871 13.7973 20.6429H13.798Z" fill="white"/>
    <path d="M4.25653 12.044C5.45059 12.0467 6.39158 12.9919 6.39088 14.1881C6.39088 15.3584 5.43032 16.3147 4.25863 16.3126C3.07506 16.3105 2.10541 15.3374 2.1173 14.1629C2.12848 12.9877 3.08415 12.0412 4.25653 12.044ZM2.76746 14.1825C2.77025 15.0179 3.4267 15.6723 4.25863 15.6709C5.09545 15.6688 5.77357 14.9844 5.76029 14.1545C5.74771 13.3366 5.06329 12.6675 4.24395 12.6738C3.42041 12.6794 2.76396 13.3506 2.76676 14.1825H2.76746Z" fill="#006060"/>
    <path d="M4.25086 6.80099C5.44632 6.80169 6.3901 7.74477 6.3908 8.93953C6.3915 10.1119 5.43793 11.0669 4.26414 11.0697C3.08337 11.0725 2.11093 10.1014 2.11722 8.92555C2.12351 7.75246 3.07987 6.79959 4.25086 6.80029V6.80099ZM2.76738 8.94093C2.77087 9.77635 3.42733 10.43 4.25995 10.4279C5.08558 10.4258 5.75322 9.76237 5.76021 8.93673C5.7679 8.1153 5.0716 7.42459 4.24247 7.43088C3.41964 7.43717 2.76318 8.109 2.76668 8.94093H2.76738Z" fill="#006060"/>
    <path d="M4.26223 17.2871C5.45419 17.2913 6.39308 18.2393 6.39098 19.4368C6.38889 20.605 5.42343 21.5628 4.25314 21.5558C3.06817 21.5488 2.10062 20.5729 2.1174 19.4005C2.13418 18.2232 3.08845 17.2829 4.26223 17.2871ZM2.76756 19.4103C2.76407 20.2471 3.41632 20.9112 4.24406 20.9133C5.08507 20.9161 5.76179 20.2464 5.7611 19.4124C5.7611 18.5986 5.07598 17.9163 4.25944 17.9163C3.4331 17.9163 2.77106 18.5798 2.76756 19.4103Z" fill="#006060"/>
    <path d="M11.8338 8.0097C13.1236 8.0097 14.4142 8.0111 15.704 8.0083C15.8802 8.0083 16.041 8.05654 16.0584 8.23691C16.0696 8.35086 15.9885 8.48718 15.9165 8.59065C15.8858 8.63539 15.7725 8.63469 15.697 8.63469C13.1257 8.63679 10.5537 8.63539 7.98247 8.63749C7.76645 8.63749 7.62523 8.5536 7.60496 8.33128C7.58678 8.13624 7.74198 8.0097 7.99016 8.0097C9.2716 8.0083 10.553 8.009 11.8345 8.009L11.8338 8.0097Z" fill="#006060"/>
    <path d="M11.861 13.2529C13.1425 13.2529 14.4239 13.2543 15.7054 13.2515C15.8815 13.2515 16.0416 13.3004 16.0591 13.4808C16.0696 13.5947 15.9885 13.731 15.9158 13.8345C15.8843 13.8793 15.7718 13.8786 15.6963 13.8786C13.1334 13.8807 10.5705 13.8786 8.0076 13.8821C7.78529 13.8821 7.6259 13.8149 7.60493 13.5744C7.58675 13.3724 7.74544 13.2529 8.01669 13.2529C9.29814 13.2522 10.5796 13.2529 11.861 13.2529Z" fill="#006060"/>
    <path d="M10.0161 9.68582C9.34499 9.68582 8.67386 9.68722 8.00342 9.68582C7.74476 9.68512 7.60564 9.57397 7.60354 9.37612C7.60144 9.18037 7.74615 9.06013 7.99713 9.06013C9.3394 9.05873 10.681 9.05873 12.0232 9.06013C12.2896 9.06013 12.4147 9.1622 12.4168 9.36983C12.4189 9.57886 12.2931 9.68512 12.0295 9.68582C11.3584 9.68792 10.6873 9.68582 10.0168 9.68582H10.0161Z" fill="#006060"/>
    <path d="M9.99186 14.9293C9.33821 14.9293 8.68455 14.9293 8.03089 14.9293C7.74426 14.9293 7.60584 14.8286 7.60165 14.6224C7.59745 14.4196 7.74566 14.3029 8.01761 14.3029C9.35079 14.3022 10.684 14.3043 12.0171 14.3008C12.2374 14.3008 12.3996 14.3602 12.4128 14.6091C12.424 14.8244 12.2877 14.9286 12.0046 14.9293C11.3334 14.9307 10.6623 14.9293 9.99186 14.9293Z" fill="#006060"/>
    <path d="M1.99554 6.64483C1.99554 7.1335 1.99693 7.62217 1.99554 8.11084C1.99414 8.36251 1.87459 8.51142 1.67675 8.49674C1.45234 8.47996 1.36845 8.34084 1.36914 8.12342C1.37264 7.15447 1.36915 6.18552 1.37124 5.21727C1.37124 4.96979 1.49918 4.8083 1.69003 4.82718C1.92423 4.85095 2.00253 5.00545 1.99903 5.23056C1.99134 5.70175 1.99693 6.17294 1.99693 6.64483H1.99554Z" fill="#006060"/>
    <path d="M1.36494 3.9805C1.37193 3.88892 1.34467 3.76867 1.39151 3.72253C1.48519 3.62885 1.62081 3.5163 1.73616 3.51909C1.9424 3.52469 2.00881 3.69946 1.99763 3.898C1.98574 4.11682 2.06194 4.39366 1.74595 4.4412C1.63759 4.45728 1.48798 4.34613 1.3957 4.25384C1.34467 4.20281 1.37263 4.07138 1.36564 3.9805H1.36494Z" fill="#006060"/>
    <path d="M4.0309 14.189C4.28607 13.9464 4.49999 13.743 4.71392 13.5388C4.86911 13.3906 5.0383 13.3564 5.19419 13.5199C5.35149 13.6849 5.30535 13.852 5.15085 13.9995C4.86772 14.2701 4.58598 14.5427 4.30285 14.8126C4.13716 14.9706 3.96588 14.979 3.7981 14.8154C3.6422 14.6637 3.487 14.5113 3.33739 14.3526C3.19757 14.2044 3.1801 14.0373 3.3283 13.8891C3.47861 13.7388 3.6436 13.766 3.78761 13.9093C3.86731 13.9883 3.93582 14.0785 4.0309 14.1883V14.189Z" fill="#006060"/>
    <path d="M4.01864 8.95735C4.28639 8.70287 4.50102 8.49944 4.71424 8.2953C4.86944 8.14639 5.03862 8.11284 5.19452 8.27712C5.35112 8.44211 5.30498 8.6092 5.15048 8.7567C4.86734 9.02726 4.58561 9.2999 4.30247 9.56975C4.13609 9.72775 3.96551 9.73544 3.79773 9.57185C3.64183 9.41945 3.48663 9.26774 3.33702 9.10905C3.1972 8.96084 3.18042 8.79376 3.32863 8.64555C3.47964 8.49524 3.64532 8.52181 3.78794 8.66722C3.86694 8.74762 3.92916 8.84339 4.01864 8.95735Z" fill="#006060"/>
    <path d="M4.01395 19.448C4.2831 19.1928 4.48933 18.9935 4.69976 18.7985C4.88852 18.6237 5.06679 18.6097 5.19892 18.7642C5.34783 18.9376 5.30308 19.0984 5.14928 19.2452C4.87244 19.5095 4.59979 19.7786 4.31945 20.0394C4.11462 20.2295 3.9748 20.2267 3.77835 20.0373C3.62805 19.8926 3.47914 19.7458 3.33652 19.5927C3.1981 19.4438 3.18342 19.2767 3.33233 19.1292C3.47285 18.99 3.63434 19.0026 3.77206 19.1383C3.85805 19.2228 3.92307 19.3291 4.01465 19.4473L4.01395 19.448Z" fill="#006060"/>
  </g>
  <defs>
    <clipPath id="clip0_5852_34008">
      <rect width="23.6693" height="24" fill="white" transform="translate(0.166016)"/>
    </clipPath>
  </defs>
</svg>