<svg xmlns="http://www.w3.org/2000/svg" width="25" height="24" viewBox="0 0 25 24" fill="none">
  <g clip-path="url(#clip0_10950_19749)">
    <path d="M24.5019 11.1783V12.8627C24.45 13.2389 24.4094 13.617 24.345 13.9908C23.9613 16.2127 23.0419 18.1858 21.5531 19.8802C19.7019 21.9877 17.395 23.3089 14.6306 23.8133C14.2119 23.8895 13.7881 23.9383 13.3663 24.0002H11.6819C11.4131 23.9652 11.1438 23.9352 10.8763 23.8945C7.70939 23.412 5.09188 21.9439 3.12188 19.4189C0.771885 16.407 0.00250995 12.9895 0.878135 9.27142C1.74564 5.58579 3.95876 2.90892 7.33939 1.22642C9.60314 0.100166 12.0144 -0.212334 14.5031 0.200791C16.9606 0.608916 19.0913 1.70017 20.8744 3.44204C22.705 5.23079 23.8606 7.38767 24.3144 9.91204C24.39 10.332 24.44 10.7564 24.5019 11.1783ZM12.5269 1.44454C6.71251 1.44079 1.94688 6.20704 1.95001 12.0233C1.95313 17.8345 6.68751 22.5758 12.5088 22.597C18.3138 22.6183 23.0856 17.8564 23.0981 12.0295C23.1106 6.21767 18.3475 1.44829 12.5263 1.44454H12.5269Z" fill="#2839D8"/>
    <path d="M13.3633 23.9998C13.7845 23.9386 14.2089 23.8898 14.6277 23.8129C17.392 23.3086 19.6989 21.9873 21.5502 19.8798C23.0389 18.1854 23.9583 16.2123 24.342 13.9904C24.4064 13.6167 24.447 13.2386 24.4989 12.8623V23.9998H13.3633Z" fill="white"/>
    <path d="M12.342 18.6644C10.4714 18.5738 8.8564 17.7169 7.74015 15.9757C7.50703 15.6119 7.59453 15.1863 7.9314 14.9701C8.26515 14.7557 8.6914 14.8563 8.92515 15.2194C9.61515 16.2913 10.5695 16.9832 11.8364 17.1738C13.6195 17.4419 15.017 16.7869 16.0583 15.3263C16.1795 15.1563 16.3427 14.9876 16.5252 14.8963C16.7927 14.7619 17.1095 14.8826 17.2964 15.1188C17.4814 15.3538 17.4989 15.6744 17.3295 15.9501C16.7295 16.9269 15.9077 17.6569 14.8702 18.1407C14.1258 18.4876 13.3389 18.6513 12.342 18.6651V18.6644Z" fill="#2839D8"/>
    <path d="M19.1964 10.2466C18.877 10.2479 18.6451 10.0835 18.5114 9.74661C18.292 9.19224 17.8989 8.82974 17.3182 8.70036C16.497 8.51724 15.7357 8.92849 15.4145 9.71536C15.2857 10.031 15.0876 10.2422 14.7264 10.2466C14.242 10.2522 13.9057 9.79849 14.0489 9.33474C14.417 8.14224 15.6201 7.25786 16.8882 7.24911C18.2445 7.23911 19.4514 8.07349 19.8507 9.29661C20.007 9.77599 19.6851 10.2441 19.1964 10.246V10.2466Z" fill="#2839D8"/>
    <path d="M8.0914 7.24805C9.37327 7.24867 10.5045 8.02867 10.9608 9.2268C11.1208 9.64742 10.9689 10.043 10.587 10.1993C10.2095 10.3537 9.8264 10.1705 9.64952 9.74992C9.3589 9.0593 8.7789 8.65055 8.09015 8.65055C7.40265 8.65055 6.8239 9.0593 6.5314 9.7518C6.35327 10.1737 5.97452 10.3543 5.59327 10.1999C5.21327 10.0455 5.0639 9.6543 5.22327 9.22805C5.66702 8.03742 6.81202 7.24742 8.0914 7.24805Z" fill="#2839D8"/>
  </g>
  <defs>
    <clipPath id="clip0_10950_19749">
      <rect width="24" height="24" fill="white" transform="translate(0.5)"/>
    </clipPath>
  </defs>
</svg>