<svg xmlns="http://www.w3.org/2000/svg" width="32" height="32" viewBox="0 0 32 32" fill="none">
  <g clip-path="url(#clip0_5855_34236)">
    <path d="M32.0012 14.9044V17.1502C31.932 17.6519 31.8779 18.1561 31.792 18.6544C31.2804 21.6169 30.0545 24.2477 28.0695 26.5069C25.6012 29.3169 22.5254 31.0786 18.8395 31.7511C18.2812 31.8527 17.7162 31.9177 17.1537 32.0002H14.9079C14.5495 31.9536 14.1904 31.9136 13.8337 31.8594C9.61121 31.2161 6.12121 29.2586 3.49454 25.8919C0.361211 21.8761 -0.664622 17.3194 0.502878 12.3619C1.65954 7.44772 4.61038 3.87855 9.11788 1.63522C12.1362 0.133554 15.3512 -0.283112 18.6695 0.267721C21.9462 0.811888 24.787 2.26689 27.1645 4.58939C29.6054 6.97439 31.1462 9.85022 31.7512 13.2161C31.852 13.7761 31.9187 14.3419 32.0012 14.9044ZM16.0345 1.92605C8.28205 1.92105 1.92788 8.27605 1.93204 16.0311C1.93621 23.7794 8.24871 30.1011 16.0104 30.1294C23.7504 30.1577 30.1129 23.8086 30.1295 16.0394C30.1462 8.29022 23.7954 1.93105 16.0337 1.92605H16.0345Z" fill="#006060"/>
    <path d="M17.1523 31.9999C17.714 31.9182 18.2798 31.8532 18.8382 31.7507C22.524 31.0782 25.5998 29.3166 28.0682 26.5066C30.0532 24.2474 31.279 21.6166 31.7907 18.6541C31.8765 18.1557 31.9307 17.6516 31.9998 17.1499V31.9999H17.1523Z" fill="white"/>
    <path d="M15.7868 24.8859C13.2926 24.7651 11.1393 23.6226 9.65093 21.3009C9.3401 20.8159 9.45677 20.2484 9.90593 19.9601C10.3509 19.6743 10.9193 19.8084 11.2309 20.2926C12.1509 21.7217 13.4234 22.6443 15.1126 22.8984C17.4901 23.2559 19.3534 22.3826 20.7418 20.4351C20.9034 20.2084 21.1209 19.9834 21.3643 19.8617C21.7209 19.6826 22.1434 19.8434 22.3926 20.1584C22.6393 20.4717 22.6626 20.8992 22.4368 21.2667C21.6368 22.5692 20.5409 23.5426 19.1576 24.1876C18.1651 24.6501 17.1159 24.8684 15.7868 24.8868V24.8859Z" fill="#006060"/>
    <path d="M24.9311 13.6618C24.5053 13.6635 24.1961 13.4443 24.0178 12.9952C23.7253 12.256 23.2011 11.7727 22.4269 11.6002C21.3319 11.356 20.3169 11.9043 19.8886 12.9535C19.7169 13.3743 19.4528 13.656 18.9711 13.6618C18.3253 13.6693 17.8769 13.0643 18.0678 12.446C18.5586 10.856 20.1628 9.67682 21.8536 9.66516C23.6619 9.65182 25.2711 10.7643 25.8036 12.3952C26.0119 13.0343 25.5828 13.6585 24.9311 13.661V13.6618Z" fill="#006060"/>
    <path d="M10.1232 9.66406C11.8323 9.6649 13.3407 10.7049 13.949 12.3024C14.1623 12.8632 13.9598 13.3907 13.4507 13.5991C12.9473 13.8049 12.4365 13.5607 12.2007 12.9999C11.8132 12.0791 11.0398 11.5341 10.1215 11.5341C9.20483 11.5341 8.43316 12.0791 8.04316 13.0024C7.80566 13.5649 7.30066 13.8057 6.79233 13.5999C6.28566 13.3941 6.0865 12.8724 6.299 12.3041C6.89066 10.7166 8.41733 9.66323 10.1232 9.66406Z" fill="#006060"/>
  </g>
  <defs>
    <clipPath id="clip0_5855_34236">
      <rect width="32" height="32" fill="white"/>
    </clipPath>
  </defs>
</svg>