<svg xmlns="http://www.w3.org/2000/svg" width="32" height="32" viewBox="0 0 32 32" fill="none">
  <path fill-rule="evenodd" clip-rule="evenodd" d="M4 0C1.79086 0 0 1.79086 0 4V28C0 30.2091 1.79086 32 4 32H28C30.2091 32 32 30.2091 32 28V4C32 1.79086 30.2091 0 28 0H4ZM22.8874 22.295L26.866 26.3278L26.8764 26.3803C27.2398 26.7527 27.2398 27.3522 26.8764 27.7246C26.5125 28.0918 25.9243 28.0918 25.5605 27.7246L22.0378 24.1539C17.7155 27.6111 11.5497 27.3482 7.52898 23.5354C3.50829 19.7226 2.83939 13.504 5.95499 8.9025C9.07059 4.30099 15.0357 2.69747 19.9914 5.12927C24.9472 7.56106 27.4063 13.2984 25.7781 18.6297C25.68 18.9543 25.4185 19.2011 25.0922 19.2773C24.7659 19.3535 24.4242 19.2474 24.196 18.999C23.9677 18.7506 23.8876 18.3977 23.9857 18.0731C25.3477 13.5805 23.2109 8.76091 18.9922 6.81056C14.7736 4.86022 9.78226 6.38437 7.32845 10.3722C4.87465 14.36 5.71981 19.5741 9.30343 22.5565C12.887 25.5388 18.0971 25.364 21.4783 22.148C21.6517 21.969 21.8888 21.8682 22.1362 21.8682C22.3837 21.8682 22.6208 21.969 22.7941 22.148L22.8874 22.295Z" fill="#006060"/>
</svg>