<svg xmlns="http://www.w3.org/2000/svg" width="24" height="24" viewBox="0 0 24 24" fill="none">
  <mask id="path-1-inside-1_5715_871" fill="white">
    <path d="M14.4141 8.60952C14.1322 8.32904 13.6763 8.33018 13.3958 8.61205C13.1154 8.89394 13.1165 9.34981 13.3984 9.63029L14.4141 8.60952ZM16.2928 12.5103C16.5746 12.7908 17.0305 12.7896 17.3111 12.5077C17.5915 12.2259 17.5903 11.77 17.3085 11.4895L16.2928 12.5103ZM17.3085 12.5103C17.5903 12.2298 17.5915 11.7739 17.3111 11.4921C17.0305 11.2102 16.5746 11.2091 16.2928 11.4895L17.3085 12.5103ZM13.3984 14.3695C13.1165 14.65 13.1154 15.1059 13.3958 15.3877C13.6763 15.6696 14.1322 15.6707 14.4141 15.3903L13.3984 14.3695ZM16.8006 12.7199C17.1983 12.7199 17.5206 12.3975 17.5206 11.9999C17.5206 11.6023 17.1983 11.2799 16.8006 11.2799V12.7199ZM3.36062 11.2799C2.96298 11.2799 2.64062 11.6023 2.64062 11.9999C2.64062 12.3975 2.96298 12.7199 3.36062 12.7199V11.2799ZM13.3984 9.63029L16.2928 12.5103L17.3085 11.4895L14.4141 8.60952L13.3984 9.63029ZM16.2928 11.4895L13.3984 14.3695L14.4141 15.3903L17.3085 12.5103L16.2928 11.4895ZM16.8006 11.2799H3.36062V12.7199H16.8006V11.2799Z"/>
  </mask>
  <path d="M13.93 10.1593L14.9457 9.13852L13.8824 8.08051L12.8667 9.10128L13.93 10.1593ZM16.7768 10.9605L15.7611 11.9814L16.8245 13.0393L17.8401 12.0184L16.7768 10.9605ZM15.7611 12.0184L16.7768 13.0393L17.8401 11.9814L16.8245 10.9605L15.7611 12.0184ZM14.9457 14.8614L13.9301 13.8405L12.8667 14.8984L13.8824 15.9193L14.9457 14.8614ZM16.0506 11.2799V12.7199H17.5506V11.2799H16.0506ZM4.11063 12.7199V11.2799H2.61062V12.7199H4.11063ZM14.4141 8.60952L13.356 9.67278L13.3561 9.67283L14.4141 8.60952ZM13.3958 8.61205L12.3326 7.55397L12.3324 7.55417L13.3958 8.61205ZM13.3984 9.63029L12.3403 10.6935L12.3404 10.6936L13.3984 9.63029ZM16.2928 12.5103L15.2348 13.5736L15.2348 13.5737L16.2928 12.5103ZM17.3111 12.5077L18.3742 13.5659L18.3744 13.5657L17.3111 12.5077ZM17.3085 11.4895L18.3666 10.4263L18.3665 10.4262L17.3085 11.4895ZM17.3085 12.5103L18.3665 13.5736L18.3666 13.5735L17.3085 12.5103ZM17.3111 11.4921L18.3744 10.4341L18.3742 10.4339L17.3111 11.4921ZM16.2928 11.4895L15.2348 10.4261L15.2348 10.4262L16.2928 11.4895ZM13.3984 14.3695L12.3404 13.3062L12.3403 13.3063L13.3984 14.3695ZM13.3958 15.3877L12.3324 16.4457L12.3326 16.4459L13.3958 15.3877ZM14.4141 15.3903L15.472 16.4537L15.4721 16.4536L14.4141 15.3903ZM15.4721 7.54625C14.603 6.68136 13.1973 6.68499 12.3326 7.55397L14.459 9.67014C14.1553 9.97536 13.6615 9.97673 13.356 9.67278L15.4721 7.54625ZM12.3324 7.55417C11.4678 8.42331 11.4713 9.8288 12.3403 10.6935L14.4564 8.56702C14.7617 8.87082 14.763 9.36456 14.4592 9.66994L12.3324 7.55417ZM15.2348 13.5737C16.104 14.4385 17.5096 14.4347 18.3742 13.5659L16.2479 11.4496C16.5515 11.1445 17.0452 11.143 17.3507 11.447L15.2348 13.5737ZM18.3744 13.5657C19.2392 12.6965 19.2354 11.291 18.3666 10.4263L16.2503 12.5527C15.9452 12.249 15.9438 11.7553 16.2477 11.4498L18.3744 13.5657ZM18.3666 13.5735C19.2354 12.7088 19.2392 11.3033 18.3744 10.4341L16.2477 12.55C15.9438 12.2445 15.9452 11.7508 16.2503 11.4471L18.3666 13.5735ZM18.3742 10.4339C17.5096 9.5651 16.104 9.56134 15.2348 10.4261L17.3507 12.5528C17.0452 12.8568 16.5515 12.8553 16.2479 12.5502L18.3742 10.4339ZM12.3403 13.3063C11.4714 14.171 11.4677 15.5765 12.3324 16.4457L14.4592 14.3298C14.7631 14.6353 14.7616 15.129 14.4565 15.4327L12.3403 13.3063ZM12.3326 16.4459C13.1973 17.3147 14.6028 17.3185 15.472 16.4537L13.3561 14.327C13.6616 14.023 14.1553 14.0245 14.459 14.3296L12.3326 16.4459ZM16.8006 14.2199C18.0267 14.2199 19.0206 13.226 19.0206 11.9999H16.0206C16.0206 11.5691 16.3698 11.2199 16.8006 11.2199V14.2199ZM19.0206 11.9999C19.0206 10.7738 18.0267 9.7799 16.8006 9.7799V12.7799C16.3698 12.7799 16.0206 12.4307 16.0206 11.9999H19.0206ZM3.36062 9.7799C2.13454 9.7799 1.14062 10.7739 1.14062 11.9999H4.14062C4.14062 12.4307 3.79142 12.7799 3.36062 12.7799V9.7799ZM1.14062 11.9999C1.14062 13.2259 2.13454 14.2199 3.36062 14.2199V11.2199C3.79142 11.2199 4.14062 11.5691 4.14062 11.9999H1.14062ZM12.3404 10.6936L15.2348 13.5736L17.3508 11.447L14.4564 8.56699L12.3404 10.6936ZM18.3665 10.4262L15.4721 7.54621L13.3561 9.67283L16.2505 12.5528L18.3665 10.4262ZM15.2348 10.4262L12.3404 13.3062L14.4564 15.4328L17.3508 12.5528L15.2348 10.4262ZM15.4721 16.4536L18.3665 13.5736L16.2505 11.447L13.3561 14.327L15.4721 16.4536ZM16.8006 9.7799H3.36062V12.7799H16.8006V9.7799ZM3.36062 14.2199H16.8006V11.2199H3.36062V14.2199Z" fill="black" mask="url(#path-1-inside-1_5715_871)"/>
  <path d="M9.11914 14.88C9.11914 17.0008 10.8384 18.72 12.9591 18.72H16.7991C18.9199 18.72 20.6391 17.0008 20.6391 14.88V9.12003C20.6391 6.99925 18.9199 5.28003 16.7991 5.28003H12.9591C10.8384 5.28003 9.11914 6.99925 9.11914 9.12003" stroke="black" stroke-width="1.5" stroke-linecap="round" stroke-linejoin="round"/>
  <path d="M14.4141 8.60952C14.1322 8.32904 13.6763 8.33018 13.3958 8.61205C13.1154 8.89394 13.1165 9.34981 13.3984 9.63029L14.4141 8.60952ZM16.2928 12.5103C16.5746 12.7908 17.0305 12.7896 17.3111 12.5077C17.5915 12.2259 17.5903 11.77 17.3085 11.4895L16.2928 12.5103ZM17.3085 12.5103C17.5903 12.2298 17.5915 11.7739 17.3111 11.4921C17.0305 11.2102 16.5746 11.2091 16.2928 11.4895L17.3085 12.5103ZM13.3984 14.3695C13.1165 14.65 13.1154 15.1059 13.3958 15.3877C13.6763 15.6696 14.1322 15.6707 14.4141 15.3903L13.3984 14.3695ZM16.8006 12.7199C17.1983 12.7199 17.5206 12.3975 17.5206 11.9999C17.5206 11.6023 17.1983 11.2799 16.8006 11.2799V12.7199ZM3.36062 11.2799C2.96298 11.2799 2.64062 11.6023 2.64062 11.9999C2.64062 12.3975 2.96298 12.7199 3.36062 12.7199V11.2799ZM13.3984 9.63029L16.2928 12.5103L17.3085 11.4895L14.4141 8.60952L13.3984 9.63029ZM16.2928 11.4895L13.3984 14.3695L14.4141 15.3903L17.3085 12.5103L16.2928 11.4895ZM16.8006 11.2799H3.36062V12.7199H16.8006V11.2799Z" fill="black"/>
  <path d="M9.11914 14.88C9.11914 17.0008 10.8384 18.72 12.9591 18.72H16.7991C18.9199 18.72 20.6391 17.0008 20.6391 14.88V9.12003C20.6391 6.99925 18.9199 5.28003 16.7991 5.28003H12.9591C10.8384 5.28003 9.11914 6.99925 9.11914 9.12003" stroke="black" stroke-width="1.5" stroke-linecap="round" stroke-linejoin="round"/>
</svg>