<svg xmlns="http://www.w3.org/2000/svg" width="24" height="24" viewBox="0 0 24 24" fill="none">
  <mask id="path-1-inside-1_5715_11479" fill="white">
    <path d="M6.76287 9.63029C7.04475 9.34981 7.04588 8.89394 6.76541 8.61205C6.48494 8.33018 6.02906 8.32904 5.74718 8.60952L6.76287 9.63029ZM2.85278 11.4895C2.5709 11.77 2.56977 12.2259 2.85024 12.5077C3.13071 12.7896 3.58659 12.7908 3.86847 12.5103L2.85278 11.4895ZM3.86847 11.4895C3.58659 11.2091 3.13071 11.2102 2.85024 11.4921C2.56977 11.7739 2.5709 12.2298 2.85278 12.5103L3.86847 11.4895ZM5.74718 15.3903C6.02906 15.6707 6.48494 15.6696 6.76541 15.3877C7.04588 15.1059 7.04475 14.65 6.76287 14.3695L5.74718 15.3903ZM3.36062 11.2799C2.96298 11.2799 2.64062 11.6023 2.64062 11.9999C2.64062 12.3975 2.96298 12.7199 3.36062 12.7199V11.2799ZM16.8006 12.7199C17.1983 12.7199 17.5206 12.3975 17.5206 11.9999C17.5206 11.6023 17.1983 11.2799 16.8006 11.2799V12.7199ZM5.74718 8.60952L2.85278 11.4895L3.86847 12.5103L6.76287 9.63029L5.74718 8.60952ZM2.85278 12.5103L5.74718 15.3903L6.76287 14.3695L3.86847 11.4895L2.85278 12.5103ZM3.36062 12.7199H16.8006V11.2799H3.36062V12.7199Z"/>
  </mask>
  <path d="M5.21553 9.13853L6.23123 10.1593L7.29452 9.10128L6.27882 8.08051L5.21553 9.13853ZM4.40015 11.9814L3.38445 10.9605L2.3211 12.0185L3.3368 13.0393L4.40015 11.9814ZM3.38445 13.0393L4.40015 12.0185L3.3368 10.9605L2.3211 11.9814L3.38445 13.0393ZM6.2312 13.8405L5.2155 14.8614L6.27885 15.9193L7.29455 14.8985L6.2312 13.8405ZM4.11063 12.7199V11.2799H2.61062V12.7199H4.11063ZM16.0506 11.2799V12.7199H17.5506V11.2799H16.0506ZM6.76287 9.63029L5.70486 8.56699L5.70485 8.56699L6.76287 9.63029ZM6.76541 8.61205L7.82873 7.55406L7.82871 7.55404L6.76541 8.61205ZM5.74718 8.60952L4.68918 7.5462L4.68917 7.54621L5.74718 8.60952ZM2.85278 11.4895L1.79477 10.4262L1.79469 10.4262L2.85278 11.4895ZM3.86847 12.5103L4.92636 13.5738L4.9265 13.5736L3.86847 12.5103ZM3.86847 11.4895L4.92649 10.4262L4.92636 10.426L3.86847 11.4895ZM2.85278 12.5103L1.79469 13.5736L1.79476 13.5736L2.85278 12.5103ZM5.74718 15.3903L4.68916 16.4536L4.68929 16.4538L5.74718 15.3903ZM6.76287 14.3695L7.82096 13.3062L7.82089 13.3062L6.76287 14.3695ZM7.82089 10.6936C8.69003 9.82877 8.69348 8.42316 7.82873 7.55406L5.70209 9.67005C5.39828 9.36471 5.39947 8.87086 5.70486 8.56699L7.82089 10.6936ZM7.82871 7.55404C6.96389 6.6849 5.55829 6.68145 4.68918 7.5462L6.80517 9.67284C6.49983 9.97664 6.00598 9.97546 5.70211 9.67007L7.82871 7.55404ZM1.79469 10.4262C0.925717 11.291 0.92208 12.6966 1.78698 13.5658L3.91351 11.4497C4.21745 11.7551 4.21608 12.249 3.91086 12.5527L1.79469 10.4262ZM1.78698 13.5658C2.65172 14.4348 4.05722 14.4384 4.92636 13.5738L2.81059 11.4469C3.11596 11.1431 3.60971 11.1444 3.91351 11.4497L1.78698 13.5658ZM4.92636 10.426C4.05722 9.56143 2.65172 9.565 1.78698 10.434L3.91351 12.5501C3.60971 12.8554 3.11596 12.8567 2.81059 12.5529L4.92636 10.426ZM1.78698 10.434C0.92208 11.3032 0.925717 12.7088 1.79469 13.5736L3.91086 11.4471C4.21608 11.7509 4.21745 12.2447 3.91351 12.5501L1.78698 10.434ZM4.68929 16.4538C5.55843 17.3184 6.96393 17.3148 7.82867 16.4458L5.70214 14.3297C6.00594 14.0244 6.49969 14.0231 6.80506 14.3269L4.68929 16.4538ZM7.82867 16.4458C8.69357 15.5766 8.68993 14.171 7.82096 13.3062L5.70479 15.4327C5.39957 15.129 5.3982 14.6351 5.70214 14.3297L7.82867 16.4458ZM3.36062 9.7799C2.13454 9.7799 1.14062 10.7739 1.14062 11.9999H4.14062C4.14062 12.4307 3.79142 12.7799 3.36062 12.7799V9.7799ZM1.14062 11.9999C1.14062 13.2259 2.13454 14.2199 3.36062 14.2199V11.2199C3.79142 11.2199 4.14062 11.5691 4.14062 11.9999H1.14062ZM16.8006 14.2199C18.0267 14.2199 19.0206 13.226 19.0206 11.9999H16.0206C16.0206 11.5691 16.3698 11.2199 16.8006 11.2199V14.2199ZM19.0206 11.9999C19.0206 10.7738 18.0267 9.7799 16.8006 9.7799V12.7799C16.3698 12.7799 16.0206 12.4307 16.0206 11.9999H19.0206ZM4.68917 7.54621L1.79477 10.4262L3.91078 12.5528L6.80518 9.67283L4.68917 7.54621ZM4.9265 13.5736L7.8209 10.6936L5.70485 8.56699L2.81045 11.447L4.9265 13.5736ZM1.79476 13.5736L4.68916 16.4536L6.80519 14.327L3.91079 11.447L1.79476 13.5736ZM7.82089 13.3062L4.92649 10.4262L2.81046 12.5528L5.70486 15.4328L7.82089 13.3062ZM3.36062 14.2199H16.8006V11.2199H3.36062V14.2199ZM16.8006 9.7799H3.36062V12.7799H16.8006V9.7799Z" fill="#CC0E0E" mask="url(#path-1-inside-1_5715_11479)"/>
  <path d="M9.11914 14.8798C9.11914 17.0005 10.8384 18.7198 12.9591 18.7198H16.7991C18.9199 18.7198 20.6391 17.0005 20.6391 14.8798V9.11979C20.6391 6.99901 18.9199 5.27979 16.7991 5.27979H12.9591C10.8384 5.27979 9.11914 6.99901 9.11914 9.11979" stroke="#CC0E0E" stroke-width="1.5" stroke-linecap="round" stroke-linejoin="round"/>
</svg>