<svg width="16" height="18" viewBox="0 0 16 18" fill="none" xmlns="http://www.w3.org/2000/svg">
<g id="Group">
<g id="Group_2">
<path id="Vector" d="M15.6227 10.4109L14.7074 17.7328C14.6885 17.8853 14.5586 18.0001 14.4048 18.0001H9.82859C9.68551 18.0001 9.56162 17.9009 9.53082 17.7612L8.94065 15.1058L9.14418 13.8847L8.65098 13.8025L8.16289 13.9109L8.43148 15.1194L7.99385 17.745C7.96945 17.8921 7.84226 18.0001 7.69306 18.0001H0.676211C0.507815 18.0001 0.371129 17.8637 0.371129 17.695L15.6227 10.4109ZM15.6227 10.4109C15.6337 10.3242 15.6065 10.2369 15.5489 10.171L15.6227 10.4109ZM0.871129 17.5001V9.04256H1.28634C1.73054 9.04256 2.09142 8.68267 2.09142 8.23748C2.09142 7.79228 1.73054 7.43239 1.28634 7.43239H0.871094V4.47903C1.25318 4.4982 2.09856 4.51968 3.07823 4.41535C4.36536 4.27828 6.00531 3.91281 7.08079 2.92586L7.0808 2.92585C7.76532 2.29765 8.13378 1.48683 8.18646 0.54404L13.5139 1.66558C13.265 2.24569 12.6857 3.89943 12.6846 6.70351L12.6845 6.70597L12.6838 6.73166C12.6833 6.75277 12.6829 6.7816 12.6828 6.81727C12.6825 6.88855 12.6837 6.98743 12.689 7.10693C12.6932 7.20261 12.7 7.31232 12.711 7.43232H12.2693C11.8251 7.43232 11.4642 7.79221 11.4642 8.23741C11.4642 8.6826 11.8251 9.04249 12.2693 9.04249H13.0967C13.2263 9.33828 13.401 9.63141 13.6399 9.88168C14.036 10.2971 14.528 10.5159 15.1002 10.5597L14.2326 17.5001H9.98499L9.13907 13.694L8.15778 13.7203L7.52778 17.5001H0.871129ZM3.11686 9.04249H4.33719C4.78139 9.04249 5.14227 8.6826 5.14227 8.23741C5.14227 7.79221 4.78139 7.43232 4.33719 7.43232H3.11686C2.67266 7.43232 2.31178 7.79221 2.31178 8.23741C2.31178 8.6826 2.67266 9.04249 3.11686 9.04249ZM6.16765 9.04249H7.38797C7.83225 9.04249 8.19306 8.68256 8.19306 8.23741C8.19306 7.79221 7.83217 7.43232 7.38797 7.43232H6.16765C5.72345 7.43232 5.36256 7.79221 5.36256 8.23741C5.36256 8.6826 5.72345 9.04249 6.16765 9.04249ZM9.21846 9.04249H10.4388C10.883 9.04249 11.2439 8.68259 11.2439 8.23741C11.2439 7.79222 10.883 7.43232 10.4388 7.43232H9.21846C8.77426 7.43232 8.41338 7.79221 8.41338 8.23741C8.41338 8.6826 8.77426 9.04249 9.21846 9.04249Z" stroke="#006060"/>
</g>
</g>
</svg>
