<svg xmlns="http://www.w3.org/2000/svg" width="24" height="24" viewBox="0 0 24 24" fill="none">
  <mask id="path-1-inside-1_5715_12975" fill="white">
    <path d="M5.06156 17.4967H5.05078L5.03297 17.4962L5.0475 17.5147L5.06156 17.4967ZM17.9353 1.05189V22.9481H21.7655C22.1222 22.9481 22.447 22.7831 22.6823 22.5179C22.9186 22.2542 23.0648 21.8894 23.0648 21.4871V2.51347C23.0648 2.11222 22.9186 1.7463 22.6828 1.48161C22.4475 1.2164 22.1227 1.05189 21.7655 1.05189H17.9353ZM17.0006 22.9481V1.05189H2.23453C1.87734 1.05189 1.55203 1.2164 1.31672 1.48108C1.08141 1.74577 0.935156 2.11169 0.935156 2.51347V21.4871C0.935156 21.8878 1.08141 22.2532 1.31719 22.5184C1.5525 22.7836 1.87781 22.9481 2.23453 22.9481H17.0006ZM14.9006 19.7497H15.2175C15.5475 18.6003 15.6323 18.5555 15.5302 17.6887C15.2817 15.5759 13.6073 14.4971 13.7175 13.1805C13.8441 11.6694 14.4394 11.2044 14.7389 9.92364C14.895 9.25559 15.3103 7.33951 14.9723 6.74423C14.7595 6.36882 14.288 6.2871 13.9294 6.10308C12.7472 5.49884 12.383 4.87086 12.488 3.72196H10.9078C11.0128 4.87086 10.6491 5.49884 9.46688 6.10308C9.10734 6.2871 8.63625 6.36882 8.42297 6.74423C8.08547 7.33951 8.50078 9.25559 8.65734 9.92364C8.95687 11.2044 9.55125 11.6694 9.67828 13.1805C9.78844 14.4971 8.11453 15.5759 7.86562 17.6887C7.76344 18.5555 7.84781 18.6003 8.17828 19.7497H8.51391V20.0703C8.51391 20.1847 8.59734 20.278 8.69906 20.278H14.7159C14.8172 20.278 14.9006 20.1847 14.9006 20.0703V19.7497ZM2.23453 0H21.7655C22.38 0 22.9392 0.283668 23.3438 0.73817C23.7483 1.19373 24 1.82275 24 2.51347V21.4871C24 22.1757 23.7478 22.8047 23.3428 23.2602C22.9383 23.7169 22.3795 24 21.7655 24H2.23453C1.62047 24 1.06125 23.7169 0.65625 23.2618C0.252188 22.8068 0 22.1778 0 21.4871V2.51347C0 1.82222 0.251719 1.1932 0.65625 0.73817C1.06078 0.283141 1.62 0 2.23453 0ZM18.2227 2.32682H21.1725V3.15304H18.2227V2.32682ZM18.2227 4.38473H19.9294V5.21095H18.2227V4.38473ZM18.2227 20.8464H19.9294V21.6727H18.2227V20.8464ZM18.2227 18.7891H21.1725V19.6158H18.2227V18.7891ZM18.2227 16.7311H19.9294V17.5574H18.2227V16.7311ZM18.2227 14.6732H21.1725V15.5H18.2227V14.6732ZM18.2227 12.6164H19.9294V13.4426H18.2227V12.6164ZM18.2227 10.5579H21.1725V11.3842H18.2227V10.5579ZM18.2227 8.50002H19.9294V9.32625H18.2227V8.50002ZM18.2227 6.44211H21.1725V7.26833H18.2227V6.44211ZM6.25969 3.99824C6.46687 3.99824 6.63469 4.187 6.63469 4.42005C6.63469 4.65258 6.46687 4.84187 6.25969 4.84187H3.84188C3.63516 4.84187 3.46734 4.65258 3.46734 4.42005C3.46734 4.187 3.63516 3.99824 3.84188 3.99824H6.25969ZM6.25969 19.1592C6.46687 19.1592 6.63469 19.3479 6.63469 19.581C6.63469 19.8135 6.46687 20.0023 6.25969 20.0023H3.84188C3.63516 20.0023 3.46734 19.8135 3.46734 19.581C3.46734 19.3479 3.63516 19.1592 3.84188 19.1592H6.25969ZM6.29625 6.86603C6.43125 7.04161 6.41391 7.30735 6.25781 7.4592C6.10219 7.61106 5.86594 7.59155 5.73094 7.41649L5.42578 7.01999V17.0232L5.73094 16.6267C5.86594 16.4512 6.10219 16.4322 6.25781 16.584C6.41391 16.7359 6.43125 17.0011 6.29625 17.1772L5.33344 18.4273C5.19844 18.6029 4.96219 18.6219 4.80609 18.4701L4.77188 18.4321L3.80859 17.2152C3.67125 17.0417 3.68484 16.7754 3.83906 16.6209C3.99328 16.4659 4.23 16.4817 4.36781 16.6552L4.67625 17.0449V6.99732L4.36781 7.38697C4.23 7.56097 3.99328 7.57626 3.83906 7.42177C3.68484 7.26728 3.67125 7.00101 3.80859 6.82754L4.77094 5.61009L4.80609 5.57265C4.96219 5.4208 5.19844 5.43978 5.33344 5.61536L6.29625 6.86603ZM5.09484 6.58975L5.0475 6.52805L4.99781 6.59133C5.01516 6.58869 5.0325 6.58658 5.05078 6.58658L5.09484 6.58975Z"/>
  </mask>
  <path d="M5.06156 17.4967H5.05078L5.03297 17.4962L5.0475 17.5147L5.06156 17.4967ZM17.9353 1.05189V22.9481H21.7655C22.1222 22.9481 22.447 22.7831 22.6823 22.5179C22.9186 22.2542 23.0648 21.8894 23.0648 21.4871V2.51347C23.0648 2.11222 22.9186 1.7463 22.6828 1.48161C22.4475 1.2164 22.1227 1.05189 21.7655 1.05189H17.9353ZM17.0006 22.9481V1.05189H2.23453C1.87734 1.05189 1.55203 1.2164 1.31672 1.48108C1.08141 1.74577 0.935156 2.11169 0.935156 2.51347V21.4871C0.935156 21.8878 1.08141 22.2532 1.31719 22.5184C1.5525 22.7836 1.87781 22.9481 2.23453 22.9481H17.0006ZM14.9006 19.7497H15.2175C15.5475 18.6003 15.6323 18.5555 15.5302 17.6887C15.2817 15.5759 13.6073 14.4971 13.7175 13.1805C13.8441 11.6694 14.4394 11.2044 14.7389 9.92364C14.895 9.25559 15.3103 7.33951 14.9723 6.74423C14.7595 6.36882 14.288 6.2871 13.9294 6.10308C12.7472 5.49884 12.383 4.87086 12.488 3.72196H10.9078C11.0128 4.87086 10.6491 5.49884 9.46688 6.10308C9.10734 6.2871 8.63625 6.36882 8.42297 6.74423C8.08547 7.33951 8.50078 9.25559 8.65734 9.92364C8.95687 11.2044 9.55125 11.6694 9.67828 13.1805C9.78844 14.4971 8.11453 15.5759 7.86562 17.6887C7.76344 18.5555 7.84781 18.6003 8.17828 19.7497H8.51391V20.0703C8.51391 20.1847 8.59734 20.278 8.69906 20.278H14.7159C14.8172 20.278 14.9006 20.1847 14.9006 20.0703V19.7497ZM2.23453 0H21.7655C22.38 0 22.9392 0.283668 23.3438 0.73817C23.7483 1.19373 24 1.82275 24 2.51347V21.4871C24 22.1757 23.7478 22.8047 23.3428 23.2602C22.9383 23.7169 22.3795 24 21.7655 24H2.23453C1.62047 24 1.06125 23.7169 0.65625 23.2618C0.252188 22.8068 0 22.1778 0 21.4871V2.51347C0 1.82222 0.251719 1.1932 0.65625 0.73817C1.06078 0.283141 1.62 0 2.23453 0ZM18.2227 2.32682H21.1725V3.15304H18.2227V2.32682ZM18.2227 4.38473H19.9294V5.21095H18.2227V4.38473ZM18.2227 20.8464H19.9294V21.6727H18.2227V20.8464ZM18.2227 18.7891H21.1725V19.6158H18.2227V18.7891ZM18.2227 16.7311H19.9294V17.5574H18.2227V16.7311ZM18.2227 14.6732H21.1725V15.5H18.2227V14.6732ZM18.2227 12.6164H19.9294V13.4426H18.2227V12.6164ZM18.2227 10.5579H21.1725V11.3842H18.2227V10.5579ZM18.2227 8.50002H19.9294V9.32625H18.2227V8.50002ZM18.2227 6.44211H21.1725V7.26833H18.2227V6.44211ZM6.25969 3.99824C6.46687 3.99824 6.63469 4.187 6.63469 4.42005C6.63469 4.65258 6.46687 4.84187 6.25969 4.84187H3.84188C3.63516 4.84187 3.46734 4.65258 3.46734 4.42005C3.46734 4.187 3.63516 3.99824 3.84188 3.99824H6.25969ZM6.25969 19.1592C6.46687 19.1592 6.63469 19.3479 6.63469 19.581C6.63469 19.8135 6.46687 20.0023 6.25969 20.0023H3.84188C3.63516 20.0023 3.46734 19.8135 3.46734 19.581C3.46734 19.3479 3.63516 19.1592 3.84188 19.1592H6.25969ZM6.29625 6.86603C6.43125 7.04161 6.41391 7.30735 6.25781 7.4592C6.10219 7.61106 5.86594 7.59155 5.73094 7.41649L5.42578 7.01999V17.0232L5.73094 16.6267C5.86594 16.4512 6.10219 16.4322 6.25781 16.584C6.41391 16.7359 6.43125 17.0011 6.29625 17.1772L5.33344 18.4273C5.19844 18.6029 4.96219 18.6219 4.80609 18.4701L4.77188 18.4321L3.80859 17.2152C3.67125 17.0417 3.68484 16.7754 3.83906 16.6209C3.99328 16.4659 4.23 16.4817 4.36781 16.6552L4.67625 17.0449V6.99732L4.36781 7.38697C4.23 7.56097 3.99328 7.57626 3.83906 7.42177C3.68484 7.26728 3.67125 7.00101 3.80859 6.82754L4.77094 5.61009L4.80609 5.57265C4.96219 5.4208 5.19844 5.43978 5.33344 5.61536L6.29625 6.86603ZM5.09484 6.58975L5.0475 6.52805L4.99781 6.59133C5.01516 6.58869 5.0325 6.58658 5.05078 6.58658L5.09484 6.58975Z" fill="#008080" stroke="#008080" stroke-width="3" mask="url(#path-1-inside-1_5715_12975)"/>
</svg>