<svg xmlns="http://www.w3.org/2000/svg" width="25" height="24" viewBox="0 0 25 24" fill="none">
  <path d="M4.75895 16.5935C3.64076 14.7085 3.24916 12.4802 3.65768 10.3269C4.06621 8.17359 5.24675 6.2435 6.97764 4.89903C8.70853 3.55455 10.8707 2.8882 13.0581 3.02508C15.2455 3.16196 17.3078 4.09267 18.8575 5.64244C20.4073 7.1922 21.338 9.25442 21.4749 11.4418C21.6118 13.6293 20.9455 15.7914 19.601 17.5223C18.2565 19.2532 16.3264 20.4338 14.1732 20.8423C12.0199 21.2508 9.79149 20.8593 7.90649 19.7411L7.90651 19.741L4.79808 20.6291C4.66947 20.6658 4.53338 20.6675 4.40391 20.634C4.27443 20.6004 4.15628 20.5329 4.0617 20.4383C3.96713 20.3437 3.89956 20.2256 3.86601 20.0961C3.83246 19.9666 3.83415 19.8305 3.87089 19.7019L4.75901 16.5935L4.75895 16.5935Z" stroke="#008080" stroke-width="1.5" stroke-linecap="round" stroke-linejoin="round"/>
</svg>