<svg xmlns="http://www.w3.org/2000/svg" width="24" height="24" viewBox="0 0 24 24" fill="none">
  <mask id="path-1-inside-1_5715_15563" fill="white">
    <path d="M13.7321 21.7697L14.2742 20.8539L12.9833 20.0898L12.4412 21.0057L13.7321 21.7697ZM9.72579 20.8539L10.2679 21.7697L11.5587 21.0057L11.0166 20.0898L9.72579 20.8539ZM12.4412 21.0057C12.2485 21.3313 11.7515 21.3313 11.5587 21.0057L10.2679 21.7697C11.0415 23.0767 12.9585 23.0767 13.7321 21.7697L12.4412 21.0057ZM10.5 2.75H13.5V1.25H10.5V2.75ZM21.25 10.5V11.5H22.75V10.5H21.25ZM2.75 11.5V10.5H1.25V11.5H2.75ZM1.25 11.5C1.25 12.6546 1.24959 13.5581 1.29931 14.2868C1.3495 15.0223 1.45323 15.6344 1.68769 16.2004L3.07351 15.6264C2.92737 15.2736 2.84081 14.8438 2.79584 14.1847C2.75041 13.5189 2.75 12.6751 2.75 11.5H1.25ZM7.8025 18.2416C6.54706 18.2199 5.88923 18.1401 5.37359 17.9265L4.79957 19.3123C5.60454 19.6457 6.52138 19.7197 7.77666 19.7413L7.8025 18.2416ZM1.68769 16.2004C2.27128 17.6093 3.39066 18.7287 4.79957 19.3123L5.37359 17.9265C4.33222 17.4951 3.50486 16.6678 3.07351 15.6264L1.68769 16.2004ZM21.25 11.5C21.25 12.6751 21.2496 13.5189 21.2042 14.1847C21.1592 14.8438 21.0726 15.2736 20.9265 15.6264L22.3123 16.2004C22.5468 15.6344 22.6505 15.0223 22.7007 14.2868C22.7504 13.5581 22.75 12.6546 22.75 11.5H21.25ZM16.2233 19.7413C17.4786 19.7197 18.3955 19.6457 19.2004 19.3123L18.6264 17.9265C18.1108 18.1401 17.4529 18.2199 16.1975 18.2416L16.2233 19.7413ZM20.9265 15.6264C20.4951 16.6678 19.6678 17.4951 18.6264 17.9265L19.2004 19.3123C20.6093 18.7287 21.7287 17.6093 22.3123 16.2004L20.9265 15.6264ZM13.5 2.75C15.1512 2.75 16.337 2.75079 17.2619 2.83873C18.1757 2.92561 18.7571 3.09223 19.2206 3.37628L20.0044 2.09732C19.2655 1.64457 18.4274 1.44279 17.4039 1.34547C16.3915 1.24921 15.1222 1.25 13.5 1.25V2.75ZM22.75 10.5C22.75 8.87781 22.7508 7.6085 22.6545 6.59611C22.5572 5.57256 22.3554 4.73445 21.9027 3.99563L20.6237 4.77938C20.9078 5.24291 21.0744 5.82434 21.1613 6.73809C21.2492 7.663 21.25 8.84876 21.25 10.5H22.75ZM19.2206 3.37628C19.7925 3.72672 20.2733 4.20752 20.6237 4.77938L21.9027 3.99563C21.4286 3.22194 20.7781 2.57144 20.0044 2.09732L19.2206 3.37628ZM10.5 1.25C8.87781 1.25 7.6085 1.24921 6.59611 1.34547C5.57256 1.44279 4.73445 1.64457 3.99563 2.09732L4.77938 3.37628C5.24291 3.09223 5.82434 2.92561 6.73809 2.83873C7.663 2.75079 8.84876 2.75 10.5 2.75V1.25ZM2.75 10.5C2.75 8.84876 2.75079 7.663 2.83873 6.73809C2.92561 5.82434 3.09223 5.24291 3.37628 4.77938L2.09732 3.99563C1.64457 4.73445 1.44279 5.57256 1.34547 6.59611C1.24921 7.6085 1.25 8.87781 1.25 10.5H2.75ZM3.99563 2.09732C3.22194 2.57144 2.57144 3.22194 2.09732 3.99563L3.37628 4.77938C3.72672 4.20752 4.20752 3.72672 4.77938 3.37628L3.99563 2.09732ZM11.0166 20.0898C10.8136 19.7468 10.6354 19.4441 10.4621 19.2063C10.2795 18.9559 10.0702 18.7304 9.77986 18.5615L9.02572 19.8582C9.07313 19.8857 9.13772 19.936 9.24985 20.0898C9.37122 20.2564 9.50835 20.4865 9.72579 20.8539L11.0166 20.0898ZM7.77666 19.7413C8.21575 19.7489 8.49387 19.7545 8.70588 19.7779C8.90399 19.7999 8.98078 19.832 9.02572 19.8582L9.77986 18.5615C9.4871 18.3912 9.18246 18.3215 8.87097 18.287C8.57339 18.2541 8.21375 18.2487 7.8025 18.2416L7.77666 19.7413ZM14.2742 20.8539C14.4916 20.4865 14.6287 20.2564 14.7501 20.0898C14.8622 19.936 14.9268 19.8857 14.9742 19.8582L14.2201 18.5615C13.9298 18.7304 13.7204 18.9559 13.5379 19.2063C13.3646 19.4441 13.1864 19.7468 12.9833 20.0898L14.2742 20.8539ZM16.1975 18.2416C15.7862 18.2487 15.4266 18.2541 15.129 18.287C14.8175 18.3215 14.5129 18.3912 14.2201 18.5615L14.9742 19.8582C15.0192 19.832 15.096 19.7999 15.2941 19.7779C15.5061 19.7545 15.7842 19.7489 16.2233 19.7413L16.1975 18.2416Z"/>
  </mask>
  <path d="M13.7321 21.7697L14.2742 20.8539L12.9833 20.0898L12.4412 21.0057L13.7321 21.7697ZM9.72579 20.8539L10.2679 21.7697L11.5587 21.0057L11.0166 20.0898L9.72579 20.8539ZM12.4412 21.0057C12.2485 21.3313 11.7515 21.3313 11.5587 21.0057L10.2679 21.7697C11.0415 23.0767 12.9585 23.0767 13.7321 21.7697L12.4412 21.0057ZM10.5 2.75H13.5V1.25H10.5V2.75ZM21.25 10.5V11.5H22.75V10.5H21.25ZM2.75 11.5V10.5H1.25V11.5H2.75ZM1.25 11.5C1.25 12.6546 1.24959 13.5581 1.29931 14.2868C1.3495 15.0223 1.45323 15.6344 1.68769 16.2004L3.07351 15.6264C2.92737 15.2736 2.84081 14.8438 2.79584 14.1847C2.75041 13.5189 2.75 12.6751 2.75 11.5H1.25ZM7.8025 18.2416C6.54706 18.2199 5.88923 18.1401 5.37359 17.9265L4.79957 19.3123C5.60454 19.6457 6.52138 19.7197 7.77666 19.7413L7.8025 18.2416ZM1.68769 16.2004C2.27128 17.6093 3.39066 18.7287 4.79957 19.3123L5.37359 17.9265C4.33222 17.4951 3.50486 16.6678 3.07351 15.6264L1.68769 16.2004ZM21.25 11.5C21.25 12.6751 21.2496 13.5189 21.2042 14.1847C21.1592 14.8438 21.0726 15.2736 20.9265 15.6264L22.3123 16.2004C22.5468 15.6344 22.6505 15.0223 22.7007 14.2868C22.7504 13.5581 22.75 12.6546 22.75 11.5H21.25ZM16.2233 19.7413C17.4786 19.7197 18.3955 19.6457 19.2004 19.3123L18.6264 17.9265C18.1108 18.1401 17.4529 18.2199 16.1975 18.2416L16.2233 19.7413ZM20.9265 15.6264C20.4951 16.6678 19.6678 17.4951 18.6264 17.9265L19.2004 19.3123C20.6093 18.7287 21.7287 17.6093 22.3123 16.2004L20.9265 15.6264ZM13.5 2.75C15.1512 2.75 16.337 2.75079 17.2619 2.83873C18.1757 2.92561 18.7571 3.09223 19.2206 3.37628L20.0044 2.09732C19.2655 1.64457 18.4274 1.44279 17.4039 1.34547C16.3915 1.24921 15.1222 1.25 13.5 1.25V2.75ZM22.75 10.5C22.75 8.87781 22.7508 7.6085 22.6545 6.59611C22.5572 5.57256 22.3554 4.73445 21.9027 3.99563L20.6237 4.77938C20.9078 5.24291 21.0744 5.82434 21.1613 6.73809C21.2492 7.663 21.25 8.84876 21.25 10.5H22.75ZM19.2206 3.37628C19.7925 3.72672 20.2733 4.20752 20.6237 4.77938L21.9027 3.99563C21.4286 3.22194 20.7781 2.57144 20.0044 2.09732L19.2206 3.37628ZM10.5 1.25C8.87781 1.25 7.6085 1.24921 6.59611 1.34547C5.57256 1.44279 4.73445 1.64457 3.99563 2.09732L4.77938 3.37628C5.24291 3.09223 5.82434 2.92561 6.73809 2.83873C7.663 2.75079 8.84876 2.75 10.5 2.75V1.25ZM2.75 10.5C2.75 8.84876 2.75079 7.663 2.83873 6.73809C2.92561 5.82434 3.09223 5.24291 3.37628 4.77938L2.09732 3.99563C1.64457 4.73445 1.44279 5.57256 1.34547 6.59611C1.24921 7.6085 1.25 8.87781 1.25 10.5H2.75ZM3.99563 2.09732C3.22194 2.57144 2.57144 3.22194 2.09732 3.99563L3.37628 4.77938C3.72672 4.20752 4.20752 3.72672 4.77938 3.37628L3.99563 2.09732ZM11.0166 20.0898C10.8136 19.7468 10.6354 19.4441 10.4621 19.2063C10.2795 18.9559 10.0702 18.7304 9.77986 18.5615L9.02572 19.8582C9.07313 19.8857 9.13772 19.936 9.24985 20.0898C9.37122 20.2564 9.50835 20.4865 9.72579 20.8539L11.0166 20.0898ZM7.77666 19.7413C8.21575 19.7489 8.49387 19.7545 8.70588 19.7779C8.90399 19.7999 8.98078 19.832 9.02572 19.8582L9.77986 18.5615C9.4871 18.3912 9.18246 18.3215 8.87097 18.287C8.57339 18.2541 8.21375 18.2487 7.8025 18.2416L7.77666 19.7413ZM14.2742 20.8539C14.4916 20.4865 14.6287 20.2564 14.7501 20.0898C14.8622 19.936 14.9268 19.8857 14.9742 19.8582L14.2201 18.5615C13.9298 18.7304 13.7204 18.9559 13.5379 19.2063C13.3646 19.4441 13.1864 19.7468 12.9833 20.0898L14.2742 20.8539ZM16.1975 18.2416C15.7862 18.2487 15.4266 18.2541 15.129 18.287C14.8175 18.3215 14.5129 18.3912 14.2201 18.5615L14.9742 19.8582C15.0192 19.832 15.096 19.7999 15.2941 19.7779C15.5061 19.7545 15.7842 19.7489 16.2233 19.7413L16.1975 18.2416Z" fill="#008080"/>
  <path d="M13.7321 21.7697L5.24343 36.1127L22.2213 7.42704L13.7321 21.7697ZM12.9833 20.0898L21.4715 5.74656L4.4938 34.4323L12.9833 20.0898ZM9.72579 20.8539L1.23507 6.51216L18.2157 35.1961L9.72579 20.8539ZM9.77986 18.5615L24.1871 26.9405L-4.62714 10.182L9.77986 18.5615ZM4.59754 35.7304L5.24294 36.1124L22.2213 7.42704L21.5759 7.04504L4.59754 35.7304ZM22.117 6.12855L21.4715 5.74656L4.49512 34.433L5.14062 34.815L22.117 6.12855ZM1.88048 6.13006L1.23507 6.51216L18.2165 35.1956L18.8619 34.8135L1.88048 6.13006ZM19.4024 35.7304L20.0478 35.3484L3.06955 6.66303L2.42415 7.04503L19.4024 35.7304ZM8.75841 31.3115L9.45132 31.0245L-3.3043 0.228305L-3.99721 0.515305L8.75841 31.3115ZM-8.87461 18.7044L-8.88753 19.4542L24.4409 20.0284L24.4538 19.2786L-8.87461 18.7044ZM-10.3114 12.2413L-10.5984 12.9342L20.1976 25.6904L20.4846 24.9975L-10.3114 12.2413ZM15.2415 31.3115L15.9344 31.5985L28.6902 0.802338L27.9973 0.515338L15.2415 31.3115ZM32.8746 18.7049L32.8617 17.955L-0.466702 18.5282L-0.453802 19.2781L32.8746 18.7049ZM3.51533 24.9973L3.80233 25.6902L34.5985 12.9344L34.3115 12.2415L3.51533 24.9973ZM5.40208 -5.97192L5.01018 -5.33244L33.431 12.085L33.8229 11.4455L5.40208 -5.97192ZM29.9714 18.5982L30.6109 18.2064L13.1945 -10.2151L12.555 -9.82322L29.9714 18.5982ZM18.5981 -5.97161L18.2062 -6.61109L-10.215 10.8057L-9.8231 11.4452L18.5981 -5.97161ZM11.4452 -9.8231L10.8057 -10.215L-6.61109 18.2062L-5.97161 18.5981L11.4452 -9.8231ZM23.8098 27.5893L24.1869 26.941L-4.62714 10.182L-5.00421 10.8303L23.8098 27.5893ZM22.7637 6.51144L21.4728 5.74734L4.4938 34.4323L5.78471 35.1964L22.7637 6.51144ZM3.95253 35.3487L5.24343 36.1127L22.2208 7.42675L20.9299 6.66275L3.95253 35.3487ZM18.7571 36.1124L20.0479 35.3484L3.06954 6.66303L1.77874 7.42703L18.7571 36.1124ZM2.52666 5.7476L1.23585 6.5117L18.2157 35.1961L19.5065 34.432L2.52666 5.7476ZM30.1667 2.75V1.25H-3.16667V2.75H30.1667ZM-6.16667 1.25V2.75H27.1667V1.25H-6.16667ZM21.25 28.1667H22.75V-5.16667H21.25V28.1667ZM22.75 -6.16667H21.25V27.1667H22.75V-6.16667ZM2.75 -6.16667H1.25V27.1667H2.75V-6.16667ZM1.25 28.1667H2.75V-5.16667H1.25V28.1667ZM8.0655 31.5985L9.45132 31.0245L-3.3043 0.228305L-4.69012 0.802305L8.0655 31.5985ZM-10.0244 11.5484L-10.5984 12.9342L20.1976 25.6904L20.7716 24.3046L-10.0244 11.5484ZM24.4409 20.0284L24.4667 18.5287L-8.86169 17.9545L-8.88753 19.4542L24.4409 20.0284ZM14.5486 31.0245L15.9344 31.5985L28.6902 0.802338L27.3044 0.228339L14.5486 31.0245ZM34.5985 12.9344L34.0245 11.5486L3.22834 24.3044L3.80234 25.6902L34.5985 12.9344ZM-0.466701 18.5283L-0.4409 20.028L32.8875 19.4546L32.8617 17.9549L-0.466701 18.5283ZM33.431 12.085L34.2148 10.8061L5.79399 -6.61141L5.01019 -5.33245L33.431 12.085ZM13.1946 -10.2152L11.9156 -9.4314L29.3318 18.9902L30.6108 18.2064L13.1946 -10.2152ZM-10.215 10.8056L-9.43128 12.0846L18.99 -5.33205L18.2063 -6.61101L-10.215 10.8056ZM12.0846 -9.43128L10.8056 -10.215L-6.61101 18.2063L-5.33205 18.99L12.0846 -9.43128ZM-4.62741 10.1825L-5.38155 11.4792L23.433 28.2372L24.1871 26.9405L-4.62741 10.1825ZM29.3817 11.4795L28.6276 10.1828L-0.187364 26.9402L0.566736 28.2369L29.3817 11.4795ZM13.7321 21.7697L-14.9524 4.79006L-14.9531 4.79121L13.7321 21.7697ZM12.9833 20.0898L-15.6989 3.10624L-15.7021 3.11158L12.9833 20.0898ZM9.72579 20.8539L-18.9601 37.8312L-18.9586 37.8338L9.72579 20.8539ZM11.5587 21.0057L-17.1267 37.9839L-17.1234 37.9895L11.5587 21.0057ZM3.07351 15.6264L33.8696 2.87059L33.8693 2.86988L3.07351 15.6264ZM7.77666 19.7413L8.35352 -13.587L8.35015 -13.5871L7.77666 19.7413ZM4.79957 19.3123L-7.95674 50.1082L-7.95558 50.1087L4.79957 19.3123ZM22.3123 16.2004L-8.48262 3.44172L-8.48357 3.44401L22.3123 16.2004ZM16.1975 18.2416L16.7728 51.57L16.7736 51.57L16.1975 18.2416ZM19.2004 19.3123L31.9565 50.1083L31.9568 50.1082L19.2004 19.3123ZM19.2206 3.37628L1.80323 31.7972L1.80473 31.7981L19.2206 3.37628ZM21.9027 3.99563L50.3249 -13.4196L50.3243 -13.4205L21.9027 3.99563ZM3.99563 2.09732L-13.421 -26.324L-13.421 -26.324L3.99563 2.09732ZM2.09732 3.99563L-26.324 -13.421L-26.324 -13.421L2.09732 3.99563ZM9.77986 18.5615L26.5411 -10.2512L26.5405 -10.2515L9.77986 18.5615ZM14.2742 20.8539L42.9587 37.8335L42.9615 37.8289L14.2742 20.8539ZM12.4412 21.0057L-16.2442 4.02747L-16.2448 4.02847L12.4412 21.0057ZM10.2679 21.7697L38.9531 4.79121L38.9523 4.78984L10.2679 21.7697ZM11.0166 20.0898L-17.6693 37.0672L-17.6688 37.068L11.0166 20.0898ZM1.29931 14.2868L-31.9567 16.5559L-31.9567 16.5562L1.29931 14.2868ZM1.68769 16.2004L32.4836 3.4442L32.4834 3.44358L1.68769 16.2004ZM2.79584 14.1847L36.0519 11.9157L36.0518 11.9155L2.79584 14.1847ZM7.8025 18.2416L7.22643 51.57L7.2271 51.57L7.8025 18.2416ZM5.37359 17.9265L-7.3838 48.722L-7.38328 48.7222L5.37359 17.9265ZM21.2042 14.1847L54.4601 16.4552L54.4603 16.4524L21.2042 14.1847ZM20.9265 15.6264L51.7221 28.3835L51.7235 28.3799L20.9265 15.6264ZM22.7007 14.2868L55.9567 16.5566L55.9568 16.555L22.7007 14.2868ZM16.2233 19.7413L15.6498 -13.5871L15.6464 -13.587L16.2233 19.7413ZM18.6264 17.9265L5.86933 -12.8691L5.86868 -12.8688L18.6264 17.9265ZM17.2619 2.83873L14.1068 36.0224L14.1069 36.0224L17.2619 2.83873ZM20.0044 2.09732L37.4209 -26.3241L37.4197 -26.3248L20.0044 2.09732ZM17.4039 1.34547L20.5592 -31.8382L20.559 -31.8382L17.4039 1.34547ZM22.6545 6.59611L-10.5292 9.7506L-10.529 9.75258L22.6545 6.59611ZM20.6237 4.77938L-7.79844 22.1947L-7.79632 22.1982L20.6237 4.77938ZM21.1613 6.73809L54.3451 3.58442L54.3449 3.58224L21.1613 6.73809ZM6.59611 1.34547L9.75124 34.5291L9.75128 34.5291L6.59611 1.34547ZM4.77938 3.37628L-12.6372 -25.0451L-12.6374 -25.045L4.77938 3.37628ZM6.73809 2.83873L3.583 -30.3449L3.58296 -30.3449L6.73809 2.83873ZM2.83873 6.73809L-30.3449 3.58296L-30.3449 3.583L2.83873 6.73809ZM3.37628 4.77938L-25.045 -12.6374L-25.0451 -12.6372L3.37628 4.77938ZM1.34547 6.59611L34.5291 9.75128L34.5291 9.75124L1.34547 6.59611ZM10.4621 19.2063L37.4009 -0.425684L37.3948 -0.433942L10.4621 19.2063ZM9.02572 19.8582L-7.76281 48.655L-7.73103 48.6735L-7.69922 48.692L9.02572 19.8582ZM9.24985 20.0898L36.1918 0.462254L36.1848 0.452537L9.24985 20.0898ZM8.70588 19.7779L12.3849 -13.3518L12.3738 -13.353L12.3627 -13.3542L8.70588 19.7779ZM8.87097 18.287L12.5405 -14.8437L12.5339 -14.8445L8.87097 18.287ZM14.7501 20.0898L-12.1873 0.455969L-12.1896 0.459087L14.7501 20.0898ZM14.9742 19.8582L31.7018 48.6905L31.7239 48.6776L31.746 48.6647L14.9742 19.8582ZM14.2201 18.5615L-2.53888 -10.2525L-2.54288 -10.2502L14.2201 18.5615ZM13.5379 19.2063L-13.4 -0.426918L-13.4009 -0.425683L13.5379 19.2063ZM15.129 18.287L11.4663 -14.8445L11.4596 -14.8438L15.129 18.287ZM15.2941 19.7779L11.6371 -13.3542L11.626 -13.353L11.6149 -13.3518L15.2941 19.7779ZM42.4166 38.7493L42.9587 37.8335L-14.4103 3.87427L-14.9524 4.79006L42.4166 38.7493ZM-15.7021 3.11158L-16.2442 4.02747L41.1266 37.9839L41.6687 37.068L-15.7021 3.11158ZM-18.9586 37.8338L-18.4165 38.7496L38.9523 4.78984L38.4102 3.87405L-18.9586 37.8338ZM40.2441 4.02747L39.702 3.11158L-17.6688 37.068L-17.1267 37.9839L40.2441 4.02747ZM-16.2448 4.02847C-3.5274 -17.4597 27.5287 -17.4462 40.2408 4.02194L-17.1234 37.9895C-4.02569 60.1088 28.0244 60.1223 41.1272 37.9829L-16.2448 4.02847ZM-18.4173 38.7482C-4.7367 61.8616 28.7367 61.8616 42.4173 38.7482L-14.9531 4.79121C-2.8197 -15.7082 26.8197 -15.7082 38.9531 4.79121L-18.4173 38.7482ZM10.5 36.0833H13.5V-30.5833H10.5V36.0833ZM13.5 -32.0833H10.5V34.5833H13.5V-32.0833ZM-12.0833 10.5V11.5H54.5833V10.5H-12.0833ZM56.0833 11.5V10.5H-10.5833V11.5H56.0833ZM36.0833 11.5V10.5H-30.5833V11.5H36.0833ZM-32.0833 10.5V11.5H34.5833V10.5H-32.0833ZM-32.0833 11.5C-32.0833 12.2035 -32.1017 14.4306 -31.9567 16.5559L34.5553 12.0177C34.5744 12.2966 34.582 12.4937 34.5848 12.5775C34.5877 12.6621 34.5874 12.6832 34.5864 12.6115C34.5855 12.5398 34.5845 12.4215 34.5839 12.2248C34.5833 12.0237 34.5833 11.8024 34.5833 11.5H-32.0833ZM-31.9567 16.5562C-31.7904 18.9928 -31.3045 23.6547 -29.108 28.9572L32.4834 3.44358C34.211 7.61407 34.4894 11.0518 34.5553 12.0174L-31.9567 16.5562ZM33.8693 2.86988C35.6879 7.2601 35.9815 10.8849 36.0519 11.9157L-30.4602 16.4537C-30.2999 18.8027 -29.8331 23.2871 -27.7223 28.3829L33.8693 2.86988ZM36.0518 11.9155C36.0722 12.2145 36.0807 12.4302 36.084 12.5291C36.0873 12.6281 36.0872 12.6613 36.0864 12.5965C36.0855 12.5319 36.0845 12.4186 36.084 12.2237C36.0834 12.0261 36.0833 11.8022 36.0833 11.5H-30.5833C-30.5833 12.2137 -30.6011 14.3889 -30.4602 16.4539L36.0518 11.9155ZM8.37857 -15.0868C8.15708 -15.0906 9.11047 -15.0908 10.5406 -14.9078C12.1986 -14.6957 14.9411 -14.1903 18.1305 -12.8692L-7.38328 48.7222C-0.420444 51.6065 6.02106 51.5491 7.22643 51.57L8.37857 -15.0868ZM-7.95558 50.1087C-0.734841 53.0993 5.91596 53.0476 7.20317 53.0697L8.35015 -13.5871C8.04676 -13.5923 8.99328 -13.5953 10.3896 -13.4149C11.9701 -13.2108 14.5504 -12.7284 17.5547 -11.4841L-7.95558 50.1087ZM-29.1083 28.9566C-25.1416 38.5329 -17.5333 46.1414 -7.95674 50.1082L17.5559 -11.4836C24.3146 -8.68401 29.6842 -3.31426 32.4836 3.4442L-29.1083 28.9566ZM18.131 -12.869C25.2553 -9.91761 30.9175 -4.25673 33.8696 2.87059L-27.7226 28.3822C-23.9078 37.5923 -16.5909 44.9078 -7.3838 48.722L18.131 -12.869ZM-12.0833 11.5C-12.0833 11.8023 -12.0834 12.0262 -12.084 12.2239C-12.0845 12.4189 -12.0855 12.5322 -12.0864 12.5969C-12.0872 12.6619 -12.0873 12.6289 -12.084 12.53C-12.0807 12.4312 -12.0723 12.2158 -12.0519 11.917L54.4603 16.4524C54.6011 14.3883 54.5833 12.2136 54.5833 11.5H-12.0833ZM-12.0517 11.9142C-11.9812 10.8816 -11.6872 7.25972 -9.87055 2.87286L51.7235 28.3799C53.8324 23.2875 54.2996 18.806 54.4601 16.4552L-12.0517 11.9142ZM53.1072 28.9591C55.3048 23.6549 55.7905 18.9916 55.9567 16.5566L-10.5553 12.017C-10.4895 11.053 -10.2112 7.61388 -8.48262 3.44172L53.1072 28.9591ZM55.9568 16.555C56.1017 14.4303 56.0833 12.204 56.0833 11.5H-10.5833C-10.5833 11.8023 -10.5833 12.0237 -10.5839 12.2248C-10.5845 12.4215 -10.5855 12.5397 -10.5864 12.6115C-10.5874 12.6833 -10.5877 12.6623 -10.5849 12.5778C-10.582 12.4941 -10.5744 12.2973 -10.5554 12.0186L55.9568 16.555ZM16.7968 53.0697C18.0833 53.0476 24.7351 53.0995 31.9565 50.1083L6.4443 -11.4837C9.44934 -12.7284 12.0301 -13.2108 13.6104 -13.4149C15.0068 -13.5953 15.9532 -13.5923 15.6498 -13.5871L16.7968 53.0697ZM5.86868 -12.8688C9.05877 -14.1904 11.8018 -14.6958 13.4595 -14.9078C14.8895 -15.0908 15.8429 -15.0906 15.6214 -15.0868L16.7736 51.57C17.9782 51.5491 24.4207 51.6066 31.3841 48.7218L5.86868 -12.8688ZM-9.86909 2.86933C-6.91738 -4.25611 -1.25611 -9.91738 5.86933 -12.8691L31.3835 48.7221C40.5917 44.9076 47.9076 37.5917 51.7221 28.3835L-9.86909 2.86933ZM31.9568 50.1082C41.5331 46.1414 49.1414 38.5331 53.1082 28.9568L-8.48357 3.44401C-5.68405 -3.31447 -0.314471 -8.68405 6.44401 -11.4836L31.9568 50.1082ZM13.5 36.0833C13.9244 36.0833 14.2404 36.0834 14.5194 36.0846C14.795 36.0857 14.9566 36.0876 15.0503 36.0893C15.1446 36.091 15.1009 36.0913 14.9648 36.085C14.8292 36.0787 14.5268 36.0623 14.1068 36.0224L20.417 -30.3449C17.5464 -30.6179 14.4981 -30.5833 13.5 -30.5833V36.0833ZM14.1069 36.0224C12.5842 35.8776 7.4597 35.2636 1.80323 31.7972L36.638 -25.0446C30.0545 -29.0792 23.7672 -30.0264 20.4169 -30.345L14.1069 36.0224ZM37.4197 -26.3248C30.5654 -30.5247 24.0257 -31.5086 20.5592 -31.8382L14.2486 34.5291C12.8291 34.3942 7.96558 33.8138 2.58914 30.5195L37.4197 -26.3248ZM20.559 -31.8382C17.6045 -32.1191 14.4841 -32.0833 13.5 -32.0833V34.5833C13.9245 34.5833 14.2368 34.5833 14.5206 34.5845C14.7986 34.5855 14.9672 34.5875 15.0707 34.5894C15.1745 34.5913 15.1476 34.592 15.0315 34.5866C14.9167 34.5812 14.6406 34.5664 14.2488 34.5291L20.559 -31.8382ZM56.0833 10.5C56.0833 9.51645 56.1192 6.39506 55.838 3.43964L-10.529 9.75258C-10.5663 9.36044 -10.5812 9.08403 -10.5866 8.96906C-10.592 8.85281 -10.5913 8.82573 -10.5894 8.92949C-10.5875 9.0329 -10.5855 9.20142 -10.5845 9.47934C-10.5833 9.76319 -10.5833 10.0754 -10.5833 10.5H56.0833ZM55.8382 3.44162C55.5087 -0.0254195 54.5247 -6.56534 50.3249 -13.4196L-6.51949 21.4109C-9.81393 16.0342 -10.3943 11.1705 -10.5292 9.7506L55.8382 3.44162ZM-7.79632 22.1982C-11.2638 16.5408 -11.8776 11.4153 -12.0223 9.89394L54.3449 3.58224C54.0264 0.233402 53.0794 -6.05494 49.0437 -12.6394L-7.79632 22.1982ZM-12.0225 9.89176C-12.0624 9.47207 -12.0787 9.17005 -12.085 9.03456C-12.0913 8.89868 -12.091 8.85512 -12.0893 8.94954C-12.0876 9.04332 -12.0857 9.20503 -12.0846 9.48057C-12.0834 9.75957 -12.0833 10.0756 -12.0833 10.5H54.5833C54.5833 9.50126 54.6178 6.45407 54.3451 3.58442L-12.0225 9.89176ZM1.80473 31.7981C-2.10895 29.3999 -5.39987 26.1092 -7.79844 22.1947L49.0458 -12.6359C45.9465 -17.6942 41.694 -21.9465 36.6365 -25.0455L1.80473 31.7981ZM50.3243 -13.4205C47.1016 -18.6798 42.6798 -23.1014 37.4209 -26.3241L2.58789 30.5187C-1.12362 28.2443 -4.24435 25.1237 -6.51893 21.4118L50.3243 -13.4205ZM10.5 -32.0833C9.51595 -32.0833 6.39551 -32.1191 3.44094 -31.8382L9.75128 34.5291C9.35945 34.5664 9.0833 34.5812 8.96851 34.5866C8.85243 34.592 8.8255 34.5913 8.92934 34.5894C9.03285 34.5875 9.20142 34.5855 9.47936 34.5845C9.76322 34.5833 10.0755 34.5833 10.5 34.5833V-32.0833ZM3.44098 -31.8382C-0.0249914 -31.5087 -6.56584 -30.5249 -13.421 -26.324L21.4123 30.5187C16.0347 33.814 11.1701 34.3942 9.75124 34.5291L3.44098 -31.8382ZM22.1959 31.7977C16.54 35.2636 11.416 35.8776 9.89322 36.0224L3.58296 -30.3449C0.232659 -30.0264 -6.05415 -29.0792 -12.6372 -25.0451L22.1959 31.7977ZM9.89318 36.0224C9.47315 36.0623 9.17085 36.0787 9.03515 36.085C8.89908 36.0913 8.85535 36.091 8.94969 36.0893C9.04337 36.0876 9.20502 36.0857 9.48055 36.0846C9.75955 36.0834 10.0755 36.0833 10.5 36.0833V-30.5833C9.50183 -30.5833 6.45358 -30.6179 3.583 -30.3449L9.89318 36.0224ZM36.0833 10.5C36.0833 10.0755 36.0834 9.75955 36.0846 9.48055C36.0857 9.20502 36.0876 9.04337 36.0893 8.94969C36.091 8.85535 36.0913 8.89908 36.085 9.03515C36.0787 9.17085 36.0623 9.47315 36.0224 9.89318L-30.3449 3.583C-30.6179 6.45358 -30.5833 9.50183 -30.5833 10.5H36.0833ZM36.0224 9.89322C35.8776 11.416 35.2636 16.54 31.7977 22.1959L-25.0451 -12.6372C-29.0792 -6.05415 -30.0264 0.232659 -30.3449 3.58296L36.0224 9.89322ZM-26.324 -13.421C-30.5249 -6.56584 -31.5087 -0.0249914 -31.8382 3.44098L34.5291 9.75124C34.3942 11.1701 33.814 16.0347 30.5187 21.4123L-26.324 -13.421ZM-31.8382 3.44094C-32.1191 6.39551 -32.0833 9.51595 -32.0833 10.5H34.5833C34.5833 10.0755 34.5833 9.76322 34.5845 9.47936C34.5855 9.20142 34.5875 9.03285 34.5894 8.92934C34.5913 8.8255 34.592 8.85243 34.5866 8.96851C34.5812 9.0833 34.5664 9.35945 34.5291 9.75128L-31.8382 3.44094ZM-13.421 -26.324C-18.6799 -23.1014 -23.1014 -18.6799 -26.324 -13.421L30.5186 21.4123C28.2442 25.1238 25.1238 28.2442 21.4123 30.5186L-13.421 -26.324ZM31.7975 22.1961C29.3995 26.1094 26.1094 29.3995 22.1961 31.7975L-12.6374 -25.045C-17.6943 -21.946 -21.946 -17.6943 -25.045 -12.6374L31.7975 22.1961ZM39.7025 3.11244C39.6582 3.03765 39.3819 2.5677 39.0876 2.09135C38.7876 1.60556 38.1978 0.667901 37.4008 -0.425683L-16.4767 38.8383C-16.8073 38.3846 -17.066 38.0024 -17.244 37.7321C-17.4229 37.4605 -17.5563 37.2471 -17.6312 37.1258C-17.6705 37.0622 -17.7008 37.0124 -17.7198 36.981C-17.7387 36.9498 -17.7502 36.9305 -17.7514 36.9285C-17.7524 36.9269 -17.7477 36.9347 -17.7329 36.9597C-17.7158 36.9885 -17.7007 37.0141 -17.6693 37.0672L39.7025 3.11244ZM37.3948 -0.433942C35.6507 -2.82568 32.226 -6.94411 26.5411 -10.2512L-6.9814 47.3742C-12.0856 44.4049 -15.0917 40.7375 -16.4706 38.8465L37.3948 -0.433942ZM-7.69922 48.692C-10.0487 47.3292 -12.2269 45.6773 -14.1733 43.7769C-15.8612 42.1289 -17.0239 40.6339 -17.6851 39.7271L36.1848 0.452537C34.5236 -1.82597 31.2321 -5.79611 25.7507 -8.97559L-7.69922 48.692ZM-17.6921 39.7173C-18.0479 39.229 -18.3266 38.8161 -18.5178 38.525C-18.7076 38.2359 -18.848 38.0106 -18.9208 37.8924C-19.0321 37.7119 -19.1018 37.5918 -18.9601 37.8312L38.4117 3.87658C38.336 3.74863 38.089 3.32972 37.8244 2.90071C37.5628 2.47647 36.9849 1.5509 36.1918 0.462255L-17.6921 39.7173ZM7.1998 53.0696C7.31133 53.0716 7.34747 53.0723 7.36077 53.0726C7.37342 53.0728 7.29295 53.0712 7.16203 53.0667C7.03205 53.0621 6.77851 53.0522 6.44706 53.0314C6.11371 53.0105 5.63252 52.9744 5.04901 52.91L12.3627 -13.3542C11.0514 -13.499 9.98125 -13.5422 9.49082 -13.5593C8.99253 -13.5767 8.50945 -13.5843 8.35352 -13.587L7.1998 53.0696ZM5.02685 52.9076C3.92991 52.7858 2.07857 52.5227 -0.165052 51.8869C-2.75246 51.1537 -5.31551 50.0818 -7.76281 48.655L25.8142 -8.93861C20.232 -12.1931 15.0657 -13.0541 12.3849 -13.3518L5.02685 52.9076ZM26.5405 -10.2515C20.7412 -13.625 15.3735 -14.53 12.5405 -14.8437L5.20148 51.4177C2.99141 51.173 -1.76703 50.4074 -6.98083 47.3745L26.5405 -10.2515ZM12.5339 -14.8445C11.2131 -14.9905 10.1245 -15.0377 9.56436 -15.0576C9.01314 -15.0772 8.47404 -15.0851 8.37789 -15.0868L7.2271 51.57C7.28991 51.571 7.32186 51.5716 7.35738 51.5722C7.37241 51.5725 7.38312 51.5727 7.39082 51.5728C7.39847 51.573 7.40178 51.5731 7.40172 51.5731C7.40163 51.5731 7.39709 51.573 7.38888 51.5728C7.38065 51.5726 7.3678 51.5723 7.351 51.5718C7.31827 51.5709 7.26443 51.5694 7.19437 51.5669C7.06144 51.5622 6.82097 51.5524 6.50875 51.5324C6.19825 51.5125 5.7515 51.4785 5.208 51.4185L12.5339 -14.8445ZM42.9615 37.8289C43.1034 37.5891 43.0333 37.7099 42.9217 37.8909C42.8486 38.0095 42.7078 38.2355 42.5175 38.5253C42.3258 38.8171 42.0464 39.2311 41.6898 39.7205L-12.1896 0.459087C-12.9844 1.54987 -13.5634 2.47729 -13.8254 2.90216C-14.0903 3.33175 -14.3376 3.75126 -14.4131 3.8789L42.9615 37.8289ZM41.6875 39.7236C41.0257 40.6316 39.8625 42.1274 38.1741 43.7761C36.2272 45.6771 34.0494 47.3284 31.7018 48.6905L-1.75338 -8.97406C-7.23255 -5.79521 -10.5239 -1.82626 -12.1873 0.455969L41.6875 39.7236ZM-2.54288 -10.2502C-8.22342 -6.94519 -11.649 -2.82937 -13.4 -0.426918L40.4757 38.8395C39.0898 40.7412 36.083 44.406 30.9831 47.3732L-2.54288 -10.2502ZM-13.4009 -0.425683C-14.1977 0.66771 -14.7873 1.60511 -15.0866 2.08962C-15.3797 2.56411 -15.6562 3.03402 -15.6989 3.10624L41.6655 37.0734C41.6975 37.0194 41.7124 36.9942 41.7299 36.9646C41.745 36.9391 41.7499 36.931 41.7492 36.9322C41.7482 36.9338 41.7369 36.9527 41.7182 36.9837C41.6994 37.0147 41.6693 37.0642 41.6301 37.1276C41.5556 37.2482 41.4224 37.4613 41.2437 37.7326C41.0659 38.0025 40.8073 38.3846 40.4767 38.8383L-13.4009 -0.425683ZM15.6222 -15.0868C15.526 -15.0851 14.9869 -15.0772 14.4356 -15.0576C13.8753 -15.0377 12.787 -14.9905 11.4663 -14.8445L18.7917 51.4185C18.2484 51.4786 17.8017 51.5125 17.4912 51.5324C17.179 51.5524 16.9386 51.5622 16.8056 51.5669C16.7355 51.5694 16.6817 51.5709 16.649 51.5718C16.6322 51.5723 16.6193 51.5726 16.6111 51.5728C16.6029 51.573 16.5983 51.5731 16.5982 51.5731C16.5982 51.5731 16.6015 51.573 16.6091 51.5728C16.6168 51.5727 16.6275 51.5725 16.6426 51.5722C16.6781 51.5716 16.71 51.571 16.7728 51.57L15.6222 -15.0868ZM11.4596 -14.8438C8.62513 -14.5298 3.2589 -13.6247 -2.53888 -10.2525L30.9791 47.3755C25.7669 50.4071 21.0099 51.1728 18.7984 51.4178L11.4596 -14.8438ZM31.746 48.6647C29.3074 50.0845 26.7502 51.1545 24.1635 51.8873C21.9211 52.5227 20.0706 52.7857 18.9733 52.9076L11.6149 -13.3518C8.92772 -13.0533 3.77302 -12.1917 -1.79761 -8.94835L31.746 48.6647ZM18.9511 52.91C18.3676 52.9744 17.8864 53.0105 17.553 53.0314C17.2215 53.0522 16.968 53.0621 16.838 53.0667C16.707 53.0712 16.6265 53.0728 16.6392 53.0726C16.6525 53.0723 16.6886 53.0716 16.8002 53.0696L15.6464 -13.587C15.4905 -13.5843 15.0074 -13.5767 14.5091 -13.5593C14.0186 -13.5422 12.9485 -13.499 11.6371 -13.3542L18.9511 52.91Z" fill="#008080" mask="url(#path-1-inside-1_5715_15563)"/>
</svg>