<svg xmlns="http://www.w3.org/2000/svg" width="24" height="24" viewBox="0 0 24 24" fill="none">
  <mask id="mask0_5715_11462" style="mask-type:luminance" maskUnits="userSpaceOnUse" x="0" y="0" width="24" height="24">
    <path d="M24 0H0V24H24V0Z" fill="white"/>
  </mask>
  <g mask="url(#mask0_5715_11462)">
    <path d="M9.50055 19C8.8961 19 7.01292 19 5.61769 19C4.8743 19 4.39171 18.2177 4.72416 17.5528L5.57826 15.8446C5.85597 15.2892 6.00055 14.6774 6.00055 14.0564C6.00055 13.2867 6.00055 12.1434 6.00055 11C6.00055 9 7.00055 5 12.0006 5C17.0006 5 18.0006 9 18.0006 11C18.0006 12.1434 18.0006 13.2867 18.0006 14.0564C18.0006 14.6774 18.1452 15.2892 18.4229 15.8446L19.277 17.5528C19.6094 18.2177 19.1259 19 18.3826 19H14.5006M9.50055 19C9.50055 21 10.5006 22 12.0006 22C13.5006 22 14.5006 21 14.5006 19M9.50055 19C11.0627 19 14.5006 19 14.5006 19" stroke="#006060" stroke-width="1.5" stroke-linejoin="round"/>
    <path d="M12 5V3" stroke="#006060" stroke-width="1.5" stroke-linecap="round" stroke-linejoin="round"/>
  </g>
</svg>