<svg xmlns="http://www.w3.org/2000/svg" width="26" height="32" viewBox="0 0 26 32" fill="none">
  <g clip-path="url(#clip0_5855_34148)">
    <path d="M21.0536 31.9999H4.92094C4.86301 31.9795 4.80586 31.949 4.74636 31.9404C2.15896 31.5481 0.253445 29.3639 0.309812 26.7538C0.338779 25.4033 0.500051 24.0552 0.60339 22.7063C0.775623 20.4642 0.945506 18.2228 1.124 15.9815C1.32285 13.481 1.53423 10.9812 1.72995 8.47995C1.83015 7.1976 2.76099 6.31295 4.05039 6.30669C4.96713 6.30278 5.88388 6.30199 6.80141 6.30043C6.80063 7.67359 6.79358 9.04753 6.80141 10.4207C6.80454 11.0008 7.21477 11.4228 7.73773 11.4228C8.26225 11.4228 8.67013 10.9977 8.67248 10.4207C8.67718 9.04753 8.67091 7.67437 8.66935 6.30043C11.5488 6.30043 14.4282 6.30043 17.3068 6.30043C17.3052 7.66341 17.3005 9.0264 17.3029 10.3894C17.3037 10.9906 17.7022 11.422 18.2384 11.4228C18.7747 11.4228 19.1732 10.9945 19.1755 10.3894C19.1802 9.0264 19.1755 7.66341 19.174 6.30043C20.1432 6.30278 21.1124 6.29417 22.0808 6.31139C23.0954 6.32939 24.0521 7.08565 24.1695 8.08147C24.3652 9.74429 24.4756 11.4173 24.6134 13.0872C24.7308 14.5081 24.8365 15.9306 24.9492 17.3523C25.0659 18.8256 25.1849 20.299 25.3031 21.7724C25.4197 23.2246 25.5019 24.6815 25.6601 26.1291C25.8996 28.3243 24.7793 30.4819 22.7916 31.4346C22.2475 31.6953 21.6353 31.8159 21.0544 32.0006L21.0536 31.9999ZM11.6928 20.0829C11.1636 19.5514 10.6563 19.0441 10.1521 18.5344C9.92038 18.3003 9.65107 18.1594 9.31522 18.2064C8.94492 18.2581 8.68109 18.4655 8.55348 18.8178C8.41492 19.1999 8.52139 19.5365 8.80009 19.8175C9.49607 20.5198 10.1967 21.2181 10.8966 21.9164C11.4658 22.4832 11.9332 22.4809 12.5078 21.907C14.025 20.3914 15.5414 18.8757 17.0579 17.3593C17.1314 17.2857 17.2058 17.2121 17.27 17.1307C17.5675 16.7534 17.544 16.2484 17.2176 15.9079C16.8888 15.5657 16.3916 15.5219 15.9986 15.81C15.8906 15.8891 15.7935 15.9862 15.698 16.0817C14.3718 17.4047 13.0472 18.7293 11.692 20.0837L11.6928 20.0829Z" fill="#006060"/>
    <path d="M19.182 6.30929C18.5541 6.30929 17.9254 6.30929 17.2976 6.30929C17.3054 3.82601 15.4046 1.86725 12.9879 1.86647C10.5719 1.86647 8.66952 3.82679 8.67735 6.30929C8.04948 6.30929 7.42083 6.30929 6.79297 6.30929C6.79923 4.38185 7.51556 2.77774 8.9537 1.48678C11.1622 -0.496244 14.8151 -0.496244 17.022 1.48678C18.4586 2.77852 19.1804 4.3795 19.1827 6.3085L19.182 6.30929Z" fill="#006060"/>
  </g>
  <defs>
    <clipPath id="clip0_5855_34148">
      <rect width="25.3831" height="32" fill="white" transform="translate(0.308594)"/>
    </clipPath>
  </defs>
</svg>