<svg width="25" height="24" viewBox="0 0 25 24" fill="none" xmlns="http://www.w3.org/2000/svg">
<path d="M2.5 3L2.76491 3.0883C4.08495 3.52832 4.74497 3.74832 5.12248 4.2721C5.5 4.79587 5.5 5.49159 5.5 6.88304V9.5C5.5 12.3284 5.5 13.7426 6.37868 14.6213C7.25736 15.5 8.67157 15.5 11.5 15.5H19.5" stroke="#4CAF50" stroke-linecap="round"/>
<path d="M8 18C8.82843 18 9.5 18.6716 9.5 19.5C9.5 20.3284 8.82843 21 8 21C7.17157 21 6.5 20.3284 6.5 19.5C6.5 18.6716 7.17157 18 8 18Z" stroke="#4CAF50"/>
<path d="M17 18C17.8284 18 18.5 18.6715 18.5 19.5C18.5 20.3284 17.8284 21 17 21C16.1716 21 15.5 20.3284 15.5 19.5C15.5 18.6715 16.1716 18 17 18Z" stroke="#4CAF50"/>
<path d="M5.5 6H16.9504C19.0054 6 20.0328 6 20.4775 6.67426C20.9221 7.34853 20.5173 8.29294 19.7078 10.1818L19.2792 11.1818C18.9013 12.0636 18.7123 12.5045 18.3366 12.7523C17.9609 13 17.4812 13 16.5218 13H5.5" stroke="#4CAF50"/>
<path d="M24 5C24 7.20912 22.2091 9 20 9C17.7909 9 16 7.20912 16 5C16 2.79086 17.7909 1 20 1C22.2091 1 24 2.79086 24 5Z" fill="#4CAF50"/>
<path d="M21.6129 3.78806C21.7301 3.90522 21.7301 4.09517 21.6129 4.21231L19.6129 6.21231C19.4957 6.32947 19.3058 6.32947 19.1886 6.21231L18.3886 5.41231C18.2715 5.29515 18.2715 5.10523 18.3886 4.98807C18.5058 4.87091 18.6958 4.87091 18.8129 4.98807L19.4008 5.57591L20.2947 4.68199L21.1887 3.78806C21.3058 3.67091 21.4957 3.67091 21.6129 3.78806Z" fill="white"/>
</svg>
