<svg width="18" height="18" viewBox="0 0 18 18" fill="none" xmlns="http://www.w3.org/2000/svg">
<g id="Packaging">
<g id="Vector">
<mask id="path-1-inside-1_8615_2529" fill="white">
<path d="M13.9417 4.37873C14.0957 4.38101 14.2475 4.37901 14.3969 4.37274C14.96 4.34963 15.4444 4.7159 15.4435 5.30552C15.4367 8.81301 15.4341 12.365 15.4358 15.9615C15.4358 16.463 15.0456 16.8797 14.5373 16.8797C10.801 16.882 7.0194 16.882 3.19243 16.8797C2.63276 16.8789 2.25366 16.4536 2.2528 15.8922C2.24938 12.286 2.24909 8.77678 2.25194 5.36457C2.25252 4.99887 2.40826 4.71191 2.71919 4.50367C2.97592 4.33252 3.367 4.37188 3.66224 4.37958C3.66845 4.37981 3.67465 4.37879 3.68045 4.37657C3.68626 4.37435 3.69156 4.37098 3.69603 4.36667C3.70051 4.36235 3.70406 4.35718 3.70649 4.35146C3.70892 4.34574 3.71017 4.33959 3.71017 4.33337C3.71245 3.72007 3.71216 3.06656 3.70931 2.37282C3.70845 2.14775 3.88988 1.96376 4.10724 1.92525C4.74222 1.81286 5.47047 1.6768 6.29201 1.51705C6.40953 1.4948 6.52791 1.4968 6.64715 1.52304C6.96663 1.59493 7.30181 1.66424 7.65267 1.73099C8.27852 1.84909 8.87898 1.87362 9.45405 1.80459C9.8922 1.7521 10.3797 1.65882 10.9166 1.52476C11.0278 1.4968 11.1371 1.49252 11.2443 1.51192C11.9922 1.64428 12.7582 1.7869 13.542 1.9398C13.7423 1.97917 13.8886 2.19739 13.8886 2.39164C13.8875 3.05401 13.8863 3.69725 13.8852 4.32139C13.8852 4.35847 13.904 4.37759 13.9417 4.37873ZM7.72969 4.36418C8.01266 4.5205 8.33842 4.60522 8.70697 4.61834C10.0385 4.6637 11.1536 3.6094 11.0791 2.23846C11.0734 2.1295 11.0692 2.02623 11.0663 1.92868C11.0661 1.92173 11.0643 1.91491 11.0612 1.90871C11.0581 1.9025 11.0537 1.89705 11.0483 1.89273C11.043 1.88842 11.0367 1.88534 11.0301 1.88371C11.0234 1.88209 11.0165 1.88195 11.0098 1.88332C10.5934 1.97175 10.1795 2.05333 9.76812 2.12807C9.13485 2.24388 8.49816 2.24474 7.85805 2.13064C7.41306 2.05191 6.98631 1.96661 6.57783 1.87476C6.57213 1.87353 6.56623 1.8735 6.56052 1.87468C6.55481 1.87585 6.5494 1.8782 6.54465 1.88159C6.5399 1.88497 6.5359 1.88931 6.53292 1.89432C6.52994 1.89933 6.52804 1.90491 6.52734 1.9107C6.38814 3.02605 6.78892 3.84388 7.72969 4.36418ZM7.15718 4.78265C7.44985 4.98803 7.88715 5.17887 8.2363 5.22679C9.58898 5.41278 10.6156 4.94553 11.3162 3.82505C11.6237 3.3327 11.7444 2.73252 11.6782 2.02452C11.6764 2.00648 11.6691 1.98944 11.6573 1.9758C11.6455 1.96215 11.6298 1.95256 11.6123 1.94836L11.501 1.92012C11.4577 1.90985 11.4386 1.92696 11.4437 1.97146C11.5969 3.27993 10.8121 4.46259 9.55931 4.85967C8.79169 5.10442 7.90255 4.95979 7.27442 4.50025C6.42322 3.87839 6.04127 3.04031 6.12855 1.98601C6.13426 1.92097 6.10545 1.89644 6.04212 1.91242L6.00105 1.92269C5.97233 1.92995 5.94663 1.94601 5.92759 1.96859C5.90854 1.99116 5.89712 2.01911 5.89493 2.04848C5.8008 3.21346 6.22155 4.12485 7.15718 4.78265ZM10.5931 5.08045C10.1389 5.39709 9.61009 5.5748 9.00649 5.61359C6.98945 5.74196 5.3712 4.09975 5.50214 2.07501C5.50247 2.06907 5.50148 2.06312 5.49923 2.05761C5.49699 2.05211 5.49356 2.0472 5.48919 2.04324C5.48482 2.03929 5.47964 2.03639 5.47402 2.03478C5.46841 2.03317 5.46251 2.03288 5.45678 2.03393L4.1834 2.25814C4.14616 2.26496 4.11249 2.28462 4.08825 2.3137C4.06401 2.34279 4.05074 2.37946 4.05076 2.41732L4.05589 6.07827C4.05589 6.08758 4.05959 6.0965 4.06617 6.10308C4.07275 6.10966 4.08168 6.11336 4.09098 6.11336L13.4633 6.12449C13.4895 6.12449 13.503 6.11108 13.5035 6.08426L13.5164 2.44385C13.5164 2.34344 13.467 2.28439 13.3683 2.2667L12.1403 2.04677C12.0929 2.03821 12.0701 2.0579 12.0718 2.10582C12.1129 3.37292 11.62 4.36446 10.5931 5.08045ZM3.61346 6.1339C3.64541 6.15044 3.67508 6.13989 3.70246 6.10224C3.70746 6.09557 3.71017 6.08746 3.71017 6.07913L3.70674 4.77923C3.70617 4.74556 3.68877 4.72816 3.65454 4.72702C3.47597 4.72075 3.30197 4.72332 3.13253 4.73473C2.74572 4.7604 2.59682 5.09757 2.60195 5.45186C2.60595 5.74567 2.60395 6.02978 2.59596 6.3042C2.59588 6.30943 2.59722 6.31462 2.59984 6.31916C2.60245 6.32371 2.60624 6.32744 2.61078 6.32993C2.61531 6.33242 2.62041 6.33357 2.6255 6.33326C2.6306 6.33294 2.63548 6.33118 2.63961 6.32816C2.92286 6.1339 3.21981 6.13561 3.54843 6.12021C3.57125 6.11907 3.59293 6.12363 3.61346 6.1339ZM15.0935 6.28195C15.0935 5.99327 15.0938 5.70259 15.0944 5.40992C15.0961 4.64145 14.4817 4.72018 13.94 4.72531C13.9057 4.72588 13.8886 4.743 13.8886 4.77666L13.8972 6.0817C13.8972 6.11821 13.9154 6.13504 13.9519 6.13219C14.3276 6.0971 14.7127 6.09967 15.0336 6.31361C15.0736 6.34042 15.0935 6.32987 15.0935 6.28195ZM15.0995 7.12295C15.0997 7.04439 15.0843 6.96658 15.0544 6.89396C15.0245 6.82133 14.9805 6.75531 14.9251 6.69967C14.8696 6.64402 14.8037 6.59985 14.7312 6.56966C14.6587 6.53947 14.5809 6.52386 14.5024 6.52373L3.20804 6.50401C3.12948 6.50387 3.05167 6.51921 2.97905 6.54914C2.90642 6.57908 2.8404 6.62302 2.78476 6.67847C2.72911 6.73392 2.68494 6.79979 2.65475 6.87231C2.62456 6.94483 2.60895 7.02259 2.60882 7.10114L2.59339 15.936C2.59326 16.0146 2.60859 16.0924 2.63853 16.165C2.66846 16.2377 2.71241 16.3037 2.76786 16.3593C2.82331 16.415 2.88917 16.4591 2.9617 16.4893C3.03422 16.5195 3.11198 16.5351 3.19053 16.5353L14.4849 16.555C14.5634 16.5551 14.6412 16.5398 14.7139 16.5098C14.7865 16.4799 14.8525 16.436 14.9082 16.3805C14.9638 16.3251 15.008 16.2592 15.0382 16.1867C15.0684 16.1141 15.084 16.0364 15.0841 15.9578L15.0995 7.12295Z"/>
</mask>
<path d="M13.9417 4.37873C14.0957 4.38101 14.2475 4.37901 14.3969 4.37274C14.96 4.34963 15.4444 4.7159 15.4435 5.30552C15.4367 8.81301 15.4341 12.365 15.4358 15.9615C15.4358 16.463 15.0456 16.8797 14.5373 16.8797C10.801 16.882 7.0194 16.882 3.19243 16.8797C2.63276 16.8789 2.25366 16.4536 2.2528 15.8922C2.24938 12.286 2.24909 8.77678 2.25194 5.36457C2.25252 4.99887 2.40826 4.71191 2.71919 4.50367C2.97592 4.33252 3.367 4.37188 3.66224 4.37958C3.66845 4.37981 3.67465 4.37879 3.68045 4.37657C3.68626 4.37435 3.69156 4.37098 3.69603 4.36667C3.70051 4.36235 3.70406 4.35718 3.70649 4.35146C3.70892 4.34574 3.71017 4.33959 3.71017 4.33337C3.71245 3.72007 3.71216 3.06656 3.70931 2.37282C3.70845 2.14775 3.88988 1.96376 4.10724 1.92525C4.74222 1.81286 5.47047 1.6768 6.29201 1.51705C6.40953 1.4948 6.52791 1.4968 6.64715 1.52304C6.96663 1.59493 7.30181 1.66424 7.65267 1.73099C8.27852 1.84909 8.87898 1.87362 9.45405 1.80459C9.8922 1.7521 10.3797 1.65882 10.9166 1.52476C11.0278 1.4968 11.1371 1.49252 11.2443 1.51192C11.9922 1.64428 12.7582 1.7869 13.542 1.9398C13.7423 1.97917 13.8886 2.19739 13.8886 2.39164C13.8875 3.05401 13.8863 3.69725 13.8852 4.32139C13.8852 4.35847 13.904 4.37759 13.9417 4.37873ZM7.72969 4.36418C8.01266 4.5205 8.33842 4.60522 8.70697 4.61834C10.0385 4.6637 11.1536 3.6094 11.0791 2.23846C11.0734 2.1295 11.0692 2.02623 11.0663 1.92868C11.0661 1.92173 11.0643 1.91491 11.0612 1.90871C11.0581 1.9025 11.0537 1.89705 11.0483 1.89273C11.043 1.88842 11.0367 1.88534 11.0301 1.88371C11.0234 1.88209 11.0165 1.88195 11.0098 1.88332C10.5934 1.97175 10.1795 2.05333 9.76812 2.12807C9.13485 2.24388 8.49816 2.24474 7.85805 2.13064C7.41306 2.05191 6.98631 1.96661 6.57783 1.87476C6.57213 1.87353 6.56623 1.8735 6.56052 1.87468C6.55481 1.87585 6.5494 1.8782 6.54465 1.88159C6.5399 1.88497 6.5359 1.88931 6.53292 1.89432C6.52994 1.89933 6.52804 1.90491 6.52734 1.9107C6.38814 3.02605 6.78892 3.84388 7.72969 4.36418ZM7.15718 4.78265C7.44985 4.98803 7.88715 5.17887 8.2363 5.22679C9.58898 5.41278 10.6156 4.94553 11.3162 3.82505C11.6237 3.3327 11.7444 2.73252 11.6782 2.02452C11.6764 2.00648 11.6691 1.98944 11.6573 1.9758C11.6455 1.96215 11.6298 1.95256 11.6123 1.94836L11.501 1.92012C11.4577 1.90985 11.4386 1.92696 11.4437 1.97146C11.5969 3.27993 10.8121 4.46259 9.55931 4.85967C8.79169 5.10442 7.90255 4.95979 7.27442 4.50025C6.42322 3.87839 6.04127 3.04031 6.12855 1.98601C6.13426 1.92097 6.10545 1.89644 6.04212 1.91242L6.00105 1.92269C5.97233 1.92995 5.94663 1.94601 5.92759 1.96859C5.90854 1.99116 5.89712 2.01911 5.89493 2.04848C5.8008 3.21346 6.22155 4.12485 7.15718 4.78265ZM10.5931 5.08045C10.1389 5.39709 9.61009 5.5748 9.00649 5.61359C6.98945 5.74196 5.3712 4.09975 5.50214 2.07501C5.50247 2.06907 5.50148 2.06312 5.49923 2.05761C5.49699 2.05211 5.49356 2.0472 5.48919 2.04324C5.48482 2.03929 5.47964 2.03639 5.47402 2.03478C5.46841 2.03317 5.46251 2.03288 5.45678 2.03393L4.1834 2.25814C4.14616 2.26496 4.11249 2.28462 4.08825 2.3137C4.06401 2.34279 4.05074 2.37946 4.05076 2.41732L4.05589 6.07827C4.05589 6.08758 4.05959 6.0965 4.06617 6.10308C4.07275 6.10966 4.08168 6.11336 4.09098 6.11336L13.4633 6.12449C13.4895 6.12449 13.503 6.11108 13.5035 6.08426L13.5164 2.44385C13.5164 2.34344 13.467 2.28439 13.3683 2.2667L12.1403 2.04677C12.0929 2.03821 12.0701 2.0579 12.0718 2.10582C12.1129 3.37292 11.62 4.36446 10.5931 5.08045ZM3.61346 6.1339C3.64541 6.15044 3.67508 6.13989 3.70246 6.10224C3.70746 6.09557 3.71017 6.08746 3.71017 6.07913L3.70674 4.77923C3.70617 4.74556 3.68877 4.72816 3.65454 4.72702C3.47597 4.72075 3.30197 4.72332 3.13253 4.73473C2.74572 4.7604 2.59682 5.09757 2.60195 5.45186C2.60595 5.74567 2.60395 6.02978 2.59596 6.3042C2.59588 6.30943 2.59722 6.31462 2.59984 6.31916C2.60245 6.32371 2.60624 6.32744 2.61078 6.32993C2.61531 6.33242 2.62041 6.33357 2.6255 6.33326C2.6306 6.33294 2.63548 6.33118 2.63961 6.32816C2.92286 6.1339 3.21981 6.13561 3.54843 6.12021C3.57125 6.11907 3.59293 6.12363 3.61346 6.1339ZM15.0935 6.28195C15.0935 5.99327 15.0938 5.70259 15.0944 5.40992C15.0961 4.64145 14.4817 4.72018 13.94 4.72531C13.9057 4.72588 13.8886 4.743 13.8886 4.77666L13.8972 6.0817C13.8972 6.11821 13.9154 6.13504 13.9519 6.13219C14.3276 6.0971 14.7127 6.09967 15.0336 6.31361C15.0736 6.34042 15.0935 6.32987 15.0935 6.28195ZM15.0995 7.12295C15.0997 7.04439 15.0843 6.96658 15.0544 6.89396C15.0245 6.82133 14.9805 6.75531 14.9251 6.69967C14.8696 6.64402 14.8037 6.59985 14.7312 6.56966C14.6587 6.53947 14.5809 6.52386 14.5024 6.52373L3.20804 6.50401C3.12948 6.50387 3.05167 6.51921 2.97905 6.54914C2.90642 6.57908 2.8404 6.62302 2.78476 6.67847C2.72911 6.73392 2.68494 6.79979 2.65475 6.87231C2.62456 6.94483 2.60895 7.02259 2.60882 7.10114L2.59339 15.936C2.59326 16.0146 2.60859 16.0924 2.63853 16.165C2.66846 16.2377 2.71241 16.3037 2.76786 16.3593C2.82331 16.415 2.88917 16.4591 2.9617 16.4893C3.03422 16.5195 3.11198 16.5351 3.19053 16.5353L14.4849 16.555C14.5634 16.5551 14.6412 16.5398 14.7139 16.5098C14.7865 16.4799 14.8525 16.436 14.9082 16.3805C14.9638 16.3251 15.008 16.2592 15.0382 16.1867C15.0684 16.1141 15.084 16.0364 15.0841 15.9578L15.0995 7.12295Z" stroke="#008080" stroke-width="2.01769" mask="url(#path-1-inside-1_8615_2529)"/>
</g>
<path id="Vector_2" d="M3.62098 7.38235C3.62109 7.38491 3.62117 7.38748 3.62122 7.39005C3.62116 7.39263 3.62107 7.39519 3.62095 7.39775C3.62094 7.398 3.62093 7.39825 3.62092 7.3985C3.6209 7.39825 3.62089 7.398 3.62088 7.39775C3.62077 7.39519 3.62069 7.39263 3.62064 7.39005C3.6207 7.38748 3.62079 7.38491 3.62091 7.38235C3.62092 7.3821 3.62093 7.38185 3.62094 7.3816C3.62096 7.38185 3.62097 7.3821 3.62098 7.38235Z" fill="#008080" stroke="#008080" stroke-width="1.00885"/>
<g id="Vector_3">
<mask id="path-3-inside-2_8615_2529" fill="white">
<path d="M6.08114 7.21582H4.45348C4.36699 7.21582 4.29688 7.28593 4.29688 7.37242V7.40666C4.29688 7.49315 4.36699 7.56326 4.45348 7.56326H6.08114C6.16763 7.56326 6.23775 7.49315 6.23775 7.40666V7.37242C6.23775 7.28593 6.16763 7.21582 6.08114 7.21582Z"/>
</mask>
<path d="M4.45348 8.22467H6.08114V6.20697H4.45348V8.22467ZM6.08114 8.22467C5.61047 8.22467 5.2289 7.84311 5.2289 7.37242H7.24659C7.24659 6.72876 6.7248 6.20697 6.08114 6.20697V8.22467ZM5.2289 7.37242V7.40666H7.24659V7.37242H5.2289ZM5.2289 7.40666C5.2289 6.93598 5.61046 6.55441 6.08114 6.55441V8.57211C6.7248 8.57211 7.24659 8.05032 7.24659 7.40666H5.2289ZM6.08114 6.55441H4.45348V8.57211H6.08114V6.55441ZM4.45348 6.55441C4.92416 6.55441 5.30572 6.93598 5.30572 7.40666H3.28803C3.28803 8.05032 3.80982 8.57211 4.45348 8.57211V6.55441ZM5.30572 7.40666V7.37242H3.28803V7.40666H5.30572ZM5.30572 7.37242C5.30572 7.84311 4.92415 8.22467 4.45348 8.22467V6.20697C3.80983 6.20697 3.28803 6.72876 3.28803 7.37242H5.30572Z" fill="#008080" mask="url(#path-3-inside-2_8615_2529)"/>
</g>
<g id="Vector_4">
<mask id="path-5-inside-3_8615_2529" fill="white">
<path d="M14.4339 7.21582H6.59678C6.51313 7.21582 6.44531 7.28364 6.44531 7.36729V7.41179C6.44531 7.49544 6.51313 7.56326 6.59678 7.56326H14.4339C14.5175 7.56326 14.5853 7.49544 14.5853 7.41179V7.36729C14.5853 7.28364 14.5175 7.21582 14.4339 7.21582Z"/>
</mask>
<path d="M14.4339 7.21582H6.59678C6.51313 7.21582 6.44531 7.28364 6.44531 7.36729V7.41179C6.44531 7.49544 6.51313 7.56326 6.59678 7.56326H14.4339C14.5175 7.56326 14.5853 7.49544 14.5853 7.41179V7.36729C14.5853 7.28364 14.5175 7.21582 14.4339 7.21582Z" fill="#008080"/>
<path d="M6.59678 8.22467H14.4339V6.20697H6.59678V8.22467ZM14.4339 8.22467C13.9604 8.22467 13.5765 7.84081 13.5765 7.36729H15.5942C15.5942 6.72646 15.0747 6.20697 14.4339 6.20697V8.22467ZM13.5765 7.36729V7.41179H15.5942V7.36729H13.5765ZM13.5765 7.41179C13.5765 6.93827 13.9604 6.55441 14.4339 6.55441V8.57211C15.0747 8.57211 15.5942 8.05262 15.5942 7.41179H13.5765ZM14.4339 6.55441H6.59678V8.57211H14.4339V6.55441ZM6.59678 6.55441C7.07029 6.55441 7.45416 6.93827 7.45416 7.41179H5.43647C5.43647 8.05262 5.95596 8.57211 6.59678 8.57211V6.55441ZM7.45416 7.41179V7.36729H5.43647V7.41179H7.45416ZM7.45416 7.36729C7.45416 7.84081 7.07029 8.22467 6.59678 8.22467V6.20697C5.95596 6.20697 5.43647 6.72646 5.43647 7.36729H7.45416Z" fill="#008080" mask="url(#path-5-inside-3_8615_2529)"/>
</g>
<path id="Vector_5" d="M5.4604 15.8238C5.46026 15.9055 5.42766 15.9838 5.36979 16.0415C5.31191 16.0992 5.2335 16.1315 5.15179 16.1313L3.49504 16.1284C3.45458 16.1284 3.41453 16.1203 3.37718 16.1048C3.33983 16.0892 3.30591 16.0665 3.27735 16.0378C3.24879 16.0092 3.22616 15.9752 3.21074 15.9378C3.19533 15.9004 3.18743 15.8603 3.1875 15.8198L3.18961 14.6098C3.18976 14.5281 3.22235 14.4498 3.28023 14.3921C3.3381 14.3344 3.41651 14.3021 3.49822 14.3022L5.15498 14.3051C5.19544 14.3052 5.23548 14.3132 5.27283 14.3288C5.31018 14.3443 5.34411 14.3671 5.37266 14.3958C5.40122 14.4244 5.42385 14.4584 5.43927 14.4958C5.45469 14.5332 5.46258 14.5733 5.46251 14.6138L5.4604 15.8238ZM5.08144 14.6866C5.08143 14.6817 5.08047 14.677 5.07862 14.6725C5.07676 14.668 5.07404 14.664 5.07062 14.6606C5.06719 14.6572 5.06313 14.6545 5.05866 14.6526C5.0542 14.6508 5.04941 14.6498 5.04458 14.6498L3.56924 14.6524C3.55948 14.6524 3.55013 14.6563 3.54324 14.6632C3.53635 14.6702 3.53249 14.6795 3.53251 14.6893L3.53434 15.7419C3.53435 15.7467 3.53531 15.7515 3.53717 15.7559C3.53903 15.7604 3.54174 15.7645 3.54517 15.7679C3.54859 15.7713 3.55265 15.774 3.55712 15.7758C3.56159 15.7777 3.56638 15.7786 3.57121 15.7786L5.04654 15.776C5.0563 15.776 5.06565 15.7721 5.07254 15.7652C5.07943 15.7583 5.08329 15.7489 5.08327 15.7392L5.08144 14.6866Z" fill="#008080"/>
</g>
</svg>
