<svg xmlns="http://www.w3.org/2000/svg" width="32" height="32" viewBox="0 0 32 32" fill="none">
  <g clip-path="url(#clip0_5855_34221)">
    <path d="M4.96413 1.73209C4.96413 1.29026 4.96972 0.895969 4.96227 0.501678C4.95667 0.208058 5.08904 0.0113783 5.37893 0.00951401C5.66789 0.00858188 5.80491 0.201533 5.80025 0.497018C5.79373 0.89224 5.79839 1.28653 5.79839 1.70692H9.35912C9.35912 1.31543 9.35632 0.923001 9.35912 0.531506C9.36192 0.196872 9.52131 -0.000739416 9.77858 0.00112484C10.0349 0.0029891 10.1896 0.200601 10.1924 0.537099C10.1952 0.920204 10.1924 1.30238 10.1924 1.70879H13.6833C13.6833 1.34619 13.6833 0.98825 13.6833 0.631244C13.6833 0.203397 13.825 -0.00540006 14.1083 0.00112484C14.388 0.00764975 14.5166 0.211786 14.5175 0.64709C14.5175 0.973336 14.5203 1.29958 14.5231 1.62583C14.5231 1.64727 14.5362 1.6687 14.5492 1.71065H18.0783C18.0783 1.30704 18.0755 0.913679 18.0783 0.521253C18.0811 0.192211 18.2526 -0.0231105 18.508 0.00485336C18.7979 0.0365458 18.9218 0.220175 18.9144 0.512864C18.9051 0.906222 18.9125 1.29958 18.9125 1.73302C19.8335 1.73302 20.7246 1.71811 21.6157 1.73675C22.5907 1.75726 23.3457 2.20654 23.7801 3.07622C23.9647 3.44534 24.0616 3.89743 24.0635 4.31316C24.0821 9.35784 24.0756 14.4025 24.0756 19.4481V19.9366C24.2135 19.8536 24.317 19.7958 24.4149 19.7315C25.7357 18.8628 27.0481 17.9819 28.3783 17.1281C29.6879 16.2864 31.3425 16.9566 31.7116 18.4573C31.9353 19.367 31.5466 20.2749 30.6723 20.8519C28.6346 22.1961 26.6017 23.5458 24.5482 24.8647C24.1772 25.1034 24.0513 25.3494 24.0635 25.7829C24.0961 26.9937 24.0774 28.2064 24.0746 29.4173C24.0709 30.8938 22.9682 31.9993 21.4945 32.0002C15.2502 32.0021 9.00584 32.0021 2.76151 32.0002C1.3251 32.0002 0.217729 30.8965 0.216797 29.4601C0.218661 21.0467 0.218661 12.6352 0.220525 4.22274C0.220525 2.82734 1.30459 1.74048 2.68974 1.73209C3.43264 1.72743 4.17462 1.73209 4.96413 1.73209ZM28.8565 18.9206C28.6738 18.6502 28.5144 18.4153 28.3522 18.1749C28.2571 18.2326 28.1965 18.2662 28.1387 18.3035C26.1766 19.5936 24.2163 20.8836 22.2533 22.1718C21.9494 22.3713 21.6931 22.3508 21.5514 22.1289C21.406 21.9034 21.4889 21.6629 21.7872 21.4643C22.1936 21.194 22.6 20.9237 23.013 20.6627C23.1714 20.562 23.2497 20.453 23.2497 20.247C23.2432 14.9338 23.246 9.6207 23.2423 4.30756C23.2423 3.30459 22.5348 2.59151 21.5355 2.57007C21.0471 2.55982 20.5587 2.56821 20.0702 2.56728C19.6908 2.56728 19.3124 2.56728 18.9162 2.56728C18.9162 2.79006 18.9302 2.96436 18.9134 3.13588C18.8846 3.41738 18.9582 3.58143 19.2425 3.72591C19.9472 4.08385 20.238 4.90785 19.9761 5.63212C19.7291 6.3163 19.0505 6.75254 18.3411 6.68356C17.629 6.61458 17.0585 6.07861 16.9206 5.34875C16.7938 4.67669 17.175 3.97386 17.8219 3.65414C17.9263 3.60287 18.0568 3.48915 18.0699 3.39035C18.1044 3.13028 18.082 2.86276 18.082 2.58965H14.5213C14.5213 2.78446 14.5343 2.95877 14.5185 3.12935C14.4933 3.40713 14.5511 3.57677 14.8512 3.711C15.4972 3.99996 15.8067 4.74007 15.6473 5.43824C15.4823 6.15784 14.8801 6.66305 14.1596 6.68636C13.4335 6.70966 12.7539 6.20258 12.5778 5.50628C12.3951 4.77922 12.725 4.03911 13.4111 3.68956C13.5919 3.59728 13.7178 3.51991 13.6926 3.28502C13.6684 3.05851 13.687 2.82641 13.687 2.59058H10.1962C10.1962 2.78633 10.2092 2.96064 10.1934 3.13215C10.1663 3.41085 10.2325 3.5805 10.5187 3.72498C11.2085 4.07453 11.5067 4.88828 11.2672 5.59949C11.0351 6.28927 10.3733 6.73483 9.65461 6.68542C8.93127 6.63602 8.33564 6.09073 8.19769 5.34968C8.07185 4.67669 8.45309 3.97386 9.09999 3.65414C9.20439 3.60287 9.33582 3.49009 9.34887 3.39128C9.38429 3.13122 9.36099 2.86369 9.36099 2.56728H5.80025C5.80025 2.7826 5.81237 2.95691 5.79745 3.12842C5.77322 3.40526 5.82635 3.57677 6.12836 3.711C6.77619 3.99996 7.08379 4.73448 6.92533 5.4373C6.76314 6.15504 6.15912 6.66305 5.43859 6.68636C4.72551 6.70966 4.05437 6.22216 3.86329 5.54263C3.65822 4.81278 3.99472 4.05775 4.68076 3.6821C4.78889 3.62245 4.93803 3.52364 4.95108 3.42763C4.98837 3.15638 4.96413 2.87674 4.96413 2.61482C4.911 2.59151 4.89049 2.57473 4.86999 2.57473C4.18394 2.57101 3.49789 2.56541 2.81184 2.56914C1.75947 2.57473 1.05665 3.27103 1.05665 4.32154C1.05385 12.6641 1.05385 21.0067 1.05665 29.3483C1.05665 30.4463 1.77718 31.1622 2.87337 31.1622C9.04779 31.1641 15.2231 31.1641 21.3976 31.1622C22.5273 31.1622 23.2423 30.4379 23.2451 29.2998C23.2478 28.2279 23.246 27.1559 23.2451 26.084C23.2451 25.988 23.2311 25.8929 23.2208 25.7568C21.9867 26.5687 20.7954 27.3573 19.5976 28.1337C19.4382 28.2372 19.2434 28.336 19.0607 28.3434C17.9571 28.3873 16.8525 28.4096 15.7479 28.4283C15.2604 28.4367 15.088 28.1365 15.3117 27.6919C15.4394 27.4365 15.5746 27.1848 15.7246 26.8949H15.2931C13.8278 26.8949 12.3624 26.8949 10.8971 26.8949C10.8272 26.8949 10.7573 26.8949 10.6874 26.8949C10.3257 26.8912 10.1141 26.7346 10.1384 26.4652C10.1682 26.1455 10.3798 26.0551 10.6772 26.056C12.3634 26.0616 14.0496 26.0392 15.7349 26.0718C16.1739 26.0802 16.3287 25.891 16.4256 25.4967C16.063 25.4967 15.7181 25.4967 15.3732 25.4967C13.7914 25.4967 12.2105 25.4949 10.6287 25.4977C10.3369 25.4977 10.1421 25.3718 10.143 25.0763C10.144 24.7808 10.3407 24.6485 10.6315 24.6597C10.7014 24.6625 10.7713 24.6597 10.8412 24.6597C12.3764 24.6597 13.9135 24.6065 15.445 24.6783C16.4825 24.7268 17.3792 24.5301 18.1743 23.8478C18.4716 23.5924 18.8296 23.4078 19.1605 23.1916C19.5128 22.9613 19.7682 22.9688 19.9164 23.2102C20.0656 23.4526 19.9677 23.6772 19.6107 23.914C19.4364 24.0296 19.2602 24.1433 19.0859 24.2579C18.6711 24.532 18.2563 24.806 17.821 25.094C17.9953 25.3597 18.1528 25.6002 18.3187 25.8528C21.831 23.542 25.3256 21.2425 28.8565 18.9187V18.9206ZM19.2863 27.3274C22.8042 25.013 26.3043 22.7097 29.8222 20.3952C29.6423 20.1286 29.4838 19.8937 29.3132 19.6402C25.7879 21.9602 22.2952 24.2579 18.7848 26.5677C18.9573 26.8287 19.1157 27.0683 19.2872 27.3274H19.2863ZM29.0942 17.7358C29.5668 18.4573 30.0347 19.1713 30.5073 19.8918C30.9845 19.3903 31.0526 18.7509 30.7049 18.2149C30.3619 17.6855 29.7336 17.4888 29.0942 17.7358ZM18.3952 27.525C17.9962 26.9182 17.6458 26.3832 17.2673 25.8071C16.9541 26.4028 16.6679 26.949 16.3659 27.525H18.3961H18.3952ZM19.2024 5.09335C19.1996 4.68135 18.8836 4.37188 18.4688 4.37654C18.0661 4.38027 17.7343 4.71304 17.7371 5.10826C17.7399 5.49882 18.0885 5.83905 18.4819 5.83532C18.8818 5.83159 19.2052 5.49882 19.2024 5.09335ZM9.76926 4.37654C9.36005 4.37002 9.02728 4.68041 9.01237 5.08123C8.99839 5.46993 9.33209 5.81948 9.73011 5.83253C10.1291 5.84558 10.4684 5.52119 10.4786 5.11852C10.4889 4.70651 10.1794 4.38306 9.76926 4.37561V4.37654ZM13.3915 5.09521C13.3887 5.50348 13.7066 5.83066 14.1083 5.83439C14.5054 5.83812 14.841 5.50535 14.8438 5.10453C14.8475 4.70092 14.5241 4.37747 14.1176 4.37654C13.6973 4.37654 13.3943 4.67482 13.3915 5.09521ZM4.66678 5.09242C4.66305 5.50162 4.97718 5.8288 5.37986 5.83439C5.77788 5.83905 6.11065 5.51001 6.11531 5.10733C6.11997 4.69812 5.80491 4.37934 5.39478 4.37747C4.97345 4.37561 4.67144 4.67203 4.66678 5.09335V5.09242Z" fill="#008080"/>
    <path d="M18.3954 27.5241H16.3652C16.6672 26.9489 16.9543 26.4018 17.2666 25.8062C17.645 26.3822 17.9965 26.9163 18.3945 27.5241H18.3954Z" fill="white"/>
    <path d="M5.67473 16.0586C7.2668 16.0623 8.52145 17.3226 8.52052 18.9174C8.52052 20.4778 7.23977 21.753 5.67752 21.7502C4.09943 21.7474 2.80656 20.4499 2.82241 18.8839C2.83732 17.317 4.11154 16.0549 5.67473 16.0586ZM3.68929 18.91C3.69302 20.0239 4.56829 20.8964 5.67752 20.8945C6.79328 20.8917 7.69745 19.9791 7.67974 18.8727C7.66296 17.7821 6.7504 16.8901 5.65795 16.8985C4.5599 16.9059 3.68463 17.8008 3.68836 18.91H3.68929Z" fill="#008080"/>
    <path d="M5.66716 9.06783C7.26111 9.06876 8.51948 10.3262 8.52041 11.9192C8.52134 13.4824 7.24992 14.7557 5.68488 14.7594C4.11051 14.7631 2.81392 13.4684 2.82231 11.9006C2.8307 10.3365 4.10585 9.06596 5.66716 9.0669V9.06783ZM3.68919 11.9211C3.69385 13.035 4.56912 13.9065 5.67928 13.9037C6.78013 13.9009 7.67031 13.0163 7.67963 11.9155C7.68989 10.8202 6.76148 9.89929 5.65598 9.90768C4.55886 9.91607 3.68359 10.8118 3.68825 11.9211H3.68919Z" fill="#008080"/>
    <path d="M5.68232 23.0498C7.2716 23.0554 8.52345 24.3194 8.52066 25.9161C8.51786 27.4737 7.23059 28.7507 5.67021 28.7414C4.09025 28.7321 2.80018 27.4308 2.82255 25.8677C2.84492 24.2979 4.11728 23.0442 5.68232 23.0498ZM3.68943 25.8807C3.68477 26.9965 4.55445 27.882 5.65809 27.8848C6.77944 27.8885 7.68174 26.9955 7.68081 25.8835C7.68081 24.7985 6.76732 23.8887 5.6786 23.8887C4.57682 23.8887 3.69409 24.7733 3.68943 25.8807Z" fill="#008080"/>
    <path d="M15.779 10.6796C17.4988 10.6796 19.2195 10.6815 20.9393 10.6777C21.1742 10.6777 21.3886 10.7421 21.4119 10.9825C21.4268 11.1345 21.3187 11.3162 21.2227 11.4542C21.1817 11.5139 21.0307 11.5129 20.93 11.5129C17.5016 11.5157 14.0723 11.5139 10.6439 11.5167C10.3559 11.5167 10.1676 11.4048 10.1406 11.1084C10.1164 10.8483 10.3233 10.6796 10.6542 10.6796C12.3628 10.6777 14.0714 10.6787 15.78 10.6787L15.779 10.6796Z" fill="#008080"/>
    <path d="M15.8154 17.6703C17.5239 17.6703 19.2325 17.6722 20.9411 17.6685C21.176 17.6685 21.3895 17.7337 21.4128 17.9742C21.4268 18.1261 21.3186 18.3079 21.2217 18.4459C21.1798 18.5055 21.0297 18.5046 20.929 18.5046C17.5118 18.5074 14.0946 18.5046 10.6775 18.5092C10.381 18.5092 10.1685 18.4198 10.1406 18.0991C10.1163 17.8297 10.3279 17.6703 10.6896 17.6703C12.3982 17.6694 14.1068 17.6703 15.8154 17.6703Z" fill="#008080"/>
    <path d="M13.3516 12.9148C12.4567 12.9148 11.5619 12.9166 10.668 12.9148C10.3231 12.9138 10.1376 12.7656 10.1348 12.5018C10.132 12.2408 10.325 12.0805 10.6596 12.0805C12.4493 12.0786 14.238 12.0786 16.0277 12.0805C16.3829 12.0805 16.5497 12.2166 16.5525 12.4934C16.5553 12.7721 16.3875 12.9138 16.0361 12.9148C15.1413 12.9176 14.2464 12.9148 13.3525 12.9148H13.3516Z" fill="#008080"/>
    <path d="M13.3218 19.9054C12.4503 19.9054 11.5787 19.9054 10.7072 19.9054C10.325 19.9054 10.1405 19.7711 10.1349 19.4962C10.1293 19.2258 10.3269 19.0702 10.6895 19.0702C12.4671 19.0692 14.2446 19.072 16.0222 19.0674C16.3158 19.0674 16.5321 19.1466 16.5498 19.4785C16.5647 19.7655 16.3829 19.9044 16.0054 19.9054C15.1106 19.9072 14.2157 19.9054 13.3218 19.9054Z" fill="#008080"/>
    <path d="M2.66137 8.8601C2.66137 9.51166 2.66323 10.1632 2.66137 10.8148C2.6595 11.1503 2.50011 11.3489 2.23631 11.3293C1.9371 11.3069 1.82525 11.1214 1.82618 10.8316C1.83084 9.53962 1.82618 8.24769 1.82897 6.95669C1.82897 6.62672 1.99955 6.4114 2.25403 6.43656C2.56629 6.46826 2.67069 6.67426 2.66603 6.9744C2.65577 7.60266 2.66323 8.23091 2.66323 8.8601H2.66137Z" fill="#008080"/>
    <path d="M1.81667 5.30766C1.82599 5.18555 1.78964 5.02522 1.85209 4.9637C1.97699 4.8388 2.15783 4.68872 2.31163 4.69245C2.58661 4.69991 2.67516 4.93294 2.66025 5.19766C2.6444 5.48942 2.746 5.85854 2.32468 5.92193C2.1802 5.94337 1.98072 5.79516 1.85768 5.67212C1.78964 5.60407 1.82692 5.42883 1.8176 5.30766H1.81667Z" fill="#008080"/>
    <path d="M5.37388 18.9183C5.71411 18.5949 5.99934 18.3236 6.28457 18.0514C6.4915 17.8538 6.71708 17.8082 6.92494 18.0263C7.13467 18.2463 7.07315 18.469 6.86715 18.6657C6.48964 19.0264 6.11399 19.39 5.73648 19.7498C5.51556 19.9604 5.28719 19.9716 5.06348 19.7535C4.85561 19.5512 4.64868 19.348 4.44921 19.1364C4.26278 18.9388 4.23948 18.716 4.43709 18.5184C4.6375 18.318 4.85748 18.3544 5.0495 18.5455C5.15576 18.6508 5.24711 18.771 5.37388 18.9174V18.9183Z" fill="#008080"/>
    <path d="M5.35754 11.9431C5.71454 11.6038 6.0007 11.3326 6.285 11.0604C6.49194 10.8619 6.71751 10.8171 6.92538 11.0362C7.13417 11.2561 7.07265 11.4789 6.86665 11.6756C6.48914 12.0363 6.11349 12.3999 5.73598 12.7597C5.51413 12.9703 5.28669 12.9806 5.06298 12.7625C4.85512 12.5593 4.64818 12.357 4.44871 12.1454C4.26228 11.9478 4.23991 11.725 4.43752 11.5274C4.63886 11.327 4.85978 11.3624 5.04993 11.5563C5.15526 11.6635 5.23822 11.7912 5.35754 11.9431Z" fill="#008080"/>
    <path d="M5.34868 25.9308C5.70755 25.5905 5.98252 25.3249 6.2631 25.0648C6.51477 24.8318 6.75246 24.8131 6.92864 25.0191C7.12718 25.2503 7.06752 25.4647 6.86245 25.6605C6.49333 26.0128 6.1298 26.3717 5.75602 26.7194C5.4829 26.9729 5.29648 26.9692 5.03455 26.7166C4.83414 26.5236 4.6356 26.3279 4.44544 26.1237C4.26088 25.9252 4.24131 25.7024 4.43985 25.5057C4.62721 25.3202 4.84253 25.337 5.02616 25.5178C5.14081 25.6306 5.2275 25.7723 5.34961 25.9298L5.34868 25.9308Z" fill="#008080"/>
  </g>
  <defs>
    <clipPath id="clip0_5855_34221">
      <rect width="31.5591" height="32" fill="white" transform="translate(0.220703)"/>
    </clipPath>
  </defs>
</svg>