<svg width="18" height="18" viewBox="0 0 18 18" fill="none" xmlns="http://www.w3.org/2000/svg">
<g id="Pickup">
<g id="Vector">
<mask id="path-1-inside-1_8615_21781" fill="white">
<path d="M10.7578 13.1457C10.7703 13.1651 10.7877 13.1757 10.8101 13.1776C11.6497 13.2454 12.3828 13.3861 13.0094 13.5995C13.2584 13.6844 13.4859 13.8081 13.6917 13.9708C14.0715 14.2704 14.0255 14.7088 13.6513 14.9868C13.4921 15.1047 13.3132 15.2023 13.1146 15.2796C12.6347 15.4665 12.0781 15.6016 11.4447 15.685C9.96633 15.8787 8.48119 15.8827 6.98923 15.697C6.396 15.6231 5.85604 15.502 5.36933 15.3337C4.96052 15.1926 4.13834 14.7895 4.45846 14.2101C4.65007 13.8633 5.16634 13.6415 5.53706 13.5341C6.18184 13.3472 6.85561 13.2282 7.55838 13.177C7.56558 13.1765 7.57249 13.174 7.57834 13.1697C7.58418 13.1655 7.58872 13.1597 7.59144 13.153C7.59417 13.1463 7.59496 13.139 7.59374 13.1319C7.59252 13.1248 7.58933 13.1182 7.58453 13.1128C6.54004 11.9483 5.56378 10.7003 4.83884 9.36351C4.45334 8.65278 4.11332 7.79308 4.15597 6.99308C4.28049 4.63232 5.92768 2.72358 8.24523 2.25905C10.0363 1.8997 11.8876 2.6093 13.035 3.99778C13.7404 4.85141 14.1257 5.84246 14.1909 6.97091C14.219 7.45458 14.1178 7.98015 13.8873 8.54759C13.6273 9.18934 13.2582 9.86083 12.7803 10.5621C12.198 11.4169 11.5248 12.268 10.7606 13.1156C10.7519 13.1251 10.751 13.1351 10.7578 13.1457ZM7.29456 3.04995C5.8168 3.73282 4.81666 5.10993 4.66201 6.73722C4.63131 7.06169 4.6368 7.34959 4.6785 7.6009C4.78994 8.26444 5.10494 8.92286 5.44722 9.50452C5.83879 10.1698 6.31621 10.8543 6.87949 11.5582C7.60879 12.4695 8.35212 13.3093 9.10948 14.0776C9.15686 14.1258 9.20424 14.1248 9.25162 14.0748C10.0109 13.2708 10.5958 12.6217 11.0063 12.1274C11.8592 11.1022 12.6211 10.0862 13.2158 8.91092C13.5604 8.22975 13.7594 7.54575 13.6866 6.7611C13.5279 5.04966 12.4556 3.62934 10.8692 2.97035C9.73151 2.49785 8.38737 2.54448 7.29456 3.04995ZM9.31701 14.6417C9.22092 14.7344 9.08162 14.6974 8.99462 14.611C8.67811 14.296 8.36804 13.9745 8.06442 13.6467C8.04879 13.6299 8.02967 13.6169 8.00844 13.6084C7.98721 13.6 7.96438 13.5963 7.9416 13.5978C7.34952 13.6368 6.76312 13.7191 6.1824 13.8445C6.05277 13.8724 4.47836 14.2516 4.94744 14.607C5.08087 14.7082 5.21695 14.7842 5.35568 14.835C5.86438 15.0223 6.45059 15.1574 7.11431 15.2404C8.67944 15.4352 10.2302 15.4089 11.7665 15.1614C12.1474 15.1 13.2545 14.8714 13.4631 14.5354C13.4793 14.5093 13.4861 14.4785 13.4823 14.448C13.4784 14.4176 13.4643 14.3894 13.4421 14.3682C13.18 14.1169 12.7035 13.9776 12.355 13.8934C11.7507 13.7479 11.1323 13.6516 10.4997 13.6046C10.4098 13.5978 10.3405 13.5841 10.2717 13.6586C9.92293 14.0361 9.60471 14.3638 9.31701 14.6417Z"/>
</mask>
<path d="M10.7578 13.1457L9.91662 13.6865L9.91823 13.689L10.7578 13.1457ZM10.8101 13.1776L10.7257 14.174L10.7296 14.1743L10.8101 13.1776ZM13.0094 13.5995L13.3321 12.653L13.3318 12.6529L13.0094 13.5995ZM13.6917 13.9708L13.0718 14.7554L13.0723 14.7558L13.6917 13.9708ZM13.6513 14.9868L14.2464 15.7905L14.2478 15.7894L13.6513 14.9868ZM13.1146 15.2796L12.7518 14.3478L12.7517 14.3478L13.1146 15.2796ZM11.4447 15.685L11.5746 16.6766L11.5752 16.6765L11.4447 15.685ZM6.98923 15.697L6.86558 16.6893L6.86569 16.6893L6.98923 15.697ZM5.36933 15.3337L5.69614 14.3886L5.6954 14.3883L5.36933 15.3337ZM4.45846 14.2101L5.33374 14.6937L5.33376 14.6937L4.45846 14.2101ZM5.53706 13.5341L5.25869 12.5736L5.25864 12.5736L5.53706 13.5341ZM7.55838 13.177L7.48737 12.1795L7.48576 12.1796L7.55838 13.177ZM7.58453 13.1128L8.33202 12.4485L8.32895 12.445L7.58453 13.1128ZM4.83884 9.36351L5.71789 8.88678L5.71786 8.88673L4.83884 9.36351ZM4.15597 6.99308L5.15455 7.04631L5.15458 7.04576L4.15597 6.99308ZM8.24523 2.25905L8.44176 3.23955L8.44194 3.23951L8.24523 2.25905ZM13.035 3.99778L12.2641 4.63479L12.2641 4.63479L13.035 3.99778ZM14.1909 6.97091L13.1926 7.02859L13.1926 7.0288L14.1909 6.97091ZM13.8873 8.54759L12.9608 8.1713L12.9605 8.17205L13.8873 8.54759ZM12.7803 10.5621L11.954 9.99886L11.9538 9.99913L12.7803 10.5621ZM10.7606 13.1156L11.4966 13.7927L11.5033 13.7852L10.7606 13.1156ZM7.29456 3.04995L7.71403 3.95771L7.71436 3.95756L7.29456 3.04995ZM4.66201 6.73722L3.66649 6.64261L3.66646 6.64301L4.66201 6.73722ZM4.6785 7.6009L3.69198 7.76458L3.69231 7.76653L4.6785 7.6009ZM5.44722 9.50452L4.58538 10.0117L4.58543 10.0118L5.44722 9.50452ZM6.87949 11.5582L6.0987 12.183L6.09875 12.1831L6.87949 11.5582ZM9.10948 14.0776L9.82217 13.3762L9.82166 13.3757L9.10948 14.0776ZM9.25162 14.0748L9.97772 14.7624L9.97867 14.7614L9.25162 14.0748ZM11.0063 12.1274L10.2375 11.4878L10.237 11.4885L11.0063 12.1274ZM13.2158 8.91092L14.1081 9.36244L14.1081 9.3623L13.2158 8.91092ZM13.6866 6.7611L12.6909 6.8534L12.6909 6.85346L13.6866 6.7611ZM10.8692 2.97035L11.2529 2.04686L11.2528 2.04682L10.8692 2.97035ZM9.31701 14.6417L10.0112 15.3615L10.0117 15.361L9.31701 14.6417ZM8.99462 14.611L8.28922 15.3198L8.28984 15.3204L8.99462 14.611ZM8.06442 13.6467L8.79816 12.9672L8.79485 12.9637L8.06442 13.6467ZM7.9416 13.5978L7.87917 12.5997L7.87581 12.5999L7.9416 13.5978ZM6.1824 13.8445L6.39252 14.8222L6.39359 14.822L6.1824 13.8445ZM4.94744 14.607L5.55178 13.8103L5.5513 13.8099L4.94744 14.607ZM5.35568 14.835L5.70113 13.8966L5.69948 13.896L5.35568 14.835ZM7.11431 15.2404L6.99021 16.2327L6.99078 16.2327L7.11431 15.2404ZM11.7665 15.1614L11.9255 16.1486L11.9256 16.1486L11.7665 15.1614ZM13.4631 14.5354L12.6143 14.0067L12.6136 14.0078L13.4631 14.5354ZM13.4421 14.3682L12.75 15.09L12.7507 15.0906L13.4421 14.3682ZM12.355 13.8934L12.5897 12.9214L12.5892 12.9212L12.355 13.8934ZM10.4997 13.6046L10.4239 14.6017L10.4256 14.6018L10.4997 13.6046ZM10.2717 13.6586L11.0062 14.3371L11.0063 14.3371L10.2717 13.6586ZM9.91823 13.689C10.0937 13.9602 10.3858 14.1452 10.7257 14.174L10.8946 12.1811C11.022 12.1919 11.164 12.2311 11.3002 12.314C11.4357 12.3964 11.5324 12.502 11.5974 12.6025L9.91823 13.689ZM10.7296 14.1743C11.508 14.2372 12.1565 14.3654 12.687 14.5461L13.3318 12.6529C12.6091 12.4067 11.7915 12.2536 10.8907 12.1808L10.7296 14.1743ZM12.6867 14.546C12.8285 14.5943 12.9554 14.6635 13.0718 14.7554L14.3116 13.1861C14.0164 12.9528 13.6884 12.7744 13.3321 12.653L12.6867 14.546ZM13.0723 14.7558C13.0663 14.7511 13.0325 14.7222 13.0016 14.6596C12.9696 14.5947 12.9509 14.5136 12.956 14.4276C12.9665 14.2509 13.0611 14.1796 13.0548 14.1842L14.2478 15.7894C14.6157 15.516 14.9204 15.0865 14.9525 14.5462C14.9859 13.9844 14.7126 13.5024 14.3111 13.1857L13.0723 14.7558ZM13.0562 14.1832C12.9736 14.2443 12.8739 14.3002 12.7518 14.3478L13.4774 16.2115C13.7525 16.1044 14.0106 15.9651 14.2464 15.7905L13.0562 14.1832ZM12.7517 14.3478C12.362 14.4996 11.8862 14.6183 11.3141 14.6936L11.5752 16.6765C12.27 16.585 12.9074 16.4334 13.4775 16.2115L12.7517 14.3478ZM11.3147 14.6935C9.92124 14.8761 8.52127 14.88 7.11276 14.7046L6.86569 16.6893C8.44112 16.8854 10.0114 16.8814 11.5746 16.6766L11.3147 14.6935ZM7.11287 14.7046C6.57806 14.638 6.10743 14.5308 5.69614 14.3886L5.04252 16.2787C5.60464 16.4731 6.21394 16.6081 6.86558 16.6893L7.11287 14.7046ZM5.6954 14.3883C5.63103 14.3661 5.54788 14.3325 5.46709 14.2909C5.38266 14.2475 5.3281 14.2093 5.30156 14.1859C5.26905 14.1573 5.3251 14.1931 5.36162 14.3085C5.38185 14.3724 5.39171 14.4486 5.3829 14.5285C5.37422 14.6073 5.35031 14.6637 5.33374 14.6937L3.58317 13.7265C3.3781 14.0977 3.32905 14.5146 3.45486 14.9121C3.56829 15.2704 3.79541 15.5245 3.97953 15.6867C4.33998 16.0042 4.79095 16.192 5.04326 16.279L5.6954 14.3883ZM5.33376 14.6937C5.31259 14.732 5.29782 14.7402 5.31548 14.7247C5.33246 14.7098 5.36607 14.6848 5.42114 14.6538C5.53435 14.59 5.67949 14.534 5.81548 14.4945L5.25864 12.5736C5.02391 12.6417 4.72556 12.7502 4.44005 12.9109C4.17209 13.0618 3.80924 13.3173 3.58315 13.7266L5.33376 14.6937ZM5.81543 14.4946C6.38986 14.3281 6.99447 14.2207 7.631 14.1744L7.48576 12.1796C6.71675 12.2356 5.97381 12.3663 5.25869 12.5736L5.81543 14.4946ZM7.62938 14.1745C7.8228 14.1607 8.00854 14.0931 8.16557 13.9792L6.99111 12.3603C7.13644 12.2549 7.30836 12.1923 7.48737 12.1795L7.62938 14.1745ZM8.16557 13.9792C8.32255 13.8653 8.44452 13.7097 8.51764 13.5301L6.66525 12.776C6.73293 12.6097 6.84581 12.4657 6.99111 12.3603L8.16557 13.9792ZM8.51764 13.5301C8.59077 13.3504 8.61214 13.1539 8.57933 12.9627L6.60815 13.3011C6.57779 13.1241 6.59756 12.9422 6.66525 12.776L8.51764 13.5301ZM8.57933 12.9627C8.54652 12.7716 8.46083 12.5934 8.33201 12.4485L6.83706 13.777C6.71782 13.6429 6.63852 13.478 6.60815 13.3011L8.57933 12.9627ZM8.32895 12.445C7.31063 11.3098 6.39071 10.1274 5.71789 8.88678L3.95979 9.84024C4.73686 11.2731 5.76946 12.5868 6.84012 13.7805L8.32895 12.445ZM5.71786 8.88673C5.356 8.21958 5.12704 7.56241 5.15455 7.04631L3.15739 6.93985C3.09961 8.02375 3.55068 9.08598 3.95982 9.84029L5.71786 8.88673ZM5.15458 7.04576C5.25509 5.14028 6.57297 3.61413 8.44176 3.23955L8.0487 1.27855C5.28239 1.83303 3.30589 4.12436 3.15736 6.94041L5.15458 7.04576ZM8.44194 3.23951C9.85355 2.95629 11.3393 3.5156 12.2641 4.63479L13.8058 3.36077C12.4359 1.70299 10.219 0.843114 8.04851 1.27859L8.44194 3.23951ZM12.2641 4.63479C12.831 5.32082 13.1394 6.1078 13.1926 7.02859L15.1893 6.91323C15.1121 5.57711 14.6498 4.38201 13.8058 3.36077L12.2641 4.63479ZM13.1926 7.0288C13.2101 7.33041 13.1497 7.70619 12.9608 8.1713L14.8138 8.92389C15.0858 8.2541 15.2278 7.57876 15.1892 6.91301L13.1926 7.0288ZM12.9605 8.17205C12.7324 8.73503 12.4005 9.34378 11.954 9.99886L13.6066 11.1253C14.116 10.3779 14.5222 9.64364 14.8141 8.92313L12.9605 8.17205ZM11.9538 9.99913C11.3995 10.8129 10.7549 11.6286 10.0179 12.446L11.5033 13.7852C12.2948 12.9074 12.9966 12.0208 13.6067 11.1251L11.9538 9.99913ZM10.0247 12.4385C9.91368 12.5592 9.78388 12.7601 9.75782 13.0363C9.73151 13.3152 9.8231 13.541 9.91663 13.6865L11.599 12.605C11.6857 12.7398 11.7743 12.9553 11.749 13.2242C11.7239 13.4904 11.5989 13.6814 11.4966 13.7927L10.0247 12.4385ZM6.87508 2.14218C5.0826 2.97049 3.85567 4.6521 3.66649 6.64261L5.65752 6.83183C5.77766 5.56777 6.55101 4.49515 7.71403 3.95771L6.87508 2.14218ZM3.66646 6.64301C3.62976 7.03082 3.63286 7.4082 3.69198 7.76458L5.66501 7.43722C5.64075 7.29097 5.63285 7.09256 5.65756 6.83143L3.66646 6.64301ZM3.69231 7.76653C3.83386 8.60933 4.22104 9.39256 4.58538 10.0117L6.30907 8.99735C5.98883 8.45316 5.74602 7.91954 5.66469 7.43527L3.69231 7.76653ZM4.58543 10.0118C5.00477 10.7242 5.51046 11.4479 6.0987 12.183L7.66028 10.9335C7.12196 10.2607 6.6728 9.61531 6.30902 8.99726L4.58543 10.0118ZM6.09875 12.1831C6.84783 13.1191 7.61391 13.9849 8.39729 14.7796L9.82166 13.3757C9.09034 12.6337 8.36975 11.8199 7.66023 10.9334L6.09875 12.1831ZM8.39678 14.7791C8.52991 14.9144 8.80227 15.1208 9.20055 15.1128C9.59316 15.105 9.85375 14.8933 9.97772 14.7624L8.52553 13.3872C8.60212 13.3063 8.81533 13.1201 9.16055 13.1132C9.51145 13.1062 9.73642 13.2891 9.82217 13.3762L8.39678 14.7791ZM9.97867 14.7614C10.7437 13.9513 11.3452 13.2845 11.7756 12.7663L10.237 11.4885C9.84629 11.9589 9.27801 12.5904 8.52458 13.3882L9.97867 14.7614ZM11.775 12.767C12.6459 11.7202 13.4632 10.6368 14.1081 9.36244L12.3235 8.45939C11.7789 9.5356 11.0724 10.4843 10.2375 11.4878L11.775 12.767ZM14.1081 9.3623C14.5078 8.57211 14.7777 7.6971 14.6823 6.66874L12.6909 6.85346C12.741 7.3944 12.6129 7.8874 12.3235 8.45954L14.1081 9.3623ZM14.6823 6.66881C14.4885 4.57831 13.1722 2.84417 11.2529 2.04686L10.4856 3.89383C11.739 4.4145 12.5674 5.52101 12.6909 6.8534L14.6823 6.66881ZM11.2528 2.04682C9.849 1.46384 8.21357 1.52308 6.87475 2.14234L7.71436 3.95756C8.56118 3.56587 9.61402 3.53187 10.4857 3.89387L11.2528 2.04682ZM8.6228 13.9219C8.82346 13.7284 9.08604 13.6731 9.29741 13.7041C9.48181 13.7311 9.6144 13.8171 9.69941 13.9016L8.28984 15.3204C8.46184 15.4913 8.70758 15.639 9.0074 15.6829C9.3342 15.7308 9.71447 15.6477 10.0112 15.3615L8.6228 13.9219ZM9.70003 13.9022C9.39316 13.5968 9.09254 13.2851 8.79815 12.9672L7.33069 14.3261C7.64355 14.664 7.96306 14.9952 8.28922 15.3198L9.70003 13.9022ZM8.79485 12.9637C8.67878 12.8395 8.53661 12.7424 8.37835 12.6794L7.63853 14.5375C7.52273 14.4914 7.41879 14.4203 7.33399 14.3296L8.79485 12.9637ZM8.37835 12.6794C8.22006 12.6163 8.0496 12.5891 7.87917 12.5997L8.00404 14.5958C7.87917 14.6036 7.75435 14.5836 7.63853 14.5375L8.37835 12.6794ZM7.87581 12.5999C7.23476 12.6422 6.59977 12.7313 5.97122 12.8671L6.39359 14.822C6.92647 14.7068 7.46427 14.6314 8.0074 14.5956L7.87581 12.5999ZM5.97229 12.8669C5.88316 12.886 5.39286 13.0022 4.96391 13.1765C4.78483 13.2493 4.45052 13.3949 4.20764 13.6444C4.08009 13.7755 3.8455 14.0716 3.86115 14.5091C3.87768 14.9714 4.15833 15.2637 4.34358 15.4041L5.5513 13.8099C5.61928 13.8614 5.84651 14.0642 5.85987 14.4376C5.87234 14.7863 5.6848 14.9942 5.64091 15.0393C5.58681 15.0949 5.55314 15.1081 5.58604 15.0897C5.61013 15.0762 5.65295 15.0554 5.71689 15.0294C5.84508 14.9773 6.00074 14.9275 6.14204 14.8874C6.21046 14.868 6.27096 14.852 6.31701 14.8405C6.33997 14.8347 6.35882 14.8301 6.3727 14.8268C6.38773 14.8232 6.39398 14.8219 6.39252 14.8222L5.97229 12.8669ZM4.3431 15.4037C4.5454 15.5572 4.76818 15.6848 5.01188 15.774L5.69948 13.896C5.66571 13.8836 5.61633 13.8592 5.55178 13.8103L4.3431 15.4037ZM5.01024 15.7734C5.60475 15.9923 6.26772 16.1423 6.99021 16.2327L7.23842 14.2481C6.63345 14.1725 6.124 14.0522 5.70113 13.8966L5.01024 15.7734ZM6.99078 16.2327C8.64858 16.4391 10.2945 16.4114 11.9255 16.1486L11.6074 14.1741C10.1658 14.4064 8.71029 14.4314 7.23785 14.2481L6.99078 16.2327ZM11.9256 16.1486C12.1446 16.1133 12.5637 16.032 12.971 15.9079C13.173 15.8463 13.4019 15.7653 13.6113 15.6605C13.7824 15.5748 14.1065 15.3948 14.3127 15.0629L12.6136 14.0078C12.6742 13.9102 12.7355 13.8641 12.743 13.8584C12.7549 13.8494 12.7494 13.8553 12.7158 13.8721C12.647 13.9066 12.5362 13.9496 12.3878 13.9948C12.0941 14.0843 11.7693 14.148 11.6073 14.1741L11.9256 16.1486ZM14.312 15.064C14.4496 14.843 14.507 14.5814 14.4745 14.3232L12.4901 14.5729C12.4653 14.3755 12.5091 14.1756 12.6143 14.0067L14.312 15.064ZM14.4745 14.3232C14.4419 14.0649 14.3216 13.8257 14.1335 13.6457L12.7507 15.0906C12.607 14.9531 12.5149 14.7703 12.4901 14.5729L14.4745 14.3232ZM14.1342 13.6464C13.8661 13.3894 13.5421 13.2338 13.2965 13.1373C13.0381 13.0359 12.7805 12.9674 12.5897 12.9214L12.1203 14.8655C12.278 14.9036 12.4329 14.9469 12.5654 14.9989C12.7107 15.056 12.756 15.0957 12.75 15.09L14.1342 13.6464ZM12.5892 12.9212C11.9313 12.7627 11.2592 12.6583 10.5738 12.6073L10.4256 14.6018C11.0054 14.6449 11.5702 14.733 12.1208 14.8656L12.5892 12.9212ZM10.5754 12.6075C10.5686 12.6069 10.5668 12.6067 10.5495 12.6053C10.5366 12.6042 10.5143 12.6024 10.4889 12.6011C10.4399 12.5985 10.3504 12.5956 10.2433 12.6102C10.1293 12.6257 9.99852 12.6602 9.86448 12.7294C9.73121 12.7983 9.62312 12.8869 9.53708 12.9801L11.0063 14.3371C10.9546 14.393 10.881 14.4554 10.7829 14.5061C10.684 14.5572 10.5891 14.5816 10.5123 14.592C10.4423 14.6015 10.3913 14.5987 10.3827 14.5983C10.3775 14.598 10.3759 14.5978 10.3843 14.5985C10.3883 14.5988 10.4083 14.6005 10.4239 14.6017L10.5754 12.6075ZM9.53709 12.9801C9.19784 13.3473 8.89315 13.6608 8.62233 13.9224L10.0117 15.361C10.3163 15.0668 10.648 14.7249 11.0062 14.3371L9.53709 12.9801Z" fill="#008080" mask="url(#path-1-inside-1_8615_21781)"/>
</g>
<g id="Vector_2">
<mask id="path-3-inside-2_8615_21781" fill="white">
<path d="M12.8172 7.18206C12.8172 8.14928 12.433 9.07688 11.7491 9.76081C11.0652 10.4447 10.1376 10.829 9.17034 10.829C8.20312 10.829 7.27552 10.4447 6.59159 9.76081C5.90766 9.07688 5.52344 8.14928 5.52344 7.18206C5.52344 6.21484 5.90766 5.28724 6.59159 4.60331C7.27552 3.91938 8.20312 3.53516 9.17034 3.53516C10.1376 3.53516 11.0652 3.91938 11.7491 4.60331C12.433 5.28724 12.8172 6.21484 12.8172 7.18206ZM12.3459 7.18547C12.3459 6.34341 12.0114 5.53585 11.416 4.94042C10.8205 4.345 10.013 4.01049 9.17091 4.01049C8.32885 4.01049 7.52128 4.345 6.92586 4.94042C6.33044 5.53585 5.99593 6.34341 5.99593 7.18547C5.99593 8.02753 6.33044 8.83509 6.92586 9.43052C7.52128 10.0259 8.32885 10.3604 9.17091 10.3604C10.013 10.3604 10.8205 10.0259 11.416 9.43052C12.0114 8.83509 12.3459 8.02753 12.3459 7.18547Z"/>
</mask>
<path d="M12.8172 7.18206C12.8172 8.14928 12.433 9.07688 11.7491 9.76081C11.0652 10.4447 10.1376 10.829 9.17034 10.829C8.20312 10.829 7.27552 10.4447 6.59159 9.76081C5.90766 9.07688 5.52344 8.14928 5.52344 7.18206C5.52344 6.21484 5.90766 5.28724 6.59159 4.60331C7.27552 3.91938 8.20312 3.53516 9.17034 3.53516C10.1376 3.53516 11.0652 3.91938 11.7491 4.60331C12.433 5.28724 12.8172 6.21484 12.8172 7.18206ZM12.3459 7.18547C12.3459 6.34341 12.0114 5.53585 11.416 4.94042C10.8205 4.345 10.013 4.01049 9.17091 4.01049C8.32885 4.01049 7.52128 4.345 6.92586 4.94042C6.33044 5.53585 5.99593 6.34341 5.99593 7.18547C5.99593 8.02753 6.33044 8.83509 6.92586 9.43052C7.52128 10.0259 8.32885 10.3604 9.17091 10.3604C10.013 10.3604 10.8205 10.0259 11.416 9.43052C12.0114 8.83509 12.3459 8.02753 12.3459 7.18547Z" fill="#008080"/>
<path d="M12.8172 7.18206H11.8172H12.8172ZM9.17034 10.829V9.82896V10.829ZM5.52344 7.18206H4.52344H5.52344ZM9.17034 3.53516V2.53516V3.53516ZM12.3459 7.18547H13.3459H12.3459ZM9.17091 4.01049V3.01049V4.01049ZM5.99593 7.18547H4.99593H5.99593ZM11.8172 7.18206C11.8172 7.88406 11.5384 8.55731 11.042 9.0537L12.4562 10.4679C13.3277 9.59645 13.8172 8.41449 13.8172 7.18206H11.8172ZM11.042 9.0537C10.5456 9.55009 9.87234 9.82896 9.17034 9.82896V11.829C10.4028 11.829 11.5847 11.3394 12.4562 10.4679L11.042 9.0537ZM9.17034 9.82896C8.46834 9.82896 7.79509 9.55009 7.2987 9.0537L5.88448 10.4679C6.75595 11.3394 7.9379 11.829 9.17034 11.829V9.82896ZM7.2987 9.0537C6.80231 8.55731 6.52344 7.88406 6.52344 7.18206H4.52344C4.52344 8.41449 5.01302 9.59645 5.88448 10.4679L7.2987 9.0537ZM6.52344 7.18206C6.52344 6.48006 6.80231 5.80681 7.2987 5.31042L5.88448 3.8962C5.01302 4.76767 4.52344 5.94962 4.52344 7.18206H6.52344ZM7.2987 5.31042C7.79509 4.81403 8.46834 4.53516 9.17034 4.53516V2.53516C7.9379 2.53516 6.75595 3.02474 5.88448 3.8962L7.2987 5.31042ZM9.17034 4.53516C9.87234 4.53516 10.5456 4.81403 11.042 5.31042L12.4562 3.8962C11.5847 3.02474 10.4028 2.53516 9.17034 2.53516V4.53516ZM11.042 5.31042C11.5384 5.80681 11.8172 6.48006 11.8172 7.18206H13.8172C13.8172 5.94962 13.3277 4.76767 12.4562 3.8962L11.042 5.31042ZM13.3459 7.18547C13.3459 6.0782 12.906 5.01628 12.1231 4.23332L10.7088 5.64753C11.1167 6.05542 11.3459 6.60863 11.3459 7.18547H13.3459ZM12.1231 4.23332C11.3401 3.45036 10.2782 3.01049 9.17091 3.01049V5.01049C9.74775 5.01049 10.301 5.23964 10.7088 5.64753L12.1231 4.23332ZM9.17091 3.01049C8.06364 3.01049 7.00171 3.45036 6.21875 4.23332L7.63297 5.64753C8.04085 5.23964 8.59407 5.01049 9.17091 5.01049V3.01049ZM6.21875 4.23332C5.43579 5.01628 4.99593 6.0782 4.99593 7.18547H6.99593C6.99593 6.60863 7.22508 6.05542 7.63297 5.64753L6.21875 4.23332ZM4.99593 7.18547C4.99593 8.29274 5.43579 9.35466 6.21875 10.1376L7.63297 8.72341C7.22508 8.31552 6.99593 7.76231 6.99593 7.18547H4.99593ZM6.21875 10.1376C7.00171 10.9206 8.06364 11.3604 9.17091 11.3604V9.36045C8.59407 9.36045 8.04085 9.1313 7.63297 8.72341L6.21875 10.1376ZM9.17091 11.3604C10.2782 11.3604 11.3401 10.9206 12.1231 10.1376L10.7088 8.72341C10.301 9.1313 9.74775 9.36045 9.17091 9.36045V11.3604ZM12.1231 10.1376C12.906 9.35466 13.3459 8.29274 13.3459 7.18547H11.3459C11.3459 7.76231 11.1167 8.31552 10.7088 8.72341L12.1231 10.1376Z" fill="#008080" mask="url(#path-3-inside-2_8615_21781)"/>
</g>
<g id="Vector_3">
<mask id="path-5-inside-3_8615_21781" fill="white">
<path d="M11.1981 9.10421C11.1162 9.24863 11.0087 9.23498 10.8336 9.23498C9.74306 9.23612 8.58429 9.2365 7.35728 9.23612C7.32487 9.23612 7.29279 9.22975 7.26285 9.21738C7.23291 9.20501 7.20571 9.18687 7.18279 9.16401C7.15988 9.14115 7.1417 9.11401 7.1293 9.08414C7.1169 9.05427 7.11051 9.02225 7.11051 8.98992C7.11089 8.24356 7.11051 7.41798 7.10938 6.51317C7.10881 6.17714 7.19751 5.87181 7.28166 5.55567C7.32999 5.37259 7.34875 5.13208 7.59552 5.13208C8.61707 5.13246 9.66213 5.13189 10.7307 5.13037C10.8672 5.13037 10.9541 5.19519 10.9917 5.32483C11.0538 5.53899 11.1128 5.76302 11.1685 5.99689C11.2117 6.17846 11.2326 6.3841 11.231 6.61381C11.2261 7.39163 11.2259 8.18045 11.2305 8.98026C11.2305 9.02387 11.2193 9.06657 11.1981 9.10421ZM7.80987 5.59888C7.79939 5.59889 7.78921 5.60235 7.78088 5.60872C7.77256 5.61509 7.76656 5.62402 7.76382 5.63414L7.67171 5.98097C7.6698 5.98801 7.66952 5.99538 7.67091 6.00254C7.67229 6.0097 7.67529 6.01644 7.67968 6.02226C7.68407 6.02808 7.68973 6.03281 7.69623 6.0361C7.70274 6.03939 7.70991 6.04115 7.71719 6.04124L8.42793 6.0475C8.43424 6.04757 8.44052 6.04639 8.44638 6.04403C8.45224 6.04166 8.45757 6.03815 8.46207 6.03371C8.46656 6.02927 8.47013 6.02398 8.47257 6.01815C8.475 6.01231 8.47626 6.00606 8.47625 5.99974L8.47512 5.64551C8.47512 5.63284 8.47009 5.62069 8.46113 5.61174C8.45217 5.60278 8.44002 5.59775 8.42736 5.59775L7.80987 5.59888ZM9.38656 5.64892C9.38656 5.6361 9.38147 5.62381 9.3724 5.61475C9.36334 5.60568 9.35105 5.60059 9.33823 5.60059H8.9948C8.98199 5.60059 8.96969 5.60568 8.96063 5.61475C8.95157 5.62381 8.94647 5.6361 8.94647 5.64892V5.99803C8.94647 6.01085 8.95157 6.02314 8.96063 6.03221C8.96969 6.04127 8.98199 6.04636 8.9948 6.04636H9.33823C9.35105 6.04636 9.36334 6.04127 9.3724 6.03221C9.38147 6.02314 9.38656 6.01085 9.38656 5.99803V5.64892ZM10.6482 6.04579C10.6541 6.04584 10.6598 6.04452 10.6651 6.04196C10.6703 6.03939 10.6749 6.03564 10.6784 6.03101C10.6819 6.02638 10.6843 6.02098 10.6854 6.01526C10.6865 6.00953 10.6862 6.00364 10.6846 5.99803L10.5829 5.62675C10.5806 5.61893 10.576 5.61205 10.5695 5.60713C10.563 5.60221 10.5552 5.59951 10.547 5.59945L9.9017 5.59775C9.89672 5.59767 9.89178 5.59859 9.88716 5.60044C9.88254 5.60229 9.87834 5.60504 9.87479 5.60854C9.87125 5.61203 9.86843 5.61619 9.86651 5.62078C9.86459 5.62537 9.8636 5.6303 9.8636 5.63527L9.86076 6.00713C9.86076 6.01698 9.86463 6.02644 9.87155 6.03346C9.87846 6.04049 9.88786 6.04451 9.89772 6.04466L10.6482 6.04579ZM8.60362 7.38595C8.52364 7.34235 8.48137 7.2728 8.47682 7.17728C8.46735 6.97751 8.46773 6.76979 8.47796 6.55411C8.47827 6.54772 8.47729 6.54133 8.47509 6.53534C8.47288 6.52935 8.4695 6.52387 8.46514 6.51925C8.46077 6.51462 8.45553 6.51094 8.44972 6.50843C8.44391 6.50592 8.43766 6.50463 8.43134 6.50464L7.64214 6.50578C7.62917 6.50578 7.61674 6.51087 7.60757 6.51993C7.59839 6.529 7.59324 6.54129 7.59324 6.55411L7.59154 8.73804C7.59154 8.74633 7.59489 8.75429 7.60086 8.76015C7.60683 8.76602 7.61493 8.76931 7.62338 8.76931H10.717C10.7253 8.76931 10.7333 8.76602 10.7392 8.76015C10.745 8.75429 10.7483 8.74633 10.7483 8.73804L10.7455 6.54501C10.7455 6.53445 10.7413 6.52433 10.7338 6.51687C10.7264 6.5094 10.7162 6.50521 10.7057 6.50521L9.91023 6.50464C9.90333 6.50463 9.89651 6.50603 9.89018 6.50874C9.88385 6.51146 9.87814 6.51545 9.8734 6.52045C9.86866 6.52546 9.86499 6.53138 9.86263 6.53785C9.86026 6.54432 9.85923 6.55121 9.85962 6.55809C9.87023 6.76012 9.87194 6.95648 9.86474 7.14714C9.85754 7.32643 9.76353 7.41608 9.58272 7.41608C9.28554 7.41608 8.9984 7.41589 8.72131 7.41551C8.68024 7.41551 8.63981 7.40536 8.60362 7.38595ZM9.38887 6.55659C9.3889 6.54972 9.38757 6.54291 9.38496 6.53655C9.38235 6.5302 9.37852 6.52442 9.37368 6.51954C9.36884 6.51467 9.36309 6.5108 9.35675 6.50815C9.35041 6.50549 9.34361 6.50412 9.33675 6.50409L8.99901 6.50292C8.98513 6.50287 8.97181 6.50833 8.96197 6.51811C8.95212 6.52788 8.94656 6.54117 8.94651 6.55504L8.9453 6.90301C8.94527 6.90988 8.9466 6.91669 8.94921 6.92305C8.95182 6.9294 8.95565 6.93518 8.96049 6.94006C8.96533 6.94493 8.97108 6.9488 8.97742 6.95145C8.98376 6.9541 8.99056 6.95548 8.99743 6.9555L9.33516 6.95668C9.34904 6.95673 9.36236 6.95127 9.3722 6.94149C9.38205 6.93172 9.38761 6.91843 9.38766 6.90456L9.38887 6.55659Z"/>
</mask>
<path d="M11.1981 9.10421C11.1162 9.24863 11.0087 9.23498 10.8336 9.23498C9.74306 9.23612 8.58429 9.2365 7.35728 9.23612C7.32487 9.23612 7.29279 9.22975 7.26285 9.21738C7.23291 9.20501 7.20571 9.18687 7.18279 9.16401C7.15988 9.14115 7.1417 9.11401 7.1293 9.08414C7.1169 9.05427 7.11051 9.02225 7.11051 8.98992C7.11089 8.24356 7.11051 7.41798 7.10938 6.51317C7.10881 6.17714 7.19751 5.87181 7.28166 5.55567C7.32999 5.37259 7.34875 5.13208 7.59552 5.13208C8.61707 5.13246 9.66213 5.13189 10.7307 5.13037C10.8672 5.13037 10.9541 5.19519 10.9917 5.32483C11.0538 5.53899 11.1128 5.76302 11.1685 5.99689C11.2117 6.17846 11.2326 6.3841 11.231 6.61381C11.2261 7.39163 11.2259 8.18045 11.2305 8.98026C11.2305 9.02387 11.2193 9.06657 11.1981 9.10421ZM7.80987 5.59888C7.79939 5.59889 7.78921 5.60235 7.78088 5.60872C7.77256 5.61509 7.76656 5.62402 7.76382 5.63414L7.67171 5.98097C7.6698 5.98801 7.66952 5.99538 7.67091 6.00254C7.67229 6.0097 7.67529 6.01644 7.67968 6.02226C7.68407 6.02808 7.68973 6.03281 7.69623 6.0361C7.70274 6.03939 7.70991 6.04115 7.71719 6.04124L8.42793 6.0475C8.43424 6.04757 8.44052 6.04639 8.44638 6.04403C8.45224 6.04166 8.45757 6.03815 8.46207 6.03371C8.46656 6.02927 8.47013 6.02398 8.47257 6.01815C8.475 6.01231 8.47626 6.00606 8.47625 5.99974L8.47512 5.64551C8.47512 5.63284 8.47009 5.62069 8.46113 5.61174C8.45217 5.60278 8.44002 5.59775 8.42736 5.59775L7.80987 5.59888ZM9.38656 5.64892C9.38656 5.6361 9.38147 5.62381 9.3724 5.61475C9.36334 5.60568 9.35105 5.60059 9.33823 5.60059H8.9948C8.98199 5.60059 8.96969 5.60568 8.96063 5.61475C8.95157 5.62381 8.94647 5.6361 8.94647 5.64892V5.99803C8.94647 6.01085 8.95157 6.02314 8.96063 6.03221C8.96969 6.04127 8.98199 6.04636 8.9948 6.04636H9.33823C9.35105 6.04636 9.36334 6.04127 9.3724 6.03221C9.38147 6.02314 9.38656 6.01085 9.38656 5.99803V5.64892ZM10.6482 6.04579C10.6541 6.04584 10.6598 6.04452 10.6651 6.04196C10.6703 6.03939 10.6749 6.03564 10.6784 6.03101C10.6819 6.02638 10.6843 6.02098 10.6854 6.01526C10.6865 6.00953 10.6862 6.00364 10.6846 5.99803L10.5829 5.62675C10.5806 5.61893 10.576 5.61205 10.5695 5.60713C10.563 5.60221 10.5552 5.59951 10.547 5.59945L9.9017 5.59775C9.89672 5.59767 9.89178 5.59859 9.88716 5.60044C9.88254 5.60229 9.87834 5.60504 9.87479 5.60854C9.87125 5.61203 9.86843 5.61619 9.86651 5.62078C9.86459 5.62537 9.8636 5.6303 9.8636 5.63527L9.86076 6.00713C9.86076 6.01698 9.86463 6.02644 9.87155 6.03346C9.87846 6.04049 9.88786 6.04451 9.89772 6.04466L10.6482 6.04579ZM8.60362 7.38595C8.52364 7.34235 8.48137 7.2728 8.47682 7.17728C8.46735 6.97751 8.46773 6.76979 8.47796 6.55411C8.47827 6.54772 8.47729 6.54133 8.47509 6.53534C8.47288 6.52935 8.4695 6.52387 8.46514 6.51925C8.46077 6.51462 8.45553 6.51094 8.44972 6.50843C8.44391 6.50592 8.43766 6.50463 8.43134 6.50464L7.64214 6.50578C7.62917 6.50578 7.61674 6.51087 7.60757 6.51993C7.59839 6.529 7.59324 6.54129 7.59324 6.55411L7.59154 8.73804C7.59154 8.74633 7.59489 8.75429 7.60086 8.76015C7.60683 8.76602 7.61493 8.76931 7.62338 8.76931H10.717C10.7253 8.76931 10.7333 8.76602 10.7392 8.76015C10.745 8.75429 10.7483 8.74633 10.7483 8.73804L10.7455 6.54501C10.7455 6.53445 10.7413 6.52433 10.7338 6.51687C10.7264 6.5094 10.7162 6.50521 10.7057 6.50521L9.91023 6.50464C9.90333 6.50463 9.89651 6.50603 9.89018 6.50874C9.88385 6.51146 9.87814 6.51545 9.8734 6.52045C9.86866 6.52546 9.86499 6.53138 9.86263 6.53785C9.86026 6.54432 9.85923 6.55121 9.85962 6.55809C9.87023 6.76012 9.87194 6.95648 9.86474 7.14714C9.85754 7.32643 9.76353 7.41608 9.58272 7.41608C9.28554 7.41608 8.9984 7.41589 8.72131 7.41551C8.68024 7.41551 8.63981 7.40536 8.60362 7.38595ZM9.38887 6.55659C9.3889 6.54972 9.38757 6.54291 9.38496 6.53655C9.38235 6.5302 9.37852 6.52442 9.37368 6.51954C9.36884 6.51467 9.36309 6.5108 9.35675 6.50815C9.35041 6.50549 9.34361 6.50412 9.33675 6.50409L8.99901 6.50292C8.98513 6.50287 8.97181 6.50833 8.96197 6.51811C8.95212 6.52788 8.94656 6.54117 8.94651 6.55504L8.9453 6.90301C8.94527 6.90988 8.9466 6.91669 8.94921 6.92305C8.95182 6.9294 8.95565 6.93518 8.96049 6.94006C8.96533 6.94493 8.97108 6.9488 8.97742 6.95145C8.98376 6.9541 8.99056 6.95548 8.99743 6.9555L9.33516 6.95668C9.34904 6.95673 9.36236 6.95127 9.3722 6.94149C9.38205 6.93172 9.38761 6.91843 9.38766 6.90456L9.38887 6.55659Z" stroke="#008080" stroke-width="2" mask="url(#path-5-inside-3_8615_21781)"/>
</g>
<g id="Vector_4">
<mask id="path-6-inside-4_8615_21781" fill="white">
<path d="M10.3197 8.08758L9.61123 8.09005C9.4894 8.09048 9.39097 8.18959 9.3914 8.31143L9.39146 8.33076C9.39189 8.4526 9.491 8.55103 9.61284 8.5506L10.3213 8.54813C10.4431 8.5477 10.5416 8.44859 10.5411 8.32675L10.5411 8.30742C10.5406 8.18558 10.4415 8.08715 10.3197 8.08758Z"/>
</mask>
<path d="M10.3197 8.08758L9.61123 8.09005C9.4894 8.09048 9.39097 8.18959 9.3914 8.31143L9.39146 8.33076C9.39189 8.4526 9.491 8.55103 9.61284 8.5506L10.3213 8.54813C10.4431 8.5477 10.5416 8.44859 10.5411 8.32675L10.5411 8.30742C10.5406 8.18558 10.4415 8.08715 10.3197 8.08758Z" fill="#008080"/>
<path d="M9.61473 9.09004L10.3232 9.08757L10.3162 7.08758L9.60774 7.09006L9.61473 9.09004ZM10.3232 9.08757C9.89274 9.08907 9.54257 8.74135 9.54107 8.31091L11.5411 8.30393C11.5387 7.6298 10.9903 7.08523 10.3162 7.08758L10.3232 9.08757ZM9.54107 8.31091L9.54114 8.33024L11.5411 8.32326L11.5411 8.30393L9.54107 8.31091ZM9.54114 8.33024C9.53964 7.8998 9.88736 7.54964 10.3178 7.54813L10.3248 9.54812C10.9989 9.54577 11.5435 8.99738 11.5411 8.32326L9.54114 8.33024ZM10.3178 7.54813L9.60935 7.55061L9.61633 9.55059L10.3248 9.54812L10.3178 7.54813ZM9.60935 7.55061C10.0398 7.5491 10.39 7.89683 10.3915 8.32727L8.39147 8.33425C8.39382 9.00837 8.94221 9.55295 9.61633 9.55059L9.60935 7.55061ZM10.3915 8.32727L10.3914 8.30794L8.3914 8.31492L8.39147 8.33425L10.3915 8.32727ZM10.3914 8.30794C10.3929 8.73838 10.0452 9.08854 9.61473 9.09004L9.60774 7.09006C8.93362 7.09241 8.38905 7.6408 8.3914 8.31492L10.3914 8.30794Z" fill="#008080" mask="url(#path-6-inside-4_8615_21781)"/>
</g>
</g>
</svg>
