<svg xmlns="http://www.w3.org/2000/svg" width="24" height="24" viewBox="0 0 24 24" fill="none">
  <rect width="24" height="24" fill="white"/>
  <path d="M20.2241 21.8481H3.81934C2.91187 21.8481 2.17578 21.1121 2.17578 20.2046V10.1367C2.17578 9.22925 2.91187 8.49316 3.81934 8.49316H20.2241C21.1316 8.49316 21.8677 9.22925 21.8677 10.1367V20.2046C21.8677 21.1121 21.1316 21.8481 20.2241 21.8481Z" fill="#008080"/>
  <path d="M18.3767 5.3335H5.62378C4.86353 5.3335 4.24609 5.95093 4.24609 6.71118V7.78784H19.7544V6.71118C19.7544 5.94873 19.137 5.3335 18.3767 5.3335Z" fill="#B0D8D8"/>
  <path d="M16.9048 2.14087H7.18628C6.42603 2.14087 5.80859 2.7583 5.80859 3.51855V4.59521H18.2847V3.51855C18.2825 2.7583 17.6672 2.14087 16.9048 2.14087Z" fill="#E6F2F2"/>
</svg>