<svg xmlns="http://www.w3.org/2000/svg" width="24" height="24" viewBox="0 0 24 24" fill="none">
  <path d="M13.1582 9.28174H20.8644L20.8645 20.8371C20.8644 20.8377 20.8642 20.8382 20.8638 20.8386C20.8634 20.839 20.8629 20.8392 20.8623 20.8392H13.1603C13.1598 20.8392 13.1593 20.839 13.1588 20.8386C13.1585 20.8382 13.1582 20.8377 13.1582 20.8371L13.1582 9.28174Z" stroke="#008080" stroke-width="1.5"/>
  <path d="M20.8645 2.85986H13.1582L13.1582 6.70896C13.1582 6.70958 13.1585 6.7101 13.1588 6.71045L13.1582 6.71109L12.6286 7.24073L13.1581 6.71109H12.4082C12.4088 6.90984 12.488 7.10027 12.6285 7.24078C12.7691 7.3813 12.9595 7.46053 13.1582 7.46109L20.8645 2.85986ZM20.8645 2.85986V6.70896C20.8644 6.7092 20.8644 6.70942 20.8643 6.70963C20.8642 6.70996 20.864 6.71024 20.8638 6.71045C20.8633 6.71091 20.8628 6.71107 20.8624 6.71109H13.1602C13.1598 6.71107 13.1593 6.71089 13.1588 6.71038L13.1582 6.71095L20.8645 2.85986Z" stroke="#008080" stroke-width="1.5"/>
  <path d="M2.88672 14.4189H10.5892V20.839H2.88672V14.4189Z" stroke="#008080" stroke-width="1.5"/>
  <path d="M2.88672 2.86036L10.5892 2.86036V11.8341H2.88672L2.88672 2.86036Z" stroke="#008080" stroke-width="1.5"/>
</svg>