<svg xmlns="http://www.w3.org/2000/svg" width="24" height="32" viewBox="0 0 24 32" fill="none">
  <g clip-path="url(#clip0_5855_34243)">
    <path d="M8.99744 15.9907C9.00257 18.4622 7.00054 20.4728 4.53584 20.4728C2.07799 20.4736 0.0537225 18.4477 0.0605642 15.9941C0.0674058 13.5456 2.07457 11.5333 4.51703 11.5274C6.98515 11.5214 8.99231 13.5208 8.99744 15.9907ZM7.98402 16.0001C7.98317 14.0887 6.43867 12.5408 4.53413 12.5416C2.63815 12.5425 1.07398 14.1058 1.07141 16.0009C1.0697 17.8926 2.63729 19.4577 4.53413 19.4585C6.44038 19.4585 7.98488 17.9106 7.98317 16.0001H7.98402Z" fill="#006060"/>
    <path d="M8.99748 4.45989C9.00261 6.92886 6.99631 8.94372 4.53418 8.94201C2.07718 8.94115 0.0477793 6.90748 0.0606074 4.45903C0.0734354 2.00374 2.07461 0.00171289 4.51964 2.48112e-06C6.99802 -0.00256313 8.99235 1.98493 8.99748 4.45989ZM7.98492 4.47186C7.98492 2.55535 6.44983 1.01598 4.53931 1.01598C2.63306 1.01598 1.08087 2.55963 1.07231 4.46416C1.06376 6.34903 2.63819 7.92688 4.53076 7.9303C6.43273 7.93372 7.98407 6.38068 7.98407 4.47186H7.98492Z" fill="#006060"/>
    <path d="M8.99745 27.524C9.00172 30.0007 7.01081 31.9976 4.53585 32.0002C2.07286 32.0027 0.052872 29.9827 0.0605688 27.5257C0.0682656 25.0773 2.07115 23.0693 4.51789 23.0582C6.97745 23.047 8.99317 25.0559 8.99745 27.5249V27.524ZM7.98403 27.5386C7.9866 25.628 6.44381 24.0733 4.54012 24.0699C2.65013 24.0656 1.08083 25.6297 1.07142 27.5274C1.06201 29.42 2.62532 30.9833 4.52815 30.985C6.44466 30.9867 7.98061 29.4542 7.98317 27.5394L7.98403 27.5386Z" fill="#006060"/>
    <path d="M17.5305 3.33183C15.6534 3.33183 13.7762 3.33183 11.8982 3.33183C11.7913 3.33183 11.6844 3.33611 11.5783 3.32499C11.3012 3.29677 11.1533 3.11718 11.1362 2.86062C11.1199 2.61603 11.2448 2.42532 11.4971 2.36118C11.6185 2.33039 11.7494 2.32355 11.8768 2.32355C15.6525 2.32184 19.4291 2.32184 23.2048 2.32355C23.3416 2.32355 23.4862 2.33039 23.6136 2.37315C23.8573 2.4561 23.9591 2.65109 23.9266 2.90167C23.8958 3.13856 23.7547 3.28822 23.5135 3.32243C23.4083 3.33782 23.3006 3.33183 23.1937 3.33183C21.3054 3.33183 19.418 3.33183 17.5297 3.33183H17.5305Z" fill="#006060"/>
    <path d="M17.5718 25.3979C19.4276 25.3979 21.2842 25.3979 23.14 25.3979C23.2675 25.3979 23.3975 25.3927 23.5232 25.4124C23.7643 25.4492 23.9029 25.6057 23.9277 25.8417C23.9542 26.0906 23.849 26.2856 23.6027 26.3634C23.4736 26.4045 23.3299 26.4113 23.1931 26.4113C19.4165 26.4139 15.6408 26.413 11.8642 26.413C11.7787 26.413 11.6923 26.4147 11.6093 26.4019C11.3203 26.3583 11.1236 26.1479 11.127 25.893C11.1304 25.6185 11.3391 25.4073 11.6521 25.403C12.4414 25.3928 13.2308 25.3979 14.0202 25.397C15.2046 25.397 16.3882 25.397 17.5727 25.397L17.5718 25.3979Z" fill="#006060"/>
    <path d="M17.5325 14.8668C15.6554 14.8668 13.7782 14.8668 11.901 14.8668C11.7736 14.8668 11.6428 14.871 11.5188 14.8471C11.2613 14.7966 11.1356 14.6068 11.1348 14.3647C11.1348 14.1364 11.2553 13.9508 11.494 13.8944C11.6265 13.8627 11.7693 13.8627 11.907 13.8627C15.6614 13.861 19.4157 13.861 23.17 13.8619C23.6977 13.8619 23.9406 14.0244 23.938 14.3707C23.9355 14.7162 23.7011 14.8676 23.1632 14.8676C21.286 14.8676 19.4089 14.8676 17.5317 14.8676L17.5325 14.8668Z" fill="#006060"/>
    <path d="M15.4868 28.668C16.6909 28.668 17.8959 28.668 19.1 28.668C19.1958 28.668 19.2933 28.6629 19.3874 28.6757C19.6277 28.7082 19.7722 28.8536 19.8064 29.0896C19.8432 29.3411 19.7397 29.5377 19.5003 29.6224C19.3643 29.6712 19.2078 29.6754 19.0607 29.6754C16.673 29.678 14.2852 29.6771 11.8975 29.6771C11.8548 29.6771 11.812 29.6771 11.7692 29.6771C11.3699 29.6669 11.1244 29.4685 11.127 29.1606C11.1295 28.8476 11.3622 28.6689 11.7778 28.668C13.0144 28.6663 14.251 28.668 15.4877 28.668H15.4868Z" fill="#006060"/>
    <path d="M15.4787 6.60225C14.2849 6.60225 13.091 6.60225 11.8971 6.60225C11.78 6.60225 11.6611 6.60568 11.5465 6.58772C11.2882 6.54752 11.1523 6.36964 11.136 6.12676C11.1215 5.89586 11.2352 5.70771 11.467 5.63673C11.5961 5.59739 11.7398 5.58884 11.8766 5.58884C14.2755 5.58627 16.6734 5.58627 19.0723 5.58884C19.1886 5.58884 19.3083 5.5914 19.4204 5.61792C19.6983 5.68377 19.8377 5.8702 19.8095 6.15413C19.783 6.42352 19.6188 6.58601 19.3485 6.59285C18.8268 6.60653 18.3043 6.6014 17.7818 6.60225C17.0147 6.60311 16.2467 6.60225 15.4796 6.60225H15.4787Z" fill="#006060"/>
    <path d="M15.4921 17.1338C16.6859 17.1338 17.879 17.1338 19.0728 17.1338C19.1686 17.1338 19.2652 17.1304 19.3602 17.1407C19.6347 17.1715 19.8126 17.3622 19.81 17.6273C19.8066 17.9155 19.6535 18.0823 19.3721 18.1242C19.2678 18.1396 19.16 18.1387 19.0531 18.1387C16.6663 18.1387 14.2785 18.1387 11.8917 18.1387C11.376 18.1387 11.1194 17.9643 11.1271 17.623C11.1348 17.2904 11.3743 17.1338 11.8797 17.1338C13.0838 17.1338 14.288 17.1338 15.4929 17.1338H15.4921Z" fill="#006060"/>
    <path d="M3.98315 16.2693C4.51423 15.7348 4.97775 15.2508 5.46436 14.7915C5.59179 14.671 5.79532 14.5598 5.9561 14.5683C6.09807 14.576 6.3016 14.7334 6.3495 14.8694C6.40166 15.0173 6.36831 15.2764 6.26569 15.3859C5.64737 16.0444 5.00341 16.6798 4.35516 17.3101C4.14393 17.5154 3.88651 17.5119 3.66758 17.305C3.37339 17.0279 3.08689 16.7423 2.80981 16.4481C2.59515 16.2197 2.60798 15.9401 2.8158 15.7383C3.01335 15.5467 3.3101 15.545 3.52989 15.7562C3.68212 15.9025 3.81211 16.0726 3.984 16.2693H3.98315Z" fill="#006060"/>
    <path d="M4.02831 4.70275C4.49354 4.23153 4.93397 3.78426 5.37525 3.3387C5.44282 3.27028 5.50696 3.19844 5.58221 3.14029C5.80628 2.96583 6.03376 2.96668 6.24756 3.15654C6.4511 3.33699 6.48702 3.6346 6.2869 3.84155C5.65149 4.50006 5.0041 5.1466 4.34644 5.78372C4.13435 5.98897 3.87523 5.97187 3.65886 5.76747C3.36553 5.48953 3.07818 5.20475 2.80195 4.90885C2.60012 4.69248 2.61038 4.41967 2.80109 4.22041C2.99693 4.01516 3.28086 4.00832 3.51519 4.21015C3.60327 4.28626 3.68195 4.37435 3.76576 4.45559C3.84102 4.52828 3.91799 4.60012 4.02831 4.7036V4.70275Z" fill="#006060"/>
    <path d="M3.98192 27.8051C4.51044 27.2732 4.97481 26.79 5.458 26.3282C5.5803 26.2119 5.76673 26.0938 5.91981 26.0998C6.06862 26.1058 6.28156 26.2384 6.33886 26.3701C6.40129 26.5146 6.38504 26.7857 6.28584 26.8917C5.65128 27.5682 4.99106 28.2207 4.324 28.8656C4.13244 29.0511 3.88357 29.0375 3.68602 28.8527C3.38157 28.5697 3.08567 28.2755 2.8026 27.9719C2.59906 27.7538 2.61103 27.481 2.80174 27.2817C2.99587 27.0799 3.29434 27.0662 3.51755 27.2757C3.67918 27.4271 3.81259 27.6084 3.98363 27.8042L3.98192 27.8051Z" fill="#006060"/>
  </g>
  <defs>
    <clipPath id="clip0_5855_34243">
      <rect width="23.8773" height="32" fill="white" transform="translate(0.0605469)"/>
    </clipPath>
  </defs>
</svg>