<svg xmlns="http://www.w3.org/2000/svg" width="27" height="24" viewBox="0 0 27 24" fill="none">
  <g clip-path="url(#clip0_10961_20884)">
    <path d="M5.6973 17.4967H5.68518L5.66514 17.4962L5.68148 17.5147L5.6973 17.4967ZM20.1781 1.05189V22.9481H24.4864C24.8876 22.9481 25.253 22.7831 25.5177 22.5179C25.7834 22.2542 25.9479 21.8894 25.9479 21.4871V2.51347C25.9479 2.11222 25.7834 1.7463 25.5182 1.48161C25.2535 1.2164 24.8881 1.05189 24.4864 1.05189H20.1781ZM19.1267 22.9481V1.05189H2.51737C2.1156 1.05189 1.74968 1.2164 1.48499 1.48108C1.2203 1.74577 1.0558 2.11169 1.0558 2.51347V21.4871C1.0558 21.8878 1.2203 22.2532 1.48552 22.5184C1.7502 22.7836 2.11613 22.9481 2.51737 22.9481H19.1267ZM16.7646 19.7497H17.121C17.4922 18.6003 17.5876 18.5555 17.4727 17.6887C17.1932 15.5759 15.3099 14.4971 15.4338 13.1805C15.5761 11.6694 16.2457 11.2044 16.5827 9.92364C16.7582 9.25559 17.2254 7.33951 16.8452 6.74423C16.6059 6.36882 16.0754 6.2871 15.6721 6.10308C14.3423 5.49884 13.9326 4.87086 14.0507 3.72196H12.2733C12.3914 4.87086 11.9823 5.49884 10.6525 6.10308C10.2481 6.2871 9.71822 6.36882 9.47831 6.74423C9.09868 7.33951 9.56584 9.25559 9.74194 9.92364C10.0789 11.2044 10.7474 11.6694 10.8903 13.1805C11.0142 14.4971 9.13137 15.5759 8.8514 17.6887C8.73645 18.5555 8.83136 18.6003 9.20308 19.7497H9.5806V20.0703C9.5806 20.1847 9.67445 20.278 9.78887 20.278H16.5568C16.6707 20.278 16.7646 20.1847 16.7646 20.0703V19.7497ZM2.51737 0H24.4864C25.1776 0 25.8066 0.283668 26.2617 0.73817C26.7167 1.19373 26.9998 1.82275 26.9998 2.51347V21.4871C26.9998 22.1757 26.7162 22.8047 26.2606 23.2602C25.8056 23.7169 25.1771 24 24.4864 24H2.51737C1.82666 24 1.19763 23.7169 0.742076 23.2618C0.287574 22.8068 0.00390625 22.1778 0.00390625 21.4871V2.51347C0.00390625 1.82222 0.287047 1.1932 0.742076 0.73817C1.1971 0.283141 1.82613 0 2.51737 0ZM20.5013 2.32682H23.8194V3.15304H20.5013V2.32682ZM20.5013 4.38473H22.4211V5.21095H20.5013V4.38473ZM20.5013 20.8464H22.4211V21.6727H20.5013V20.8464ZM20.5013 18.7891H23.8194V19.6158H20.5013V18.7891ZM20.5013 16.7311H22.4211V17.5574H20.5013V16.7311ZM20.5013 14.6732H23.8194V15.5H20.5013V14.6732ZM20.5013 12.6164H22.4211V13.4426H20.5013V12.6164ZM20.5013 10.5579H23.8194V11.3842H20.5013V10.5579ZM20.5013 8.50002H22.4211V9.32625H20.5013V8.50002ZM20.5013 6.44211H23.8194V7.26833H20.5013V6.44211ZM7.04499 3.99824C7.27804 3.99824 7.4668 4.187 7.4668 4.42005C7.4668 4.65258 7.27804 4.84187 7.04499 4.84187H4.32536C4.09284 4.84187 3.90408 4.65258 3.90408 4.42005C3.90408 4.187 4.09284 3.99824 4.32536 3.99824H7.04499ZM7.04499 19.1592C7.27804 19.1592 7.4668 19.3479 7.4668 19.581C7.4668 19.8135 7.27804 20.0023 7.04499 20.0023H4.32536C4.09284 20.0023 3.90408 19.8135 3.90408 19.581C3.90408 19.3479 4.09284 19.1592 4.32536 19.1592H7.04499ZM7.08612 6.86603C7.23797 7.04161 7.21846 7.30735 7.04288 7.4592C6.86783 7.61106 6.60209 7.59155 6.45024 7.41649L6.10699 7.01999V17.0232L6.45024 16.6267C6.60209 16.4512 6.86783 16.4322 7.04288 16.584C7.21846 16.7359 7.23797 17.0011 7.08612 17.1772L6.00312 18.4273C5.85126 18.6029 5.58552 18.6219 5.40994 18.4701L5.37145 18.4321L4.28793 17.2152C4.13344 17.0417 4.14873 16.7754 4.3222 16.6209C4.49567 16.4659 4.76194 16.4817 4.91695 16.6552L5.26389 17.0449V6.99732L4.91695 7.38697C4.76194 7.56097 4.49567 7.57626 4.3222 7.42177C4.14873 7.26728 4.13344 7.00101 4.28793 6.82754L5.3704 5.61009L5.40994 5.57265C5.58552 5.4208 5.85126 5.43978 6.00312 5.61536L7.08612 6.86603ZM5.73474 6.58975L5.68148 6.52805L5.62559 6.59133C5.6451 6.58869 5.66461 6.58658 5.68518 6.58658L5.73474 6.58975Z" fill="#D72727"/>
  </g>
  <defs>
    <clipPath id="clip0_10961_20884">
      <rect width="26.9959" height="24" fill="white" transform="translate(0.00390625)"/>
    </clipPath>
  </defs>
</svg>