<svg xmlns="http://www.w3.org/2000/svg" width="135" height="32" viewBox="0 0 135 32" fill="none">
  <path fill-rule="evenodd" clip-rule="evenodd" d="M4 0C1.79086 0 0 1.79086 0 4V28C0 30.2091 1.79086 32 4 32H28C30.2091 32 32 30.2091 32 28V4C32 1.79086 30.2091 0 28 0H4ZM22.8874 22.295L26.866 26.3278L26.8764 26.3803C27.2398 26.7527 27.2398 27.3522 26.8764 27.7246C26.5125 28.0918 25.9243 28.0918 25.5605 27.7246L22.0378 24.1539C17.7155 27.6111 11.5497 27.3482 7.52898 23.5354C3.50829 19.7226 2.83939 13.504 5.95499 8.9025C9.07059 4.30099 15.0357 2.69747 19.9914 5.12927C24.9472 7.56106 27.4063 13.2984 25.7781 18.6297C25.68 18.9543 25.4185 19.2011 25.0922 19.2773C24.7659 19.3535 24.4242 19.2474 24.196 18.999C23.9677 18.7506 23.8876 18.3977 23.9857 18.0731C25.3477 13.5805 23.2109 8.76091 18.9922 6.81056C14.7736 4.86022 9.78226 6.38437 7.32845 10.3722C4.87465 14.36 5.71981 19.5741 9.30343 22.5565C12.887 25.5388 18.0971 25.364 21.4783 22.148C21.6517 21.969 21.8888 21.8682 22.1362 21.8682C22.3837 21.8682 22.6208 21.969 22.7941 22.148L22.8874 22.295Z" fill="#008080"/>
  <path d="M47.1869 19.6245C46.6169 20.5679 45.5081 21.0396 43.8606 21.0396H43.7137C42.1195 21.0396 41.0242 20.5857 40.4275 19.6779C40.1425 19.2329 40 18.7256 40 18.156V11.0939H41.2824V18.1694C41.2824 18.6233 41.3492 18.9303 41.4828 19.0905C42.0082 19.7224 42.8097 20.0384 43.8873 20.0384C44.956 20.0384 45.6907 19.7358 46.0915 19.1306C46.2607 18.8814 46.3453 18.5476 46.3453 18.1293V11.0939H47.6143V18.1827C47.6143 18.6722 47.4718 19.1528 47.1869 19.6245Z" fill="#008080"/>
  <path d="M53.0276 11.0805V20.9195H51.8254V11.0805H53.0276Z" fill="#008080"/>
  <path d="M61.4977 19.8648C62.4596 19.8648 63.3724 19.5266 64.2362 18.8502L64.3698 19.9583C63.5861 20.6347 62.749 20.9729 61.8584 20.9729C59.1066 20.9729 57.4501 19.8203 56.8891 17.5152C56.8 17.0969 56.7555 16.5718 56.7555 15.9399C56.7555 15.308 56.8223 14.734 56.9559 14.2178C57.7841 12.1441 59.3248 11.1072 61.5779 11.1072H61.6046C62.6733 11.1072 63.5683 11.4899 64.2897 12.2553L64.1561 13.3634C63.7019 12.6425 62.8692 12.282 61.6581 12.282C59.2802 12.282 58.0913 13.5147 58.0913 15.98C58.0913 18.5699 59.2268 19.8648 61.4977 19.8648Z" fill="#008080"/>
  <path d="M67.4376 20.8394V11.1606H68.72V15.3926L72.9012 11.1606H74.5576L70.0692 15.3792L74.945 20.8394H73.342L69.3745 15.98L68.72 16.6475V20.8394H67.4376Z" fill="#008080"/>
  <path d="M77.2712 12.2019V11.1606H84.9523V12.2019H81.7596V20.8794H80.4772V12.2019H77.2712Z" fill="#008080"/>
  <path d="M93.9158 18.3296H89.9083L88.9999 20.8794H87.5572L91.4044 11.1606H92.6067L96.307 20.8794H94.8242L93.9158 18.3296ZM92.0457 12.4956L90.2289 17.1548H93.5552L92.0457 12.4956Z" fill="#008080"/>
  <path d="M101.121 11.0805V20.9195H99.9185V11.0805H101.121Z" fill="#008080"/>
  <path d="M104.982 11.1606H106.278V19.8515H111.514V20.8394H104.982V11.1606Z" fill="#008080"/>
  <path d="M116.549 20.4122C115.854 19.9583 115.298 19.3442 114.879 18.5699C114.46 17.8045 114.251 16.959 114.251 16.0334C114.251 15.1167 114.46 14.2667 114.879 13.4835C115.298 12.7003 115.85 12.0729 116.535 11.6012C117.23 11.1295 117.992 10.8936 118.82 10.8936C119.648 10.8936 120.405 11.1161 121.091 11.5611C121.776 12.0061 122.333 12.6158 122.761 13.3901C123.179 14.1822 123.388 15.0588 123.388 16.02C123.388 16.9812 123.179 17.8445 122.761 18.6099C122.315 19.3842 121.759 19.9894 121.091 20.4255C120.414 20.8794 119.657 21.1064 118.82 21.1064C117.983 21.1064 117.226 20.875 116.549 20.4122ZM118.873 11.9216H118.86C117.951 11.9216 117.195 12.3221 116.589 13.1231C115.974 13.9152 115.667 14.8897 115.667 16.0467C115.667 17.1948 115.957 18.1516 116.535 18.917C117.123 19.6824 117.88 20.0651 118.806 20.0651C119.724 20.0651 120.481 19.6868 121.077 18.9303C121.674 18.2005 121.972 17.2304 121.972 16.02C121.972 14.8096 121.687 13.8262 121.117 13.0697C120.539 12.3132 119.79 11.9305 118.873 11.9216Z" fill="#008080"/>
  <path d="M133.66 13.9241V14.0576C133.66 14.5738 133.482 15.1167 133.126 15.6863C132.796 16.2737 132.084 16.643 130.988 16.7943L134.128 20.9061H132.471L129.88 16.8744C129.71 16.8833 128.958 16.8878 127.622 16.8878V20.8794H126.38V11.1606H129.866C130.267 11.1606 130.508 11.1651 130.588 11.174C131.621 11.2185 132.476 11.6101 133.152 12.3488C133.491 12.7404 133.66 13.2655 133.66 13.9241ZM127.622 15.8732H130.08C131.042 15.8732 131.719 15.6106 132.111 15.0855C132.262 14.8808 132.338 14.5337 132.338 14.0442C132.338 13.5547 132.257 13.1809 132.097 12.9228C131.803 12.4244 131.189 12.1752 130.254 12.1752H127.622V15.8732Z" fill="#008080"/>
</svg>