<svg xmlns="http://www.w3.org/2000/svg" width="24" height="24" viewBox="0 0 24 24" fill="none">
  <path d="M20.0717 10.9363L20.0717 10.9363C19.6361 13.1843 17.6254 15.3936 15.5583 17.1069C14.5462 17.9457 13.5615 18.6327 12.829 19.1102C12.4898 19.3313 12.2059 19.5067 12 19.6307C11.794 19.5067 11.5101 19.3313 11.171 19.1102C10.4385 18.6327 9.45376 17.9457 8.4417 17.1069C6.37454 15.3936 4.36383 13.1843 3.92828 10.9363L3.92827 10.9363C3.47701 8.60792 3.93113 6.94084 4.73349 5.87281C5.53969 4.79967 6.75517 4.24996 7.99997 4.24996H8.02384L8.04765 4.24844C8.69935 4.20693 9.3504 4.33892 9.93447 4.63095C10.5186 4.92299 11.0148 5.36464 11.3726 5.91091L12 6.86874L12.6274 5.91091C12.9852 5.36464 13.4814 4.92299 14.0655 4.63095C14.6496 4.33892 15.3006 4.20693 15.9523 4.24844L15.9761 4.24996H16C17.2448 4.24996 18.4603 4.79967 19.2665 5.87281C20.0688 6.94084 20.5229 8.60792 20.0717 10.9363Z" stroke="#008080" stroke-width="1.5"/>
</svg>