<svg width="18" height="18" viewBox="0 0 18 18" fill="none" xmlns="http://www.w3.org/2000/svg">
<g id="Sewing Machine">
<g id="Vector">
<mask id="path-1-inside-1_8615_3454" fill="white">
<path d="M10.0781 1.08008V1.44008H9.35813V4.32008H5.39813V3.60008H4.67813V4.32008H3.59812C2.61938 4.32008 1.79813 5.10195 1.79813 6.12008C1.79813 6.58836 1.88813 7.47008 1.97813 8.26883C2.06813 9.06758 2.15813 9.76508 2.15813 9.76508L2.20312 10.0801H3.59812V10.8001H3.23813V11.5201H4.67813V10.8001H4.31813V10.0801H5.67938L5.97188 8.91008C6.01266 8.74836 6.15469 8.64008 6.32063 8.64008H8.22188C8.57063 8.64008 8.87297 8.87914 8.93063 9.21383C8.96438 9.4093 8.99813 9.93524 8.99813 10.2826C8.99813 10.6299 8.96578 11.1024 8.93063 11.3063C8.87297 11.641 8.57063 11.8801 8.22188 11.8801H2.87813C1.88813 11.8801 1.07812 12.6901 1.07812 13.6801V15.4801C1.07812 16.0721 1.56609 16.5601 2.15813 16.5601H2.87813V16.9201H4.67813V16.5601H11.8781V16.9201H13.6781V16.5601H14.3981C14.9902 16.5601 15.4781 16.0721 15.4781 15.4801V8.64008H16.9181V5.40008H15.3206C15.0408 4.76727 14.4108 4.32008 13.6781 4.32008H12.9581V2.88008H12.2381V4.32008H11.5181V1.44008H10.7981V1.08008H10.0781ZM10.0781 2.16008H10.7981V4.32008H10.0781V2.16008ZM3.59812 5.04008H3.95813V8.28008H4.67813V5.04008H13.6781C14.2786 5.04008 14.7581 5.51961 14.7581 6.12008V15.4801C14.7581 15.684 14.602 15.8401 14.3981 15.8401H2.15813C1.95422 15.8401 1.79813 15.684 1.79813 15.4801V13.6801C1.79813 13.0796 2.27766 12.6001 2.87813 12.6001H8.22188C8.90953 12.6001 9.51984 12.1163 9.63938 11.4301C9.69141 11.1348 9.71813 10.6707 9.71813 10.2826C9.71813 9.89445 9.69281 9.39383 9.63938 9.09008C9.51984 8.40383 8.90953 7.92008 8.22188 7.92008H6.32063C5.82703 7.92008 5.39391 8.2632 5.27437 8.74133L5.11688 9.36008H2.84438C2.81766 9.15055 2.76844 8.81445 2.69813 8.19008C2.60813 7.39695 2.51813 6.4843 2.51813 6.12008C2.51813 5.4732 2.98641 5.04008 3.59812 5.04008ZM12.2381 6.12008C11.6461 6.12008 11.1581 6.60805 11.1581 7.20008C11.1581 7.79211 11.6461 8.28008 12.2381 8.28008C12.8302 8.28008 13.3181 7.79211 13.3181 7.20008C13.3181 6.60805 12.8302 6.12008 12.2381 6.12008ZM15.4781 6.12008H16.1981V7.92008H15.4781V6.12008ZM12.2381 6.84008C12.4406 6.84008 12.5981 6.99758 12.5981 7.20008C12.5981 7.40258 12.4406 7.56008 12.2381 7.56008C12.0356 7.56008 11.8781 7.40258 11.8781 7.20008C11.8781 6.99758 12.0356 6.84008 12.2381 6.84008ZM12.2381 9.72008C11.2481 9.72008 10.4381 10.5301 10.4381 11.5201C10.4381 12.5101 11.2481 13.3201 12.2381 13.3201C13.2281 13.3201 14.0381 12.5101 14.0381 11.5201C14.0381 10.5301 13.2281 9.72008 12.2381 9.72008ZM12.2381 10.4401C12.8386 10.4401 13.3181 10.9196 13.3181 11.5201C13.3181 12.1205 12.8386 12.6001 12.2381 12.6001C11.6377 12.6001 11.1581 12.1205 11.1581 11.5201C11.1581 10.9196 11.6377 10.4401 12.2381 10.4401Z"/>
</mask>
<path d="M10.0781 1.08008V1.44008H9.35813V4.32008H5.39813V3.60008H4.67813V4.32008H3.59812C2.61938 4.32008 1.79813 5.10195 1.79813 6.12008C1.79813 6.58836 1.88813 7.47008 1.97813 8.26883C2.06813 9.06758 2.15813 9.76508 2.15813 9.76508L2.20312 10.0801H3.59812V10.8001H3.23813V11.5201H4.67813V10.8001H4.31813V10.0801H5.67938L5.97188 8.91008C6.01266 8.74836 6.15469 8.64008 6.32063 8.64008H8.22188C8.57063 8.64008 8.87297 8.87914 8.93063 9.21383C8.96438 9.4093 8.99813 9.93524 8.99813 10.2826C8.99813 10.6299 8.96578 11.1024 8.93063 11.3063C8.87297 11.641 8.57063 11.8801 8.22188 11.8801H2.87813C1.88813 11.8801 1.07812 12.6901 1.07812 13.6801V15.4801C1.07812 16.0721 1.56609 16.5601 2.15813 16.5601H2.87813V16.9201H4.67813V16.5601H11.8781V16.9201H13.6781V16.5601H14.3981C14.9902 16.5601 15.4781 16.0721 15.4781 15.4801V8.64008H16.9181V5.40008H15.3206C15.0408 4.76727 14.4108 4.32008 13.6781 4.32008H12.9581V2.88008H12.2381V4.32008H11.5181V1.44008H10.7981V1.08008H10.0781ZM10.0781 2.16008H10.7981V4.32008H10.0781V2.16008ZM3.59812 5.04008H3.95813V8.28008H4.67813V5.04008H13.6781C14.2786 5.04008 14.7581 5.51961 14.7581 6.12008V15.4801C14.7581 15.684 14.602 15.8401 14.3981 15.8401H2.15813C1.95422 15.8401 1.79813 15.684 1.79813 15.4801V13.6801C1.79813 13.0796 2.27766 12.6001 2.87813 12.6001H8.22188C8.90953 12.6001 9.51984 12.1163 9.63938 11.4301C9.69141 11.1348 9.71813 10.6707 9.71813 10.2826C9.71813 9.89445 9.69281 9.39383 9.63938 9.09008C9.51984 8.40383 8.90953 7.92008 8.22188 7.92008H6.32063C5.82703 7.92008 5.39391 8.2632 5.27437 8.74133L5.11688 9.36008H2.84438C2.81766 9.15055 2.76844 8.81445 2.69813 8.19008C2.60813 7.39695 2.51813 6.4843 2.51813 6.12008C2.51813 5.4732 2.98641 5.04008 3.59812 5.04008ZM12.2381 6.12008C11.6461 6.12008 11.1581 6.60805 11.1581 7.20008C11.1581 7.79211 11.6461 8.28008 12.2381 8.28008C12.8302 8.28008 13.3181 7.79211 13.3181 7.20008C13.3181 6.60805 12.8302 6.12008 12.2381 6.12008ZM15.4781 6.12008H16.1981V7.92008H15.4781V6.12008ZM12.2381 6.84008C12.4406 6.84008 12.5981 6.99758 12.5981 7.20008C12.5981 7.40258 12.4406 7.56008 12.2381 7.56008C12.0356 7.56008 11.8781 7.40258 11.8781 7.20008C11.8781 6.99758 12.0356 6.84008 12.2381 6.84008ZM12.2381 9.72008C11.2481 9.72008 10.4381 10.5301 10.4381 11.5201C10.4381 12.5101 11.2481 13.3201 12.2381 13.3201C13.2281 13.3201 14.0381 12.5101 14.0381 11.5201C14.0381 10.5301 13.2281 9.72008 12.2381 9.72008ZM12.2381 10.4401C12.8386 10.4401 13.3181 10.9196 13.3181 11.5201C13.3181 12.1205 12.8386 12.6001 12.2381 12.6001C11.6377 12.6001 11.1581 12.1205 11.1581 11.5201C11.1581 10.9196 11.6377 10.4401 12.2381 10.4401Z" stroke="#006060" stroke-width="32" mask="url(#path-1-inside-1_8615_3454)"/>
</g>
</g>
</svg>
