<svg xmlns="http://www.w3.org/2000/svg" width="21" height="24" viewBox="0 0 21 24" fill="none">
  <g clip-path="url(#clip0_10950_19703)">
    <path d="M16.5393 23.9998H4.43973C4.39628 23.9845 4.35342 23.9616 4.3088 23.9551C2.36825 23.661 0.939107 22.0228 0.981383 20.0652C1.00311 19.0524 1.12406 18.0413 1.20157 17.0296C1.33074 15.348 1.45815 13.667 1.59202 11.986C1.74116 10.1106 1.89969 8.2358 2.04648 6.35984C2.12164 5.39808 2.81977 4.73459 3.78681 4.7299C4.47437 4.72696 5.16193 4.72637 5.85008 4.7252C5.84949 5.75507 5.84421 6.78553 5.85008 7.8154C5.85243 8.25048 6.1601 8.56696 6.55232 8.56696C6.94571 8.56696 7.25162 8.24813 7.25338 7.8154C7.25691 6.78553 7.25221 5.75566 7.25103 4.7252C9.41059 4.7252 11.5702 4.7252 13.7291 4.7252C13.728 5.74744 13.7244 6.76968 13.7262 7.79191C13.7268 8.24285 14.0256 8.56637 14.4278 8.56696C14.83 8.56696 15.1289 8.24579 15.1307 7.79191C15.1342 6.76968 15.1307 5.74744 15.1295 4.7252C15.8564 4.72696 16.5833 4.7205 17.3096 4.73342C18.0706 4.74692 18.7881 5.31412 18.8761 6.06098C19.0229 7.3081 19.1057 8.56285 19.2091 9.81525C19.2971 10.8809 19.3764 11.9478 19.4609 13.0141C19.5484 14.1191 19.6377 15.2241 19.7263 16.3292C19.8138 17.4183 19.8755 18.511 19.9941 19.5967C20.1737 21.2431 19.3335 22.8613 17.8427 23.5758C17.4347 23.7714 16.9755 23.8618 16.5398 24.0004L16.5393 23.9998ZM9.51863 15.0621C9.12171 14.6634 8.74124 14.2829 8.36311 13.9007C8.18931 13.7251 7.98733 13.6194 7.73544 13.6547C7.45771 13.6934 7.25984 13.849 7.16414 14.1132C7.06021 14.3998 7.14006 14.6522 7.34909 14.863C7.87107 15.3897 8.39658 15.9135 8.92149 16.4372C9.34836 16.8623 9.69889 16.8605 10.1299 16.4302C11.2678 15.2934 12.4051 14.1567 13.5424 13.0194C13.5976 12.9642 13.6534 12.909 13.7015 12.8479C13.9246 12.5649 13.907 12.1862 13.6622 11.9308C13.4156 11.6742 13.0427 11.6413 12.748 11.8574C12.667 11.9167 12.5942 11.9895 12.5225 12.0611C11.5279 13.0534 10.5344 14.0469 9.51804 15.0627L9.51863 15.0621Z" fill="#FF8B4F"/>
    <path d="M15.1355 4.73184C14.6646 4.73184 14.1931 4.73184 13.7222 4.73184C13.7281 2.86938 12.3025 1.40032 10.4899 1.39973C8.67795 1.39973 7.25116 2.86997 7.25703 4.73184C6.78614 4.73184 6.31465 4.73184 5.84375 4.73184C5.84845 3.28626 6.38569 2.08318 7.4643 1.11496C9.12067 -0.372305 11.8603 -0.372305 13.5155 1.11496C14.593 2.08377 15.1343 3.2845 15.1361 4.73126L15.1355 4.73184Z" fill="#FF8B4F"/>
  </g>
  <defs>
    <clipPath id="clip0_10950_19703">
      <rect width="19.0374" height="24" fill="white" transform="translate(0.980469)"/>
    </clipPath>
  </defs>
</svg>