<svg xmlns="http://www.w3.org/2000/svg" width="18" height="24" viewBox="0 0 18 24" fill="none">
  <g clip-path="url(#clip0_5852_34023)">
    <path d="M6.74954 11.993C6.75339 13.8467 5.25187 15.3546 3.40335 15.3546C1.55996 15.3552 0.0417567 13.8357 0.046888 11.9956C0.0520192 10.1592 1.55739 8.65001 3.38924 8.64552C5.24032 8.64103 6.7457 10.1406 6.74954 11.993ZM5.98948 12.0001C5.98884 10.5665 4.83047 9.40558 3.40206 9.40622C1.98008 9.40686 0.80695 10.5793 0.805026 12.0007C0.803743 13.4195 1.97943 14.5932 3.40206 14.5939C4.83175 14.5939 5.99012 13.4329 5.98884 12.0001H5.98948Z" fill="#752BDF"/>
    <path d="M6.74958 3.34492C6.75343 5.19665 5.24869 6.70779 3.4021 6.70651C1.55935 6.70587 0.0372993 5.18061 0.0469204 3.34427C0.0565414 1.50281 1.55742 0.00128467 3.39119 1.86084e-06C5.24998 -0.00192235 6.74573 1.4887 6.74958 3.34492ZM5.99016 3.3539C5.99016 1.91651 4.83884 0.761988 3.40595 0.761988C1.97626 0.761988 0.812114 1.91972 0.8057 3.34812C0.799286 4.76178 1.98011 5.94516 3.39953 5.94773C4.82601 5.95029 5.98951 4.78551 5.98951 3.3539H5.99016Z" fill="#752BDF"/>
    <path d="M6.74955 20.6429C6.75276 22.5004 5.25957 23.9981 3.40335 24C1.55611 24.0019 0.0411188 22.4869 0.0468914 20.6442C0.0526641 18.8078 1.55483 17.3018 3.38988 17.2935C5.23456 17.2852 6.74634 18.7918 6.74955 20.6435V20.6429ZM5.98949 20.6538C5.99141 19.2209 4.83432 18.0548 3.40656 18.0523C1.98906 18.0491 0.812085 19.2222 0.805029 20.6455C0.797974 22.0649 1.97046 23.2374 3.39758 23.2387C4.83496 23.2399 5.98692 22.0905 5.98885 20.6544L5.98949 20.6538Z" fill="#752BDF"/>
    <path d="M13.1484 2.49887C11.7405 2.49887 10.3326 2.49887 8.92411 2.49887C8.84393 2.49887 8.76376 2.50208 8.68422 2.49374C8.47641 2.47258 8.36545 2.33788 8.35262 2.14546C8.34043 1.96202 8.43408 1.81899 8.62329 1.77088C8.71437 1.74779 8.8125 1.74266 8.90807 1.74266C11.7399 1.74138 14.5723 1.74138 17.4041 1.74266C17.5067 1.74266 17.6151 1.74779 17.7107 1.77986C17.8935 1.84208 17.9698 1.98832 17.9454 2.17625C17.9223 2.35392 17.8165 2.46616 17.6356 2.49182C17.5567 2.50336 17.4759 2.49887 17.3958 2.49887C15.9795 2.49887 14.564 2.49887 13.1477 2.49887H13.1484Z" fill="#752BDF"/>
    <path d="M13.1813 19.0484C14.5731 19.0484 15.9656 19.0484 17.3575 19.0484C17.453 19.0484 17.5505 19.0446 17.6448 19.0593C17.8257 19.0869 17.9296 19.2043 17.9482 19.3813C17.9681 19.5679 17.8892 19.7142 17.7045 19.7726C17.6076 19.8033 17.4999 19.8085 17.3972 19.8085C14.5648 19.8104 11.733 19.8098 8.90058 19.8098C8.83644 19.8098 8.77166 19.811 8.70944 19.8014C8.49265 19.7687 8.34512 19.6109 8.34769 19.4198C8.35025 19.2139 8.50676 19.0555 8.74151 19.0523C9.33352 19.0446 9.92554 19.0484 10.5176 19.0478C11.4059 19.0478 12.2936 19.0478 13.1819 19.0478L13.1813 19.0484Z" fill="#752BDF"/>
    <path d="M13.1499 11.1501C11.742 11.1501 10.3341 11.1501 8.92626 11.1501C8.83069 11.1501 8.73256 11.1533 8.63955 11.1353C8.44649 11.0975 8.3522 10.9551 8.35156 10.7736C8.35156 10.6023 8.442 10.4631 8.62095 10.4208C8.72037 10.3971 8.82748 10.3971 8.93075 10.3971C11.7465 10.3958 14.5623 10.3958 17.378 10.3964C17.7738 10.3964 17.9559 10.5183 17.954 10.7781C17.9521 11.0372 17.7763 11.1507 17.3729 11.1507C15.965 11.1507 14.5571 11.1507 13.1493 11.1507L13.1499 11.1501Z" fill="#752BDF"/>
    <path d="M11.6175 21.5012C12.5206 21.5012 13.4244 21.5012 14.3275 21.5012C14.3993 21.5012 14.4724 21.4974 14.543 21.507C14.7232 21.5314 14.8316 21.6404 14.8573 21.8175C14.8848 22.006 14.8072 22.1536 14.6276 22.2171C14.5257 22.2536 14.4083 22.2568 14.298 22.2568C12.5072 22.2587 10.7164 22.2581 8.92557 22.2581C8.8935 22.2581 8.86143 22.2581 8.82936 22.2581C8.52983 22.2504 8.34575 22.1016 8.34767 21.8707C8.3496 21.6359 8.52406 21.5019 8.83578 21.5012C9.76325 21.5 10.6907 21.5012 11.6182 21.5012H11.6175Z" fill="#752BDF"/>
    <path d="M11.6095 4.95145C10.7141 4.95145 9.81874 4.95145 8.92334 4.95145C8.83547 4.95145 8.74631 4.95401 8.66036 4.94054C8.46666 4.9104 8.36468 4.77699 8.35249 4.59483C8.34159 4.42165 8.42689 4.28054 8.60071 4.2273C8.69757 4.1978 8.80532 4.19138 8.90795 4.19138C10.7071 4.18946 12.5056 4.18946 14.3047 4.19138C14.3919 4.19138 14.4817 4.19331 14.5658 4.21319C14.7742 4.26258 14.8788 4.40241 14.8576 4.61535C14.8377 4.81739 14.7146 4.93926 14.5119 4.94439C14.1206 4.95465 13.7287 4.95081 13.3368 4.95145C12.7615 4.95209 12.1855 4.95145 11.6102 4.95145H11.6095Z" fill="#752BDF"/>
    <path d="M11.6215 12.8505C12.5169 12.8505 13.4117 12.8505 14.3071 12.8505C14.3789 12.8505 14.4514 12.8479 14.5226 12.8556C14.7285 12.8787 14.8619 13.0218 14.8599 13.2206C14.8574 13.4367 14.7426 13.5618 14.5315 13.5933C14.4533 13.6048 14.3725 13.6042 14.2923 13.6042C12.5021 13.6042 10.7114 13.6042 8.9212 13.6042C8.53443 13.6042 8.34201 13.4733 8.34778 13.2174C8.35355 12.9679 8.53315 12.8505 8.91222 12.8505C9.81531 12.8505 10.7184 12.8505 11.6221 12.8505H11.6215Z" fill="#752BDF"/>
    <path d="M2.98883 12.2019C3.38714 11.801 3.73478 11.438 4.09973 11.0935C4.1953 11.0031 4.34796 10.9197 4.46854 10.9261C4.57501 10.9319 4.72767 11.0499 4.76359 11.1519C4.80271 11.2629 4.7777 11.4572 4.70073 11.5393C4.23699 12.0332 3.75402 12.5098 3.26784 12.9825C3.10941 13.1364 2.91635 13.1338 2.75215 12.9786C2.53151 12.7708 2.31664 12.5566 2.10882 12.3359C1.94783 12.1647 1.95745 11.9549 2.11331 11.8036C2.26148 11.6599 2.48404 11.6586 2.64888 11.817C2.76305 11.9267 2.86055 12.0544 2.98947 12.2019H2.98883Z" fill="#752BDF"/>
    <path d="M3.0227 3.52706C3.37162 3.17365 3.70194 2.83819 4.03291 2.50402C4.08358 2.45271 4.13168 2.39883 4.18812 2.35522C4.35617 2.22437 4.52679 2.22501 4.68714 2.3674C4.83979 2.50274 4.86673 2.72595 4.71664 2.88117C4.24008 3.37505 3.75454 3.85995 3.2613 4.33779C3.10223 4.49173 2.90789 4.4789 2.74561 4.3256C2.52561 4.11715 2.3101 3.90356 2.10293 3.68164C1.95155 3.51936 1.95925 3.31475 2.10228 3.16531C2.24917 3.01137 2.46211 3.00624 2.63786 3.15761C2.70392 3.2147 2.76293 3.28076 2.82579 3.34169C2.88223 3.39621 2.93996 3.45009 3.0227 3.5277V3.52706Z" fill="#752BDF"/>
    <path d="M2.98791 20.8538C3.38429 20.4549 3.73258 20.0925 4.09497 19.7461C4.18669 19.6589 4.32651 19.5704 4.44132 19.5749C4.55293 19.5794 4.71264 19.6788 4.75561 19.7776C4.80243 19.886 4.79025 20.0893 4.71585 20.1688C4.23992 20.6762 3.74476 21.1655 3.24447 21.6492C3.10079 21.7884 2.91415 21.7781 2.76598 21.6395C2.53764 21.4272 2.31572 21.2066 2.10341 20.9789C1.95076 20.8153 1.95974 20.6107 2.10277 20.4613C2.24837 20.3099 2.47222 20.2997 2.63963 20.4568C2.76085 20.5703 2.86091 20.7063 2.98919 20.8532L2.98791 20.8538Z" fill="#752BDF"/>
  </g>
  <defs>
    <clipPath id="clip0_5852_34023">
      <rect width="17.908" height="24" fill="white" transform="translate(0.046875)"/>
    </clipPath>
  </defs>
</svg>