<svg xmlns="http://www.w3.org/2000/svg" width="24" height="24" viewBox="0 0 24 24" fill="none">
  <path d="M20.9646 8.77695C20.9646 9.83195 20.9609 10.8863 20.9652 11.9413C20.979 14.9957 19.8265 17.5276 17.5515 19.5451C16.0002 20.9207 14.209 21.8732 12.2234 22.4557C12.0702 22.5007 11.8796 22.5001 11.7271 22.4526C9.00336 21.612 6.64586 20.2076 4.89711 17.9038C3.79523 16.4532 3.18273 14.802 3.04398 12.9832C3.00023 12.4082 2.99836 11.8288 2.99711 11.2513C2.99211 9.14945 2.99711 7.0482 2.99023 4.94633C2.99023 4.76633 3.04898 4.69445 3.21211 4.63508C6.06461 3.60133 8.91398 2.56008 11.7665 1.52758C11.8859 1.48445 12.0459 1.4707 12.1621 1.51258C15.0209 2.54695 17.8759 3.59258 20.7346 4.6282C20.909 4.69133 20.9702 4.76445 20.969 4.9557C20.959 6.22883 20.964 7.50258 20.964 8.77633L20.9646 8.77695ZM19.469 5.78695C19.4171 5.7632 19.3765 5.74133 19.3334 5.7257C16.929 4.84945 14.5246 3.97195 12.1177 3.10133C12.0334 3.0707 11.9171 3.07695 11.8309 3.1082C9.44023 3.97383 7.05148 4.84633 4.66148 5.7132C4.53273 5.76008 4.48773 5.82195 4.48836 5.96195C4.49398 8.03258 4.47523 10.1032 4.49898 12.1732C4.52023 13.9882 5.05836 15.6438 6.17148 17.0913C7.64586 19.0095 9.62523 20.1807 11.8827 20.9313C11.9621 20.9576 12.0671 20.9376 12.1515 20.9113C13.3202 20.5513 14.414 20.0295 15.4246 19.3413C18.0009 17.5851 19.4409 15.1895 19.4652 12.022C19.4809 9.99883 19.4684 7.97508 19.4684 5.95133C19.4684 5.89695 19.4684 5.8432 19.4684 5.78695H19.469Z" fill="#48B9FF"/>
  <path d="M10.4873 13.9361C12.3129 12.1073 14.1241 10.2923 15.9173 8.49609C16.2754 8.85297 16.621 9.19797 16.946 9.52172C14.7941 11.6773 12.6298 13.8455 10.4798 15.9992C9.32977 14.8473 8.16352 13.6786 7.00977 12.523C7.33727 12.1955 7.68289 11.8498 8.04539 11.4867C8.84414 12.288 9.65727 13.1036 10.4873 13.9367V13.9361Z" fill="#48B9FF"/>
</svg>